<svg width="355" height="149" viewBox="0 0 355 149" fill="none" xmlns="http://www.w3.org/2000/svg">
<rect y="82.2941" width="39.6556" height="66.7057" rx="7.62607" fill="url(#paint0_linear_114_2129)"/>
<rect x="52.3986" y="20.1127" width="39.6556" height="128.887" rx="7.62607" fill="url(#paint1_linear_114_2129)"/>
<rect x="104.797" y="102.384" width="39.6556" height="46.6163" rx="7.62607" fill="url(#paint2_linear_114_2129)"/>
<rect x="157.196" width="39.6556" height="149" rx="7.62607" fill="url(#paint3_linear_114_2129)"/>
<rect x="209.594" y="31.5923" width="39.6556" height="117.408" rx="7.62607" fill="url(#paint4_linear_114_2129)"/>
<rect x="261.993" y="95.4579" width="39.6556" height="53.5421" rx="7.62607" fill="url(#paint5_linear_114_2129)"/>
<rect x="314.392" y="72.8767" width="39.6556" height="76.1232" rx="7.62607" fill="url(#paint6_linear_114_2129)"/>
<defs>
<linearGradient id="paint0_linear_114_2129" x1="19.8278" y1="82.2941" x2="19.8278" y2="149" gradientUnits="userSpaceOnUse">
<stop stop-color="#ECFE72"/>
<stop offset="1" stop-color="#8E983E"/>
</linearGradient>
<linearGradient id="paint1_linear_114_2129" x1="72.2264" y1="20.1127" x2="72.2264" y2="149" gradientUnits="userSpaceOnUse">
<stop stop-color="#ECFE72"/>
<stop offset="1" stop-color="#8E983E"/>
</linearGradient>
<linearGradient id="paint2_linear_114_2129" x1="124.625" y1="102.384" x2="124.625" y2="149" gradientUnits="userSpaceOnUse">
<stop stop-color="#ECFE72"/>
<stop offset="1" stop-color="#8E983E"/>
</linearGradient>
<linearGradient id="paint3_linear_114_2129" x1="177.024" y1="0" x2="177.024" y2="149" gradientUnits="userSpaceOnUse">
<stop stop-color="#ECFE72"/>
<stop offset="1" stop-color="#8E983E"/>
</linearGradient>
<linearGradient id="paint4_linear_114_2129" x1="229.422" y1="31.5923" x2="229.422" y2="149" gradientUnits="userSpaceOnUse">
<stop stop-color="#ECFE72"/>
<stop offset="1" stop-color="#8E983E"/>
</linearGradient>
<linearGradient id="paint5_linear_114_2129" x1="281.821" y1="95.4579" x2="281.821" y2="149" gradientUnits="userSpaceOnUse">
<stop stop-color="#ECFE72"/>
<stop offset="1" stop-color="#8E983E"/>
</linearGradient>
<linearGradient id="paint6_linear_114_2129" x1="334.219" y1="72.8767" x2="334.219" y2="149" gradientUnits="userSpaceOnUse">
<stop stop-color="#ECFE72"/>
<stop offset="1" stop-color="#8E983E"/>
</linearGradient>
</defs>
</svg>
