<svg xmlns="http://www.w3.org/2000/svg" width="187" height="187" viewBox="0 0 187 187" fill="none">
<path d="M139.812 159.712C141.163 161.641 143.83 162.118 145.69 160.673C158.737 150.528 168.583 136.789 173.984 121.104C179.848 104.073 180.17 85.6218 174.904 68.396C169.637 51.1702 159.053 36.0538 144.667 25.2134C130.281 14.373 112.833 8.36508 94.8229 8.05071C76.8127 7.73635 59.1654 13.1317 44.4101 23.4634C29.6548 33.7952 18.5491 48.533 12.6847 65.5645C6.82032 82.596 6.49826 101.047 11.7647 118.273C16.6147 134.136 25.975 148.211 38.6607 158.804C40.4687 160.314 43.1506 159.93 44.5681 158.049C45.9857 156.168 45.6011 153.503 43.8016 151.983C32.5503 142.481 24.245 129.92 19.9217 115.779C15.1819 100.276 15.4717 83.6698 20.7497 68.3415C26.0277 53.0131 36.0228 39.7491 49.3025 30.4505C62.5823 21.1519 78.4649 16.2961 94.674 16.5791C110.883 16.862 126.587 22.2691 139.534 32.0255C152.481 41.7819 162.007 55.3866 166.747 70.8898C171.487 86.393 171.197 102.999 165.919 118.327C161.105 132.308 152.366 144.572 140.79 153.676C138.939 155.132 138.461 157.782 139.812 159.712Z" fill="#E9EDF0"/>
<path d="M42.0169 155.703C37.6071 161.063 29.6129 161.884 24.8939 156.794C17.6101 148.939 11.7112 139.865 7.48368 129.953C1.60715 116.176 -0.867405 101.187 0.269051 86.2525C1.40551 71.3177 6.11958 56.8757 14.0131 44.1465C21.9066 31.4173 32.7477 20.7747 45.6206 13.1177C58.4935 5.4608 73.0201 1.01438 87.9734 0.154084C102.927 -0.706213 117.867 2.04488 131.533 8.17498C145.2 14.3051 157.19 23.6341 166.491 35.3741C173.182 43.8198 178.341 53.3347 181.767 63.4847C183.986 70.0608 179.449 76.6936 172.635 78.0104C165.82 79.3272 159.334 74.8025 156.791 68.3446C154.339 62.1175 150.975 56.2637 146.791 50.9822C139.994 42.4037 131.233 35.5868 121.247 31.1075C111.261 26.6282 100.344 24.6179 89.417 25.2466C78.4905 25.8752 67.8758 29.1242 58.4694 34.7192C49.063 40.3143 41.1414 48.0909 35.3735 57.3923C29.6056 66.6936 26.161 77.2465 25.3306 88.1596C24.5002 99.0726 26.3083 110.025 30.6024 120.092C33.2461 126.29 36.7842 132.04 41.0857 137.168C45.5465 142.485 46.4268 150.344 42.0169 155.703Z" fill="#15301F"/>
</svg>