<svg width="50" height="50" viewBox="0 0 50 50" fill="none" xmlns="http://www.w3.org/2000/svg">
<circle cx="25" cy="25" r="24.5" fill="white" stroke="#CCCCCC"/>
<g clip-path="url(#clip0_12_7089)">
<path d="M38 28.0576C38 29.9185 36.4858 31.4326 34.625 31.4326C32.8013 31.4326 31.312 29.9785 31.2524 28.1694L29.6147 27.8618C29.3105 28.8086 28.772 29.6519 28.0674 30.3223L29.2021 31.8599C29.4805 31.7583 29.7808 31.7026 30.0938 31.7026C31.5283 31.7026 32.6948 32.8691 32.6948 34.3037C32.6948 35.7378 31.5283 36.9048 30.0938 36.9048C28.6597 36.9048 27.4927 35.7378 27.4927 34.3037C27.4927 33.7129 27.6909 33.168 28.0239 32.731L26.8896 31.1929C26.0396 31.6704 25.0601 31.9434 24.0181 31.9434C22.2417 31.9434 20.6475 31.1514 19.5684 29.9023L18.0854 30.8887C18.1611 31.1328 18.2021 31.3921 18.2021 31.6606C18.2021 33.0952 17.0356 34.2617 15.6011 34.2617C14.167 34.2617 13 33.0952 13 31.6606C13 30.2266 14.167 29.0596 15.6011 29.0596C16.2373 29.0596 16.8203 29.2896 17.2725 29.6699L18.7559 28.6836C18.3618 27.8945 18.1396 27.0054 18.1396 26.0654C18.1396 24.4106 18.8271 22.9141 19.9312 21.8447L17.7676 18.9653C17.3304 19.1647 16.8555 19.2678 16.375 19.2676C14.5142 19.2676 13 17.7534 13 15.8921C13 14.0313 14.5142 12.5171 16.375 12.5171C18.2363 12.5171 19.7505 14.0313 19.7505 15.8921C19.7505 16.7285 19.4438 17.4941 18.938 18.0845L21.1011 20.9634C21.9609 20.4697 22.957 20.187 24.0181 20.187C24.2856 20.187 24.5493 20.2056 24.8076 20.2402L25.4453 17.8403C24.6953 17.3833 24.1929 16.5576 24.1929 15.6167C24.1929 14.1826 25.3599 13.0156 26.7939 13.0156C28.2285 13.0156 29.395 14.1826 29.395 15.6167C29.395 17.0288 28.2646 18.1807 26.8613 18.2163L26.2231 20.6167C26.7031 20.8115 27.1519 21.0684 27.5591 21.377L31.5078 17.3193C31.1587 16.7881 30.9546 16.1528 30.9546 15.4702C30.9546 13.6094 32.4683 12.0952 34.3296 12.0952C36.1904 12.0952 37.7046 13.6094 37.7046 15.4702C37.7046 17.3315 36.1904 18.8457 34.3296 18.8457C33.6797 18.8457 33.0728 18.6606 32.5576 18.3413L28.6089 22.3984C29.4136 23.4048 29.896 24.6797 29.896 26.0654C29.896 26.1851 29.8921 26.3037 29.8848 26.4219L31.522 26.7295C32.0391 25.5269 33.2349 24.6821 34.625 24.6821C36.4858 24.6821 38 26.1963 38 28.0576Z" fill="#7F52D9"/>
</g>
<defs>
<clipPath id="clip0_12_7089">
<rect width="25" height="25" fill="white" transform="translate(13 12)"/>
</clipPath>
</defs>
</svg>
