<svg width="50" height="50" viewBox="0 0 50 50" fill="none" xmlns="http://www.w3.org/2000/svg">
<circle cx="25" cy="25" r="24.5" fill="white" stroke="#CCCCCC"/>
<path fill-rule="evenodd" clip-rule="evenodd" d="M25.7842 16.3697C23.9664 16.3087 22.1752 16.8194 20.6628 17.8297C18.9623 18.9666 17.717 20.6665 17.1456 22.6306C16.9909 22.6117 16.8056 22.62 16.5856 22.6822C15.7642 22.9156 15.1467 23.5883 14.8689 24.1811C14.5084 24.9536 14.3564 25.9756 14.5167 27.03C14.6759 28.0814 15.12 28.9481 15.6756 29.4861C16.2328 30.0245 16.862 30.1995 17.487 30.0681C18.4175 29.8695 18.8789 29.7208 18.7487 28.8542L18.1181 24.6514C18.1821 23.5075 18.5112 22.3942 19.0794 21.3994C19.6476 20.4046 20.4393 19.5555 21.392 18.9192C22.6759 18.0602 24.1968 17.6255 25.7407 17.6761C27.2846 17.7268 28.7738 18.2602 29.9987 19.2014C30.8443 19.8498 31.5397 20.6734 32.0372 21.6158C32.5346 22.5582 32.8224 23.5971 32.8806 24.6611L32.4395 27.6008C31.9609 28.9128 31.1201 30.0623 30.0147 30.9158C28.9093 31.7693 27.5846 32.2919 26.1942 32.4231H24.3148C24.1998 32.4228 24.0858 32.4453 23.9795 32.4891C23.8732 32.533 23.7766 32.5974 23.6953 32.6787C23.6139 32.76 23.5494 32.8566 23.5055 32.9629C23.4616 33.0692 23.439 33.1831 23.4392 33.2981V33.7597C23.439 33.8748 23.4615 33.9887 23.5054 34.095C23.5493 34.2013 23.6138 34.2979 23.6952 34.3792C23.7765 34.4606 23.8731 34.525 23.9795 34.5689C24.0858 34.6128 24.1997 34.6353 24.3148 34.635H26.6845C26.7994 34.6352 26.9132 34.6127 27.0193 34.5688C27.1255 34.5248 27.2219 34.4604 27.3031 34.3791C27.3843 34.2977 27.4486 34.2012 27.4924 34.095C27.5361 33.9887 27.5585 33.8749 27.5581 33.76V33.5183C29.6872 32.997 31.542 31.6934 32.7537 29.8667L33.5128 30.0681C34.1306 30.2283 34.7673 30.0242 35.3242 29.4861C35.8798 28.9478 36.3237 28.0814 36.4831 27.03C36.6442 25.9753 36.4875 24.9553 36.1314 24.1811C35.7739 23.407 35.2414 22.9153 34.6267 22.7389C34.3692 22.6647 34.0898 22.6375 33.85 22.6306C33.3341 20.8542 32.2646 19.2889 30.7973 18.1625C29.3549 17.0552 27.6016 16.4282 25.7842 16.3697Z" fill="#7F52D9"/>
<path fill-rule="evenodd" clip-rule="evenodd" d="M28.5581 23.9306C28.8592 23.9309 29.1478 24.0507 29.3606 24.2636C29.5734 24.4765 29.6931 24.7651 29.6934 25.0661C29.6929 25.3671 29.5731 25.6557 29.3602 25.8685C29.1474 26.0813 28.8589 26.2012 28.5579 26.2017C28.2565 26.2017 27.9675 26.0822 27.7542 25.8693C27.541 25.6563 27.421 25.3675 27.4206 25.0661C27.4207 24.9169 27.4502 24.7691 27.5074 24.6312C27.5646 24.4933 27.6484 24.3681 27.754 24.2626C27.8596 24.1572 27.9849 24.0735 28.1228 24.0165C28.2608 23.9595 28.4086 23.9302 28.5579 23.9303L28.5581 23.9306ZM25.4998 23.9306C25.7244 23.9307 25.9438 23.9974 26.1305 24.1222C26.3172 24.247 26.4626 24.4244 26.5485 24.6319C26.6344 24.8394 26.6568 25.0677 26.6129 25.2879C26.5691 25.5081 26.4609 25.7104 26.3021 25.8692C26.1433 26.0279 25.941 26.1361 25.7207 26.1799C25.5005 26.2237 25.2722 26.2012 25.0647 26.1153C24.8573 26.0293 24.6799 25.8838 24.5552 25.6971C24.4304 25.5104 24.3637 25.2909 24.3637 25.0664C24.3635 24.9172 24.3928 24.7694 24.4499 24.6314C24.5069 24.4935 24.5906 24.3682 24.6961 24.2627C24.8016 24.1572 24.9269 24.0735 25.0649 24.0165C25.2028 23.9594 25.3506 23.9304 25.4998 23.9306ZM22.4423 23.9306C22.5935 23.9272 22.7439 23.9541 22.8846 24.0097C23.0253 24.0652 23.1535 24.1483 23.2616 24.2541C23.3698 24.3599 23.4557 24.4862 23.5144 24.6257C23.573 24.7651 23.6032 24.9148 23.6032 25.0661C23.6032 25.2174 23.573 25.3671 23.5144 25.5066C23.4557 25.646 23.3698 25.7723 23.2616 25.8781C23.1535 25.9839 23.0253 26.067 22.8846 26.1225C22.7439 26.1781 22.5935 26.205 22.4423 26.2017C22.1442 26.197 21.8598 26.0753 21.6506 25.8628C21.4415 25.6503 21.3242 25.3641 21.3242 25.066C21.3242 24.7678 21.4415 24.4816 21.6506 24.2691C21.8598 24.0566 22.1442 23.9352 22.4423 23.9306ZM25.4998 19.0517C22.1692 19.0517 19.4854 21.6472 19.4854 25.0658C19.4854 26.7078 20.1062 28.1589 21.1176 29.2236L20.7587 30.8325C20.6404 31.3619 21.0076 31.7181 21.4837 31.4531L23.0545 30.5767C23.8263 30.9108 24.6587 31.0824 25.4998 31.0806C28.8315 31.0806 31.5137 28.4867 31.5137 25.0667C31.5137 21.6478 28.8315 19.0522 25.4998 19.0522V19.0517Z" fill="#7F52D9"/>
</svg>
