<svg width="811" height="815" viewBox="0 0 811 815" fill="none" xmlns="http://www.w3.org/2000/svg">
<path fill-rule="evenodd" clip-rule="evenodd" d="M-77.6037 165.63C-80.7254 167.681 -82.4815 171.266 -82.1727 174.988C-82.0311 176.671 -81.463 178.313 -80.5307 179.732L-76.1159 186.434C-77.0688 188.199 -77.5172 190.23 -77.3489 192.28C-77.1884 194.163 -76.521 195.969 -75.4089 197.516L-71.1874 203.375C-72.233 205.226 -72.7186 207.372 -72.5386 209.567L-72.5394 209.561C-72.3657 211.652 -71.5908 213.634 -70.2942 215.294L-66.3013 220.4C-67.4141 222.332 -67.9367 224.582 -67.7475 226.857L-67.754 226.858C-67.5605 229.156 -66.6727 231.306 -65.1787 233.079L-61.4774 237.468C-62.6362 239.458 -63.1675 241.771 -62.9703 244.142C-62.762 246.66 -61.7547 248.979 -60.0577 250.857L-56.6805 254.59C-57.8614 256.639 -58.4055 259.013 -58.2051 261.435C-57.9812 264.128 -56.8262 266.683 -54.943 268.635L-51.9278 271.758C-53.1135 273.854 -53.6594 276.276 -53.4536 278.723C-53.2156 281.63 -51.9274 284.358 -49.8292 286.407L-47.2024 288.967C-48.3726 291.099 -48.9096 293.554 -48.7077 296.018C-48.4476 299.152 -47.0271 302.046 -44.709 304.179L-42.5092 306.203C-43.6637 308.36 -44.1748 310.805 -43.9691 313.308L-43.9699 313.302C-43.694 316.662 -42.1396 319.735 -39.5951 321.951L-37.8398 323.481C-38.9565 325.657 -39.4476 328.104 -39.2432 330.6C-38.9451 334.186 -37.252 337.425 -34.4812 339.723L-33.1921 340.79C-34.2597 342.979 -34.7259 345.42 -34.524 347.892C-34.2103 351.653 -32.3332 355.156 -29.3675 357.495L-28.56 358.132C-29.575 360.321 -30.0142 362.746 -29.8111 365.185C-29.4809 369.179 -27.4513 372.853 -24.2544 375.26L-23.9366 375.5C-24.8937 377.684 -25.3033 380.085 -25.1038 382.485L-25.0973 382.485C-24.7576 386.63 -22.6535 390.412 -19.3249 392.897C-20.2165 395.063 -20.5928 397.425 -20.3973 399.779C-20.0521 403.947 -17.9968 407.732 -14.7199 410.284C-15.5604 412.427 -15.8998 414.728 -15.7038 417.075C-15.3526 421.271 -13.3422 425.064 -10.1113 427.684C-10.8928 429.807 -11.2021 432.07 -11.0101 434.37L-11.0173 434.365C-10.6654 438.596 -8.68752 442.399 -5.50502 445.081C-6.23523 447.18 -6.51785 449.409 -6.32939 451.667L-6.32296 451.667C-5.97941 455.855 -3.99502 459.734 -0.884124 462.475C-1.56324 464.554 -1.82274 466.749 -1.64227 468.964L-1.64871 468.965C-1.29496 473.178 0.655408 477.074 3.72959 479.875C3.0941 481.929 2.85722 484.088 3.03838 486.261C3.38811 490.508 5.30827 494.412 8.34589 497.265C7.75176 499.297 7.53466 501.424 7.71261 503.559L7.70617 503.56C8.06133 507.836 9.95774 511.761 12.9631 514.668C12.4102 516.673 12.2125 518.764 12.387 520.857C12.743 525.163 14.6087 529.105 17.5777 532.063C17.0623 534.044 16.8813 536.104 17.0492 538.163L17.0484 538.156C17.5745 544.468 21.2376 549.982 26.8493 552.913L523.582 812.483C527.933 814.757 532.917 815.21 537.611 813.745C542.305 812.285 546.145 809.09 548.426 804.745L808.893 309.206C810.516 306.115 811.221 302.65 810.938 299.187C810.42 292.881 806.756 287.36 801.144 284.429L304.411 24.8594C301.905 23.55 299.191 22.8463 296.442 22.7637C294.626 22.103 292.732 21.7446 290.821 21.694C288.986 21.0208 287.087 20.6738 285.2 20.6319C283.387 19.9516 281.486 19.5891 279.565 19.5529C277.763 18.8681 275.87 18.5051 273.954 18.4755C272.139 17.7773 270.246 17.4264 268.364 17.402C266.552 16.6858 264.632 16.3148 262.687 16.3052C260.915 15.5991 259.033 15.2338 257.122 15.2258C255.329 14.4939 253.416 14.1213 251.473 14.1269C249.702 13.3955 247.806 13.0253 245.875 13.037C244.074 12.279 242.163 11.9177 240.263 11.9363C238.47 11.1654 236.557 10.8007 234.657 10.8269C232.898 10.0518 230.986 9.66747 229.029 9.70765C227.255 8.91595 225.345 8.54708 223.447 8.59083C221.706 7.78646 219.79 7.39077 217.818 7.45027C216.175 6.67963 214.365 6.28463 212.496 6.30754C212.398 6.30875 212.299 6.31113 212.2 6.31465C210.446 5.47829 208.523 5.09609 206.614 5.17148C204.864 4.31385 202.932 3.9232 201.013 4.00963C199.272 3.13465 197.336 2.73714 195.412 2.83512C193.684 1.94616 191.748 1.54245 189.823 1.6509C188.108 0.745641 186.17 0.333256 184.243 0.450886C181.038 -1.28734 176.998 -1.25696 173.742 0.876526L-77.6037 165.63ZM181.568 0.967617C179.254 0.362031 176.7 0.698871 174.546 2.10898L-76.7868 166.86C-79.4623 168.613 -80.9634 171.682 -80.6967 174.866C-80.5797 176.304 -80.0941 177.707 -79.2926 178.92L-75.2405 185.072C-74.6172 184.25 -73.8692 183.514 -73.0117 182.899L178.769 2.39731C179.648 1.76749 180.592 1.29269 181.568 0.967617ZM-74.3805 186.378C-73.7907 185.507 -73.0404 184.732 -72.1474 184.091L179.62 3.58461C180.926 2.65064 182.399 2.11359 183.892 1.95004C184.37 2.2394 184.823 2.57663 185.243 2.96014C184.743 3.23403 184.259 3.551 183.796 3.91168L-66.3536 198.564L-74.3805 186.378ZM-75.1847 187.847C-75.7558 189.175 -76.003 190.647 -75.8793 192.159C-75.7459 193.778 -75.1691 195.333 -74.2152 196.664L-70.3193 202.072C-69.7736 201.369 -69.1357 200.728 -68.4132 200.167L-67.5245 199.476L-75.1847 187.847ZM-66.715 200.704L-67.5079 201.321C-68.2515 201.899 -68.8921 202.575 -69.418 203.322L-60.9697 215.048L-58.5847 213.047L-66.715 200.704ZM-57.7742 214.277L-60.1119 216.239L-51.6918 227.925L-49.866 226.282L-57.7742 214.277ZM-48.7552 225.282L-56.6342 213.32L188.584 7.54804L190.294 10.1444L-48.7552 225.282ZM-49.0486 227.523L-50.8279 229.124L-42.6551 240.467L-41.3484 239.212L-49.0486 227.523ZM-40.2653 238.172L-47.9379 226.523L191.113 11.3882L192.942 14.1643L-40.2653 238.172ZM-40.5257 240.461L-41.7869 241.672L-33.8373 252.706L-33.0135 251.865L-40.5257 240.461ZM-31.9567 250.786L-39.4427 239.42L193.764 15.4132L195.705 18.3596L-31.9567 250.786ZM-32.1869 253.119L-32.9661 253.915L-25.2243 264.66L-24.8508 264.256L-32.1869 253.119ZM-23.819 263.14L-31.1302 252.04L196.532 19.6144L198.571 22.7105L-23.819 263.14ZM-24.0183 265.52L-24.3479 265.876L-17.7633 275.015L-24.0183 265.52ZM-15.8373 275.258L-22.9865 264.404L199.406 23.9775L201.536 27.2127L-15.8373 275.258ZM-8.00437 287.15L-15.0009 276.528L202.371 28.4789L204.592 31.852L-8.00437 287.15ZM-0.31102 298.83L-7.16218 288.429L205.439 33.1372L207.73 36.6147L-0.31102 298.83ZM2.81427 303.575L0.542248 300.125L208.585 37.9133L210.951 41.5048L7.47445 310.043L2.81427 303.575ZM26.3291 339.275L24.528 336.541L27.4124 340.229L29.0467 342.497L26.3291 339.275ZM25.1993 340.234L28.4045 345.099L27.887 345.874L20.455 337.658L21.6172 335.987L25.1993 340.234ZM14.6555 324.228L18.2848 329.737L14.1851 324.876L14.6555 324.228ZM13.3565 322.256L13.7892 322.913L13.2066 323.716L5.70272 314.819L6.60712 313.626L13.3565 322.256ZM1.54461 304.325L3.3855 307.12L-0.780538 301.793L-0.518149 301.462L1.54461 304.325ZM29.2813 346.43L31.6684 350.054L28.9028 346.997L29.2813 346.43ZM36.4284 354.608L33.2396 349.766L36.8154 354.006L36.4284 354.608ZM38.1447 357.213L37.3137 355.952L37.808 355.183L40.4044 358.261L44.4036 363.812L44.2858 364.002L38.1447 357.213ZM37.0003 358.148L36.358 357.438L34.9543 359.621L42.2917 367.22L42.6236 366.684L37.0003 358.148ZM43.5157 368.039L43.3463 368.312L44.4462 369.451L43.5157 368.039ZM49.9812 375.184L44.3686 366.663L44.5044 366.443L51.4717 374.145L50.518 375.739L49.9812 375.184ZM48.8431 376.126L49.5998 377.275L48.105 379.773L40.7093 372.567L42.5458 369.604L48.8431 376.126ZM50.5019 378.644L56.4984 387.747L56.4227 387.878L49.1925 380.833L50.5019 378.644ZM57.3202 386.326L54.3772 381.857L57.8336 385.437L57.3202 386.326ZM61.7825 393.1L58.2264 387.701L58.898 386.54L65.7912 393.679L64.5865 395.832L61.7825 393.1ZM60.6537 394.055L63.3181 398.099L62.0327 400.397L54.7568 393.703L56.7514 390.253L60.6537 394.055ZM64.2293 399.483L69.1384 406.935L63.1451 401.421L64.2293 399.483ZM70.8575 406.878L65.56 398.835L71.8794 404.992L70.8575 406.878ZM73.5972 411.037L71.7745 408.27L72.9732 406.058L79.2404 412.164L79.712 412.819L78.3501 415.41L73.5972 411.037ZM72.472 411.995L70.6593 410.328L68.5335 414.25L75.6839 420.483L76.7397 418.474L72.472 411.995ZM77.519 416.991L76.9301 416.097L77.6438 416.754L77.519 416.991ZM77.6665 419.881L76.8267 421.479L81.271 425.353L77.6665 419.881ZM85.3929 428.946L78.4458 418.398L78.767 417.787L92.1891 430.137L94.4983 433.342C92.9325 433.597 91.3296 433.42 89.869 432.847L85.3929 428.946ZM84.2904 429.936L84.5535 430.336C85.6976 432.076 87.2881 433.35 89.0764 434.108L105.135 448.106L105.456 448.551C106.533 450.045 107.934 451.172 109.495 451.906L126.007 466.299L126.371 466.764C127.357 468.026 128.571 469.01 129.91 469.701L146.852 484.469L147.272 484.966C148.153 486.011 149.186 486.852 150.313 487.486L167.755 502.689L168.193 503.173C168.944 504.004 169.791 504.7 170.703 505.258L188.522 520.791L189.087 521.376C189.714 522.024 190.398 522.585 191.124 523.058L209.45 539.032L210.007 539.575C210.468 540.024 210.956 540.429 211.466 540.789L228.131 555.316L73.7065 427.415L76.1232 422.817L84.2904 429.936ZM92.2072 434.885C93.281 434.978 94.3731 434.902 95.4408 434.65L101.355 442.859L92.2072 434.885ZM98.1188 433.599L106.373 441.193L99.6625 432.613L98.687 433.252C98.5001 433.374 98.3106 433.49 98.1188 433.599ZM101.26 431.566L106.715 436.88L101.886 431.155L101.26 431.566ZM100.903 430.044L100.183 430.516L98.9583 429.323L93.6358 422.517L100.903 430.044ZM103.861 429.861L119.957 447.654L120.865 448.595L371.028 269.249C373.63 267.382 375.021 264.373 374.76 261.181L374.754 261.182C374.62 259.564 374.043 258.008 373.09 256.683L251.881 88.4449L248.225 95.4007L352.961 254.403C353.893 255.822 354.461 257.464 354.602 259.14C354.911 262.863 353.162 266.453 350.026 268.5L103.861 429.861ZM247.438 96.8983L351.715 255.209C352.517 256.422 353.009 257.825 353.126 259.262L353.133 259.268C353.393 262.453 351.892 265.522 349.218 267.281L102.864 428.758L87.1473 411.384L84.058 407.721L247.438 96.8983ZM247.297 93.9913L250.916 87.1053L248.017 83.0813L244.448 89.6666L247.297 93.9913ZM243.647 91.1438L246.509 95.489L83.0314 406.504L76.7609 399.069L243.647 91.1438ZM243.531 88.2744L247.063 81.7573L244.199 77.7827L240.719 84.0049L243.531 88.2744ZM239.904 85.4609L242.73 89.7516L75.7433 397.863L69.3656 390.301L239.904 85.4609ZM239.807 82.6217L243.251 76.4662L240.427 72.5466L237.035 78.4133L239.807 82.6217ZM236.206 79.8472L238.993 84.0776L68.3526 389.1L61.8648 381.408L236.206 79.8472ZM236.126 77.0333L239.48 71.2322L236.695 67.3671L233.394 72.8858L236.126 77.0333ZM232.55 74.2967L235.297 78.4673L60.8551 380.211L56.6421 375.216L54.3249 372.253L232.55 74.2967ZM232.496 71.5215L235.759 66.0667L233.016 62.2605L229.807 67.4394L232.496 71.5215ZM228.947 68.8265L231.652 72.9324L53.3496 371.006L46.8374 362.679L228.947 68.8265ZM228.914 66.0843L232.085 60.9679L229.395 57.2342L226.278 62.082L228.914 66.0843ZM225.402 63.4442L228.055 67.4715L45.8714 361.444L39.237 352.961L225.402 63.4442ZM225.389 60.7319L228.466 55.9452L225.823 52.2762L222.799 56.8014L225.389 60.7319ZM221.907 58.1378L224.513 62.0942L38.2769 351.733L31.515 343.087L221.907 58.1378ZM221.921 55.4671L224.904 51.0012L222.311 47.4021L219.382 51.6138L221.921 55.4671ZM218.472 52.9232L221.028 56.8035L30.5626 341.869L28.5686 339.32L23.8519 332.773L218.472 52.9232ZM218.514 50.295L221.403 46.1408L218.87 42.6249L216.036 46.5329L218.514 50.295ZM215.106 47.8141L217.603 51.6043L22.9411 331.509L16.18 322.125L215.106 47.8141ZM215.172 45.2212L217.965 41.3693L215.494 37.9401L212.756 41.5542L215.172 45.2212ZM211.808 42.8059L214.242 46.5024L15.2731 320.867L8.37492 311.293L211.808 42.8059ZM211.899 40.2531L214.596 36.6935L212.196 33.362L209.554 36.6924L211.899 40.2531ZM208.698 35.3938L211.299 32.1163L208.975 28.8912L206.429 31.9486L208.698 35.3938ZM205.582 30.6633L208.086 27.6569L205.832 24.5288L203.383 27.324L205.582 30.6633ZM202.549 26.0578L204.955 23.3116L202.795 20.3133L200.441 22.8582L202.549 26.0578ZM199.606 21.5911L201.916 19.0937L199.85 16.2262L197.591 18.5323L199.606 21.5911ZM196.765 17.2775L198.979 15.017L197.015 12.2908L194.85 14.3704L196.765 17.2775ZM194.027 13.1215L196.147 11.0857L194.299 8.52093L192.226 10.3867L194.027 13.1215ZM191.407 9.14285L193.433 7.31904L192.225 5.64182C192.115 5.48971 192.002 5.34202 191.884 5.1988C191.142 5.54716 190.432 5.99629 189.776 6.54786L189.725 6.59015L191.407 9.14285ZM188.91 5.35279C189.509 4.85986 190.146 4.43998 190.808 4.09222C190.395 3.7348 189.954 3.41958 189.491 3.14762C188.884 3.20866 188.28 3.32921 187.689 3.51041C187.755 3.60292 187.819 3.69683 187.882 3.79215L188.91 5.35279ZM186.27 4.07755C185.725 4.34917 185.199 4.67825 184.701 5.06586L-65.5442 199.793L-57.4447 212.09L187.768 6.31024L186.644 4.60341C186.525 4.42219 186.4 4.24688 186.27 4.07755ZM186.686 2.30232C186.817 2.25388 186.949 2.20811 187.081 2.16499C186.858 2.10951 186.632 2.06252 186.405 2.02411C186.5 2.11476 186.594 2.2075 186.686 2.30232ZM98.7546 431.452L97.8774 432.027C97.583 432.219 97.2813 432.392 96.9736 432.545L93.3077 429.172L85.3252 418.093L97.8546 430.301L98.7546 431.452ZM-71.0754 209.447C-71.2133 207.791 -70.9086 206.164 -70.2251 204.711L-62.0962 215.993L-63.8146 217.435C-64.4196 217.942 -64.9627 218.507 -65.4388 219.118L-69.1328 214.395C-70.2567 212.961 -70.9248 211.253 -71.0754 209.447ZM-62.8683 218.552L-61.2384 217.184L-52.7886 228.912L-55.7175 231.548L-64.5018 220.316C-64.0379 219.669 -63.491 219.075 -62.8683 218.552ZM-54.8104 232.708L-51.9248 230.111L-43.7239 241.494L-46.1309 243.806L-54.8104 232.708ZM-45.2203 244.97L-42.8556 242.699L-34.8794 253.77L-36.8028 255.733L-45.2203 244.97ZM-35.8902 256.9L-34.0082 254.979L-26.2413 265.759L-27.7154 267.353L-35.8902 256.9ZM-26.7984 268.525L-25.3649 266.975L-17.7912 277.488L-18.8469 278.692L-26.7984 268.525ZM-17.9277 279.868L-16.9117 278.708L-9.51907 288.969L-10.1846 289.768L-17.9277 279.868ZM-9.26113 290.949L-8.63455 290.197L-1.41337 300.219L-1.7143 300.599L-9.26113 290.949ZM53.405 373.791L54.4409 375.228L56.9759 378.031L55.6668 376.357L53.4454 373.723L53.405 373.791ZM58.791 383.781L53.3224 376.191L52.5078 375.291L51.5809 376.84L58.6007 384.11L58.791 383.781ZM45.5376 365.386L45.3345 365.104L45.3134 365.138L45.5376 365.386ZM60.2843 385.854L59.7351 385.092L59.6651 385.213L60.2843 385.854ZM62.2261 386.033L66.6406 392.16L67.0717 391.39L62.2261 386.033ZM65.677 396.895L66.7968 394.893L72.8211 403.255L72.6079 403.648L65.677 396.895ZM73.4491 401.61L73.5994 401.819L73.6178 401.785L73.4491 401.61ZM73.7018 404.714L73.775 404.579L74.2744 405.272L73.7018 404.714ZM74.5533 403.143L80.3589 411.2L80.4938 411.332L81.3193 409.761L74.6883 402.894L74.5533 403.143ZM87.9278 424.222L80.6755 414.156L79.4733 416.444L87.9278 424.222ZM97.5698 435.088L106.232 447.11L110.305 450.66C111.586 451.228 112.984 451.492 114.381 451.433L111.934 448.304L97.5698 435.088ZM115.456 452.807C114.575 452.931 113.685 452.941 112.808 452.842L121.212 460.167L115.456 452.807ZM124.138 457.538L118.168 452.045C118.488 451.907 118.803 451.751 119.112 451.579L124.138 457.538ZM139.705 468.106L121.897 449.663L371.886 270.442C374.859 268.305 376.523 264.712 376.223 261.061C376.069 259.177 375.402 257.371 374.29 255.824L252.647 86.988L255.848 80.8982L394.464 258.144C395.588 259.578 396.257 261.292 396.406 263.092L396.406 263.085C396.668 266.238 395.339 269.272 392.844 271.211L140.636 467.466C140.335 467.701 140.024 467.914 139.705 468.106ZM254.85 79.6217L251.682 85.6485L248.796 81.6434L251.921 75.8773L254.85 79.6217ZM250.934 74.6148L247.842 80.3193L244.993 76.3644L248.041 70.9157L250.934 74.6148ZM247.059 69.6596L244.044 75.0479L241.235 71.1488L244.205 66.011L247.059 69.6596ZM243.224 64.7561L240.288 69.8344L237.519 65.9905L240.41 61.1575L243.224 64.7561ZM239.438 59.9153L236.582 64.6903L233.856 60.9062L236.666 56.3709L239.438 59.9153ZM235.7 55.135L232.924 59.6136L230.251 55.9031L232.981 51.6581L235.7 55.135ZM232.016 50.4247L229.322 54.6141L226.696 50.9692L229.343 47.0073L232.016 50.4247ZM228.389 45.7864L225.778 49.6942L223.203 46.1204L225.767 42.4337L228.389 45.7864ZM224.821 41.225L222.294 44.8591L219.78 41.3696L222.26 37.9497L224.821 41.225ZM221.318 36.7455L218.875 40.114L216.425 36.7125L218.82 33.5511L221.318 36.7455ZM217.884 32.3543L215.526 35.4658L213.147 32.1633L215.457 29.2514L217.884 32.3543ZM214.521 28.0543L212.25 30.9176L209.948 27.7229L212.173 25.0513L214.521 28.0543ZM211.244 23.864L209.059 26.4887L206.828 23.3925L208.967 20.9518L211.244 23.864ZM208.05 19.7799L205.951 22.1754L203.815 19.2106L205.869 16.9903L208.05 19.7799ZM204.949 15.8147L202.936 17.9911L200.896 15.1589L202.865 13.149L204.949 15.8147ZM201.952 11.982L200.025 13.9497L198.087 11.2608L199.905 9.5145C199.928 9.49314 199.95 9.47189 199.972 9.45077L201.952 11.982ZM198.888 8.4531L197.219 10.0557L195.416 7.55298C196.07 7.04657 196.771 6.633 197.501 6.31144C197.605 6.43113 197.707 6.55407 197.806 6.68024L199.063 8.28798C199.004 8.34231 198.946 8.39735 198.888 8.4531ZM196.375 5.21638C195.743 5.53413 195.133 5.91443 194.555 6.35775L193.425 4.78958C193.393 4.74548 193.361 4.70171 193.329 4.65826C193.906 4.49382 194.494 4.38434 195.085 4.32914C195.535 4.58567 195.967 4.88165 196.375 5.21638ZM192.584 3.34908C192.483 3.38151 192.381 3.41543 192.281 3.45086C192.209 3.38024 192.137 3.31082 192.064 3.24259C192.238 3.27319 192.412 3.3087 192.584 3.34908ZM116.966 450.94C117.367 450.8 117.76 450.631 118.144 450.432L116.432 448.402L105.706 437.951L113.037 447.324L116.966 450.94ZM-65.3113 221.666C-66.0772 223.216 -66.4247 224.965 -66.2788 226.73C-66.1109 228.723 -65.3379 230.587 -64.0439 232.124L-60.6134 236.191C-60.198 235.659 -59.7317 235.159 -59.2169 234.697L-56.8123 232.533L-65.3113 221.666ZM-55.9052 233.693L-58.2345 235.789C-58.763 236.265 -59.2328 236.786 -59.6404 237.345L-50.5838 248.083L-47.1962 244.829L-55.9052 233.693ZM-46.2856 245.993L-49.6337 249.21L-40.7408 259.753L-37.8402 256.792L-46.2856 245.993ZM-36.9276 257.959L-39.7897 260.881L-31.176 271.094L-28.7264 268.446L-36.9276 257.959ZM-27.8095 269.618L-30.2214 272.226L-21.8639 282.135L-19.833 279.818L-27.8095 269.618ZM-18.9138 280.993L-20.9079 283.268L-12.7885 292.895L-11.1471 290.924L-18.9138 280.993ZM-10.2236 292.105L-11.8291 294.033L-3.93278 303.395L-2.65425 301.783L-10.2236 292.105ZM-1.72051 302.977L-2.96355 304.544L4.72952 313.665L5.66876 312.426L-1.72051 302.977ZM84.8998 411.347L83.4603 409.507L85.9172 412.222L87.1064 413.632L84.8998 411.347ZM69.67 394.262L74.41 400.323L74.3544 400.426L67.6095 393.44L68.1128 392.541L69.67 394.262ZM83.8026 412.333L91.1065 421.672L81.5958 412.406L82.3984 410.879L83.8026 412.333ZM127.085 465.286L118.599 454.436L131.65 466.444L134.148 469.406C132.965 469.312 131.802 468.994 130.728 468.462L127.085 465.286ZM133.421 470.81C134.078 470.9 134.743 470.93 135.407 470.899L140.636 477.098L133.421 470.81ZM138.137 470.418L140.673 472.751L138.465 470.31C138.405 470.331 138.345 470.352 138.284 470.371C138.236 470.387 138.187 470.403 138.137 470.418ZM140.754 469.193L154.693 483.629L158.277 487.121C159.613 486.77 160.892 486.126 162.018 485.182L414.662 273.178C417.056 271.167 418.33 268.114 418.072 265L418.073 265.007C417.912 263.012 417.139 261.148 415.837 259.606L259.405 74.1313L256.598 79.472L395.625 257.245C396.922 258.905 397.703 260.886 397.877 262.977C398.175 266.616 396.633 270.135 393.751 272.378L141.543 468.633C141.286 468.833 141.023 469.02 140.754 469.193ZM255.599 78.1955L258.376 72.912L255.425 69.4125L252.685 74.4687L255.599 78.1955ZM251.697 73.2062L254.407 68.206L251.491 64.7485L248.819 69.5254L251.697 73.2062ZM247.837 68.2694L250.478 63.5474L247.602 60.1367L244.998 64.6399L247.837 68.2694ZM244.017 63.385L246.589 58.9358L243.751 55.5714L241.218 59.8063L244.017 63.385ZM240.247 58.5641L242.748 54.3821L239.953 51.0678L237.491 55.0404L240.247 58.5641ZM236.524 53.8046L238.954 49.8838L236.212 46.6327L233.822 50.3494L236.524 53.8046ZM232.858 49.1159L235.215 45.4501L232.519 42.2543L230.203 45.7213L232.858 49.1159ZM229.248 44.5003L231.531 41.0829L228.887 37.9473L226.645 41.1714L229.248 44.5003ZM225.699 39.9628L227.908 36.7869L225.324 33.7238L223.157 36.7123L225.699 39.9628ZM222.216 35.5081L224.349 32.5668L221.829 29.5796L219.738 32.3398L222.216 35.5081ZM218.802 31.1431L220.859 28.4288L218.412 25.5278L216.397 28.0676L218.802 31.1431ZM215.46 26.8705L217.44 24.3756L215.073 21.5689L213.135 23.8964L215.46 26.8705ZM212.206 22.7091L214.108 20.425L211.813 17.7039L209.952 19.8272L212.206 22.7091ZM209.036 18.6553L210.86 16.5738L208.663 13.9692L206.879 15.8978L209.036 18.6553ZM205.96 14.7222L207.706 12.8344L205.632 10.3759C205.408 10.5705 205.19 10.7753 204.979 10.9901L203.902 12.0903L205.96 14.7222ZM202.989 10.9233L203.927 9.96581C204.171 9.71638 204.424 9.4788 204.686 9.25334L203.386 7.71215C203.3 7.61024 203.212 7.51055 203.123 7.4131C202.422 7.70206 201.746 8.07111 201.11 8.52051L202.989 10.9233ZM200.203 7.36054C200.76 6.96166 201.345 6.61723 201.949 6.32711C201.551 6.01596 201.132 5.73985 200.698 5.49916C200.119 5.54777 199.544 5.6464 198.979 5.79538L200.203 7.36054ZM197.885 4.58914C197.958 4.56477 198.032 4.54115 198.105 4.51829C197.98 4.49049 197.854 4.46518 197.727 4.44237C197.78 4.49069 197.833 4.53961 197.885 4.58914ZM137.374 469.105C137.2 469.152 137.024 469.195 136.848 469.232L132.782 465.491L127.297 458.988L135.098 466.588L137.374 469.105ZM-61.5008 244.021C-61.657 242.138 -61.2878 240.299 -60.4586 238.675L-51.6556 249.113L-54.6191 251.959C-55.0627 252.386 -55.4687 252.841 -55.8354 253.321L-58.96 249.867C-60.4433 248.23 -61.3212 246.209 -61.5008 244.021ZM-53.6014 253.021L-50.7055 250.239L-41.7831 260.818L-45.5633 264.677L-54.8297 254.433C-54.4671 253.931 -54.0568 253.458 -53.6014 253.021ZM-44.5763 265.768L-40.832 261.945L-32.1905 272.191L-35.515 275.785L-44.5763 265.768ZM-34.5255 276.879L-31.236 273.323L-22.8522 283.263L-25.7547 286.575L-34.5255 276.879ZM-24.7645 287.669L-21.8961 284.396L-13.752 294.052L-16.263 297.067L-24.7645 287.669ZM-15.2703 298.165L-12.7925 295.19L-4.87268 304.58L-7.01967 307.286L-15.2703 298.165ZM-6.01762 308.393L-3.90345 305.729L3.81197 314.876L2.00457 317.262L-6.01762 308.393ZM3.00998 318.373L4.7852 316.03L12.3103 324.952L10.8202 327.007L3.00998 318.373ZM11.8302 328.124L13.2888 326.112L20.6362 334.824L19.443 336.539L11.8302 328.124ZM116.576 446.276L117.582 447.469L119.439 449.279L118.908 448.692L116.576 446.276ZM140.294 474.398L147.946 483.47L151.136 486.251C151.967 486.706 152.855 487.032 153.768 487.227L151.437 484.65L140.294 474.398ZM155.284 488.903C154.865 488.884 154.447 488.842 154.033 488.776L159.406 493.46L155.284 488.903ZM177.102 505.463L159.479 488.292C160.717 487.86 161.897 487.202 162.959 486.312L415.602 274.302C418.364 271.989 419.833 268.466 419.535 264.88C419.348 262.581 418.454 260.432 416.96 258.659L260.141 72.7303L262.605 68.044L437.217 261.066C438.693 262.698 439.572 264.725 439.751 266.913L439.751 266.907C440.011 270.04 438.822 273.043 436.485 275.145L183.407 502.904C181.6 504.529 179.359 505.375 177.102 505.463ZM261.549 66.8768L259.113 71.511L256.175 68.0281L258.579 63.5936L261.549 66.8768ZM257.533 62.4381L255.158 66.8216L252.256 63.3813L254.599 59.1939L257.533 62.4381ZM253.558 58.043L251.243 62.1802L248.382 58.7876L250.662 54.8425L253.558 58.043ZM249.621 53.6912L247.369 57.5867L244.547 54.2411L246.764 50.5337L249.621 53.6912ZM245.733 49.393L243.544 53.0519L240.765 49.7572L242.918 46.2823L245.733 49.393ZM241.89 45.1458L239.766 48.5732L237.042 45.3427L239.13 42.0945L241.89 45.1458ZM238.103 40.9587L236.044 44.1601L233.367 40.9858L235.389 37.9591L238.103 40.9587ZM234.371 36.8332L232.379 39.8144L229.753 36.7013L231.708 33.8901L234.371 36.8332ZM230.699 32.7741L228.774 35.5409L226.211 32.5015L228.098 29.8993L230.699 32.7741ZM227.091 28.7857L225.235 31.3445L222.736 28.3822L224.555 25.9824L227.091 28.7857ZM223.552 24.874L221.766 27.2314L219.341 24.3565L221.09 22.1523L223.552 24.874ZM220.085 21.0416L218.369 23.2043L216.025 20.4252L217.704 18.4094L220.085 21.0416ZM216.706 17.3057L215.06 19.2813L212.79 16.5891L214.398 14.7544L216.706 17.3057ZM213.411 13.6632L211.837 15.4591L209.666 12.8852L210.047 12.4729C210.435 12.0532 210.85 11.6676 211.289 11.3179L213.411 13.6632ZM208.96 11.4792L208.709 11.7504L206.805 9.49387C207.415 9.09775 208.062 8.76678 208.737 8.5045C208.814 8.58498 208.891 8.66703 208.967 8.75067L210.301 10.2262C209.829 10.6079 209.38 11.0262 208.96 11.4792ZM207.512 7.42851C206.937 7.69496 206.382 8.00715 205.852 8.36325L204.636 6.92169C205.185 6.78892 205.743 6.70146 206.303 6.65918C206.721 6.88415 207.125 7.14065 207.512 7.42851ZM203.615 5.67812C203.596 5.68369 203.578 5.68932 203.56 5.69498C203.538 5.70179 203.516 5.70866 203.494 5.71559L203.47 5.69423L203.447 5.67264C203.433 5.66066 203.42 5.64872 203.407 5.63681C203.452 5.64529 203.497 5.65408 203.542 5.66317C203.566 5.66807 203.59 5.67305 203.615 5.67812ZM-55.6358 255.745C-56.5099 257.44 -56.9036 259.361 -56.742 261.315C-56.5476 263.671 -55.5317 265.904 -53.8816 267.618L-51.1045 270.494C-50.7748 270.05 -50.413 269.627 -50.0206 269.228L-46.5992 265.734L-55.6358 255.745ZM-45.6122 266.826L-48.9683 270.252C-49.3719 270.664 -49.7386 271.105 -50.0663 271.569L-40.6427 281.329L-36.5222 276.874L-45.6122 266.826ZM-35.5327 277.968L-39.6206 282.387L-30.428 291.907L-26.7348 287.693L-35.5327 277.968ZM-25.7446 288.788L-29.406 292.966L-20.5152 302.174L-17.2176 298.214L-25.7446 288.788ZM-16.2249 299.311L-19.4916 303.234L-10.8805 312.152L-7.95012 308.458L-16.2249 299.311ZM-6.94807 309.566L-9.84804 313.221L-1.49152 321.876L1.09701 318.459L-6.94807 309.566ZM2.10246 319.571L-0.456248 322.948L7.66464 331.358L9.93435 328.228L2.10246 319.571ZM10.9445 329.345L8.70397 332.435L16.6061 340.618L18.5778 337.783L10.9445 329.345ZM19.5898 338.902L17.6466 341.696L25.3487 349.673L27.0415 347.139L19.5898 338.902ZM28.0573 348.262L26.3925 350.754L33.9043 358.533L35.3354 356.308L28.0573 348.262ZM152.518 483.65L151.847 482.908L153.5 484.518L153.8 484.829L152.518 483.65ZM168.796 501.645L163.282 495.549L171.061 502.706L173.079 504.796C172.558 504.595 172.052 504.349 171.565 504.058L168.796 501.645ZM174.668 506.762C174.79 506.784 174.913 506.804 175.035 506.822L176.624 508.468L174.668 506.762ZM178.482 506.808L191.93 519.911L195.647 523.33C198.84 523.942 202.275 523.05 204.791 520.632L458.303 277.119C460.554 274.956 461.694 271.933 461.437 268.826L461.444 268.825C461.249 266.468 460.233 264.229 458.59 262.521L265.493 62.5498L263.333 66.6591L438.309 260.084C440.006 261.962 441.014 264.281 441.221 266.792C441.52 270.385 440.152 273.829 437.475 276.243L184.39 504.002C182.673 505.547 180.612 506.478 178.482 506.808ZM262.277 65.4918L264.412 61.4303L261.427 58.3389L259.321 62.2243L262.277 65.4918ZM258.275 61.0688L260.356 57.2302L257.406 54.1754L255.356 57.8409L258.275 61.0688ZM254.314 56.6901L256.339 53.0706L253.429 50.0568L251.435 53.5066L254.314 56.6901ZM250.393 52.3553L252.361 48.9509L249.49 45.9773L247.553 49.2156L250.393 52.3553ZM246.521 48.0749L248.431 44.8812L245.602 41.9515L243.724 44.9828L246.521 48.0749ZM242.696 43.8464L244.547 40.8587L241.773 37.9853L239.953 40.8147L242.696 43.8464ZM238.926 39.6788L240.717 36.8924L237.989 34.0674L236.231 36.6997L238.926 39.6788ZM235.212 35.5738L236.943 32.9836L234.266 30.2118L232.569 32.6522L235.212 35.5738ZM231.56 31.5362L233.228 29.1368L230.614 26.4296L228.979 28.6839L231.56 31.5362ZM227.972 27.5703L229.578 25.3563L227.029 22.7169L225.458 24.7908L227.972 27.5703ZM224.455 23.6824L225.997 21.6477L223.523 19.0859L222.015 20.9858L224.455 23.6824ZM221.011 19.875L222.487 18.0137L220.096 15.537L218.653 17.2693L221.011 19.875ZM217.655 16.1656L219.038 14.5047L219.066 14.4709L216.938 12.2671C216.386 12.6725 215.862 13.133 215.377 13.6478L217.655 16.1656ZM214.394 12.5609C214.871 12.0635 215.38 11.6121 215.915 11.207L214.54 9.78342C214.478 9.71942 214.416 9.65639 214.353 9.59434C213.711 9.82946 213.094 10.1238 212.507 10.4743L214.394 12.5609ZM211.504 9.36628C212.009 9.04852 212.535 8.76795 213.078 8.52623C212.697 8.2562 212.301 8.0149 211.894 7.80241C211.352 7.83962 210.819 7.9166 210.297 8.03195L211.504 9.36628ZM209.1 6.82556L209.103 6.82476L209.098 6.82388L209.1 6.82556ZM-51.984 278.602C-52.1493 276.599 -51.7468 274.62 -50.8534 272.871L-41.643 282.41L-45.4221 286.496C-45.774 286.876 -46.1001 287.275 -46.3992 287.692L-48.7984 285.354C-50.6427 283.554 -51.7708 281.159 -51.984 278.602ZM-44.3408 287.49L-40.621 283.469L-31.401 293.018L-35.7915 298.028L-45.3314 288.732C-45.0331 288.297 -44.7024 287.882 -44.3408 287.49ZM-34.7398 299.052L-30.379 294.076L-21.4623 303.311L-25.452 308.102L-34.7398 299.052ZM-24.3997 309.127L-20.4388 304.371L-11.8033 313.315L-15.4216 317.875L-24.3997 309.127ZM-14.3608 318.909L-10.7708 314.384L-2.39118 323.063L-5.66428 327.383L-14.3608 318.909ZM-4.60128 328.418L-1.35591 324.135L6.78689 332.569L3.8353 336.639L-4.60128 328.418ZM4.90174 337.678L7.82621 333.645L15.7491 341.851L13.0975 345.663L4.90174 337.678ZM14.1646 346.703L16.7897 342.928L24.5115 350.926L22.1405 354.475L14.1646 346.703ZM23.2101 355.517L25.5552 352.007L33.0859 359.806L30.9776 363.085L23.2101 355.517ZM32.053 364.133L34.1359 360.894L41.4912 368.512L39.6297 371.515L32.053 364.133ZM189.456 519.631L189.587 519.767L189.902 520.041L189.456 519.631ZM214.703 540.863L197.431 524.972C200.44 525.014 203.467 523.922 205.801 521.682L459.314 278.175C461.885 275.703 463.194 272.253 462.9 268.699C462.683 266.012 461.521 263.451 459.638 261.505L266.212 61.181L268.109 57.5726L479.95 263.978C481.793 265.772 482.922 268.173 483.135 270.73L483.142 270.729C483.396 273.817 482.297 276.861 480.126 279.079L226.178 538.341C223.109 541.478 218.567 542.326 214.703 540.863ZM267.005 56.4969L265.131 60.0614L262.16 56.9848L264.008 53.5766L267.005 56.4969ZM262.914 52.5108L261.09 55.876L258.155 52.8367L259.952 49.625L262.914 52.5108ZM258.861 48.5624L257.088 51.7318L254.194 48.7341L255.939 45.7151L258.861 48.5624ZM254.847 44.6511L253.126 47.6281L250.271 44.6714L251.964 41.8417L254.847 44.6511ZM250.881 40.7866L249.213 43.5752L246.401 40.6632L248.04 38.0186L250.881 40.7866ZM246.96 36.9661L245.346 39.5704L242.589 36.7155L244.173 34.2514L246.96 36.9661ZM243.093 33.1982L241.534 35.6225L238.825 32.8171L240.353 30.5294L243.093 33.1982ZM239.281 29.4843L237.778 31.7331L235.122 28.9818L236.593 26.8658L239.281 29.4843ZM235.529 25.8287L234.084 27.9068L231.49 25.2212L232.904 23.2715L235.529 25.8287ZM231.841 22.2354L230.454 24.1478L227.928 21.5311L229.283 19.7427L231.841 22.2354ZM228.223 18.7099L226.895 20.4619L224.445 17.9241L225.239 16.9232C225.407 16.7115 225.58 16.5068 225.759 16.3092L228.223 18.7099ZM224.076 16.011L223.409 16.8518L221.095 14.4545C221.565 14.0034 222.068 13.5946 222.599 13.2309L224.701 15.2782C224.486 15.5134 224.277 15.7577 224.076 16.011ZM221.528 12.1869C221.017 12.553 220.531 12.9567 220.073 13.3961L218.205 11.4614C218.776 11.1488 219.369 10.8878 219.977 10.6786C220.025 10.7237 220.073 10.7693 220.12 10.8154L221.528 12.1869ZM218.658 9.61995C218.144 9.83777 217.642 10.0898 217.156 10.3758L215.963 9.13972C216.468 9.03755 216.983 8.96967 217.506 8.93731C217.902 9.13977 218.287 9.3676 218.658 9.61995ZM-46.1014 290.04C-47.0001 291.836 -47.4053 293.864 -47.2382 295.897C-47.0117 298.662 -45.7585 301.218 -43.7137 303.104L-41.7296 304.929C-41.4483 304.524 -41.1421 304.133 -40.8115 303.756L-36.7639 299.137L-46.1014 290.04ZM-35.7122 300.162L-39.7077 304.722C-40.0469 305.109 -40.3571 305.514 -40.6376 305.934L-31.0173 314.785L-26.3976 309.238L-35.7122 300.162ZM-25.3453 310.263L-29.9382 315.778L-20.5851 324.384L-16.3418 319.035L-25.3453 310.263ZM-15.2811 320.069L-19.498 325.384L-10.4544 333.704L-6.56061 328.566L-15.2811 320.069ZM-5.49759 329.601L-9.36559 334.706L-0.607183 342.764L2.96161 337.843L-5.49759 329.601ZM4.02808 338.882L0.484512 343.769L8.97943 351.585L12.2453 346.889L4.02808 338.882ZM13.3124 347.928L10.0711 352.589L18.3257 360.184L21.3086 355.72L13.3124 347.928ZM22.3782 356.762L19.4193 361.19L27.4469 368.576L30.1651 364.349L22.3782 356.762ZM31.2405 365.396L28.5458 369.587L36.3658 376.782L38.8356 372.797L31.2405 365.396ZM39.9152 373.849L37.4685 377.797L45.0919 384.811L47.3284 381.072L39.9152 373.849ZM48.416 382.131L46.2022 385.832L53.646 392.681L55.6629 389.192L48.416 382.131ZM216.941 542.922C220.611 543.396 224.454 542.207 227.232 539.372L481.185 280.103C483.652 277.585 484.9 274.123 484.611 270.608C484.373 267.701 483.085 264.973 480.988 262.93L268.824 56.2118L270.487 53.049L501.323 265.439C503.367 267.319 504.621 269.881 504.847 272.645L504.848 272.652C505.108 275.726 504.051 278.791 501.951 281.059L247.569 556.069C243.689 560.262 237.283 560.776 232.799 557.433L231.14 555.987L216.941 542.922ZM267.72 55.1361L269.361 52.0136L266.354 49.2468L264.737 52.23L267.72 55.1361ZM263.643 51.1642L265.239 48.2206L262.267 45.4863L260.697 48.2932L263.643 51.1642ZM259.606 47.2306L261.155 44.4628L258.223 41.7651L256.7 44.3989L259.606 47.2306ZM255.608 43.3348L257.108 40.7397L254.215 38.0777L252.741 40.5417L255.608 43.3348ZM251.658 39.4866L253.11 37.0606L250.259 34.4377L248.835 36.7356L251.658 39.4866ZM247.755 35.6832L249.156 33.4226L246.36 30.8506L244.987 32.9864L247.755 35.6832ZM243.906 31.9332L245.256 29.8342L242.507 27.3056L241.186 29.2831L243.906 31.9332ZM240.113 28.2381L241.411 26.2966L238.714 23.8157L237.446 25.6393L240.113 28.2381ZM236.382 24.6022L237.626 22.8139L234.993 20.3916L233.779 22.0659L236.382 24.6022ZM232.715 21.0298L233.904 19.3901L231.425 17.1089C231.024 17.5104 230.646 17.9435 230.294 18.4078L230.179 18.559L232.715 21.0298ZM229.12 17.5263L229.122 17.5229C229.503 17.0204 229.911 16.5505 230.343 16.1138L228.262 14.1984C227.757 14.5188 227.272 14.8787 226.812 15.2777L229.12 17.5263ZM225.752 14.2452C226.196 13.8538 226.661 13.4952 227.144 13.1699L225.699 11.8408C225.687 11.8295 225.675 11.8182 225.663 11.807C225.643 11.7892 225.624 11.7715 225.604 11.7538C225.021 11.9429 224.456 12.1766 223.912 12.4525L225.752 14.2452ZM222.807 11.3761C223.266 11.121 223.74 10.8935 224.227 10.6947C223.872 10.4637 223.506 10.2542 223.13 10.0668C222.632 10.0931 222.135 10.1515 221.643 10.2418L222.807 11.3761ZM-42.4995 313.187C-42.6724 311.099 -42.2829 309.06 -41.387 307.235L-31.956 315.912L-36.2128 321.024C-36.5255 321.4 -36.8154 321.789 -37.082 322.19L-38.6232 320.846C-40.8742 318.882 -42.2533 316.159 -42.4995 313.187ZM-35.081 321.954L-30.8769 316.905L-21.4982 325.534L-26.3005 331.587L-35.9664 323.162C-35.699 322.744 -35.4036 322.341 -35.081 321.954ZM-25.1888 332.556L-20.4112 326.535L-11.3435 334.878L-15.7913 340.748L-25.1888 332.556ZM-14.6783 341.718L-10.2547 335.88L-1.47348 343.959L-5.59192 349.638L-14.6783 341.718ZM-4.47666 350.61L-0.381784 344.964L8.13471 352.799L4.32293 358.28L-4.47666 350.61ZM5.43756 359.252L9.2264 353.804L17.5015 361.418L13.9758 366.694L5.43756 359.252ZM15.0917 367.667L18.595 362.424L26.6421 369.828L23.3839 374.895L15.0917 367.667ZM24.5046 375.872L27.7409 370.839L35.5794 378.051L32.5719 382.904L24.5046 375.872ZM33.6961 383.884L36.6821 379.066L44.323 386.096L41.5508 390.73L33.6961 383.884ZM42.6824 391.717L45.4334 387.118L52.8939 393.982L50.3431 398.394L42.6824 391.717ZM51.4745 399.38L54.0046 395.004L61.2966 401.713L58.9542 405.9L51.4745 399.38ZM60.0868 406.887L62.4089 402.736L69.544 409.301L67.3983 413.26L60.0868 406.887ZM252.799 574.866L236.631 560.773C240.87 561.73 245.495 560.468 248.649 557.057L503.031 282.047C505.407 279.476 506.608 276 506.316 272.518C506.057 269.391 504.636 266.49 502.317 264.358L271.194 51.7034L272.65 48.934L522.695 266.887C524.952 268.851 526.324 271.568 526.571 274.546L526.578 274.545C526.841 277.652 525.843 280.663 523.786 283.011L268.969 573.776C264.803 578.524 257.558 579.012 252.799 574.866ZM271.505 47.9359L270.069 50.668L267.076 47.9148L268.489 45.3075L271.505 47.9359ZM267.354 44.318L265.961 46.8885L263.004 44.1684L264.374 41.7205L267.354 44.318ZM263.241 40.7332L261.892 43.1449L258.976 40.462L260.301 38.1703L263.241 40.7332ZM259.166 37.1807L257.862 39.4366L254.985 36.7901L256.264 34.6517L259.166 37.1807ZM255.138 33.6698L253.88 35.773L251.047 33.1664L252.279 31.178L255.138 33.6698ZM251.154 30.1975L249.944 32.1513L247.167 29.5964L248.351 27.7542L251.154 30.1975ZM247.224 26.7721L246.062 28.58L243.333 26.0694L244.469 24.37L247.224 26.7721ZM243.35 23.3945L242.237 25.0603L239.561 22.5984L240.411 21.3759C240.49 21.2633 240.569 21.152 240.651 21.0422L243.35 23.3945ZM239.206 20.5411L238.472 21.5966L235.882 19.2135C236.259 18.7594 236.663 18.3343 237.092 17.9399L239.543 20.076C239.428 20.2285 239.316 20.3835 239.206 20.5411ZM235.977 16.9683C235.563 17.3589 235.169 17.7757 234.799 18.2173L232.528 16.1271C232.972 15.776 233.437 15.4579 233.918 15.1734L235.977 16.9683ZM232.758 14.1623C232.301 14.4541 231.859 14.7739 231.434 15.1213L229.621 13.453C230.145 13.2079 230.683 13.001 231.233 12.8329C231.246 12.8443 231.259 12.8557 231.272 12.8672L232.758 14.1623ZM229.8 11.7773C229.345 11.9555 228.898 12.1585 228.461 12.3859L227.32 11.3358C227.61 11.2876 227.903 11.2499 228.199 11.2228C228.375 11.2067 228.55 11.1945 228.726 11.186C229.092 11.3624 229.45 11.5594 229.8 11.7773ZM-36.6955 324.478C-37.5709 326.33 -37.9468 328.384 -37.7737 330.479C-37.5069 333.663 -36.0092 336.548 -33.5391 338.589L-32.462 339.481C-32.201 339.068 -31.9167 338.667 -31.6096 338.279L-27.2159 332.741L-36.6955 324.478ZM-26.1042 333.71L-30.4537 339.192C-30.7688 339.589 -31.057 340.002 -31.3177 340.429L-21.6298 348.453L-16.6819 341.923L-26.1042 333.71ZM-15.5689 342.893L-20.4942 349.394L-11.0733 357.196L-6.45912 350.834L-15.5689 342.893ZM-5.34385 351.806L-9.93601 358.138L-0.825843 365.684L3.47787 359.495L-5.34385 351.806ZM4.59252 360.467L0.310218 366.625L9.1375 373.936L13.1518 367.928L4.59252 360.467ZM14.2676 368.9L10.2741 374.877L18.8358 381.968L22.5797 376.146L14.2676 368.9ZM23.7004 377.123L19.9768 382.913L28.2959 389.804L31.7866 384.171L23.7004 377.123ZM32.9108 385.151L29.44 390.751L37.5301 397.452L40.7834 392.013L32.9108 385.151ZM41.915 392.999L38.6814 398.405L46.5628 404.933L49.5929 399.692L41.915 392.999ZM50.7242 400.678L47.7133 405.886L55.4003 412.253L58.2202 407.212L50.7242 400.678ZM59.3529 408.199L56.5517 413.206L64.0581 419.423L66.6799 414.586L59.3529 408.199ZM67.8152 415.575L65.2118 420.379L72.5456 426.453L74.9804 421.821L67.8152 415.575ZM256.022 578.416L273.677 593.039C278.699 597.197 286.179 596.502 290.358 591.491L545.609 284.972C547.601 282.58 548.558 279.554 548.302 276.453L548.297 276.46C548.029 273.269 546.532 270.391 544.061 268.343L274.622 45.1816L273.353 47.5955L523.667 265.783C526.205 267.999 527.765 271.065 528.041 274.425C528.329 277.934 527.209 281.327 524.89 283.977L270.074 574.748C266.491 578.834 260.87 580.12 256.022 578.416ZM272.208 46.5975L273.459 44.2182L270.436 41.7148L269.208 43.982L272.208 46.5975ZM268.072 42.9925L269.283 40.7593L266.296 38.2853L265.108 40.4085L268.072 42.9925ZM263.975 39.4212L265.144 37.3317L262.197 34.8907L261.051 36.8725L263.975 39.4212ZM259.916 35.8829L261.042 33.9344L258.134 31.5257L257.032 33.3689L259.916 35.8829ZM255.905 32.387L256.988 30.5765L254.123 28.2032L253.064 29.9108L255.905 32.387ZM251.94 28.9303L252.978 27.255L250.168 24.9281L249.155 26.5035L251.94 28.9303ZM248.029 25.5214L249.021 23.9779L246.313 21.7349C246.016 22.0953 245.736 22.4727 245.474 22.8661L245.293 23.1366L248.029 25.5214ZM244.174 22.1611L244.245 22.0539C244.538 21.6166 244.85 21.1973 245.181 20.7969L242.757 18.7893C242.347 19.1371 241.958 19.5107 241.59 19.9088L244.174 22.1611ZM240.483 18.9445C240.841 18.5551 241.217 18.1866 241.61 17.84L239.57 16.1501C239.112 16.4044 238.67 16.6863 238.246 16.9944L240.483 18.9445ZM237.111 16.0051C237.513 15.698 237.931 15.4126 238.363 15.15L236.86 13.9051C236.34 14.0548 235.83 14.2378 235.331 14.4534L237.111 16.0051ZM234.118 13.3961C234.529 13.1937 234.949 13.012 235.375 12.8512C235.041 12.6506 234.699 12.4673 234.349 12.3017C233.9 12.32 233.453 12.3627 233.009 12.4296L234.118 13.3961ZM-33.0545 347.771C-33.2262 345.689 -32.8652 343.628 -32.0214 341.76L-22.5208 349.629L-27.0046 355.547C-27.3123 355.952 -27.5964 356.373 -27.8562 356.805L-28.448 356.338C-31.0945 354.247 -32.7729 351.124 -33.0545 347.771ZM-25.8262 356.431L-21.3853 350.57L-11.9405 358.392L-17.0012 365.371L-26.6885 357.726C-26.4294 357.279 -26.1417 356.847 -25.8262 356.431ZM-15.8433 366.284L-10.8032 359.334L-1.67061 366.898L-6.41663 373.723L-15.8433 366.284ZM-5.26053 374.635L-0.534545 367.839L8.31402 375.168L3.86113 381.833L-5.26053 374.635ZM5.01713 382.745L9.45061 376.11L18.0324 383.218L13.8531 389.718L5.01713 382.745ZM15.0131 390.633L19.1734 384.163L27.5117 391.069L23.5884 397.4L15.0131 390.633ZM24.7512 398.317L28.6558 392.017L36.764 398.732L33.0807 404.89L24.7512 398.317ZM34.2505 405.813L37.9154 399.686L45.8141 406.228L42.3564 412.209L34.2505 405.813ZM43.5246 413.131L46.9645 407.181L54.668 413.562L51.4224 419.363L43.5246 413.131ZM52.5914 420.286L55.8195 414.515L63.3416 420.746L60.2959 426.365L52.5914 420.286ZM61.4667 427.289L64.4952 421.701L71.844 427.788L68.987 433.223L61.4667 427.289ZM70.1648 434.153L73.005 428.749L268.177 590.403L70.1648 434.153ZM294.555 611.218L274.607 595.477C280.114 598.634 287.292 597.478 291.486 592.44L546.737 285.921C548.979 283.229 550.052 279.829 549.766 276.339C549.468 272.753 547.781 269.513 545.004 267.216L275.323 43.8488L276.428 41.745L565.433 269.791C568.079 271.883 569.757 274.999 570.033 278.359L570.039 278.359C570.295 281.453 569.373 284.501 567.439 286.937L311.753 609.205C307.563 614.493 299.847 615.393 294.555 611.218ZM275.248 40.8138L274.159 42.8854L271.152 40.3944L272.22 38.4241L275.248 40.8138ZM271.049 37.5002L269.998 39.4389L267.027 36.9779L268.056 35.1386L271.049 37.5002ZM266.887 34.2162L265.876 36.0242L262.945 33.5969L263.934 31.8861L266.887 34.2162ZM262.761 30.9608L261.79 32.6406L258.9 30.2463L259.848 28.6615L262.761 30.9608ZM258.683 27.7428L257.754 29.2971L254.906 26.9388L255.591 25.8343C255.665 25.7151 255.74 25.5973 255.817 25.4809L258.683 27.7428ZM254.335 25.0647L253.761 25.9906L250.988 23.6936C251.301 23.2616 251.634 22.8499 251.988 22.4596L254.657 24.5657C254.547 24.7295 254.44 24.8958 254.335 25.0647ZM250.826 21.5427C250.482 21.9265 250.156 22.3288 249.848 22.7488L247.31 20.647C247.668 20.2958 248.044 19.9654 248.436 19.6569L250.826 21.5427ZM247.254 18.7239C246.879 19.0328 246.518 19.3601 246.173 19.7052L243.964 17.876C244.371 17.6032 244.793 17.3529 245.229 17.1263L247.254 18.7239ZM243.977 16.1386C243.569 16.3744 243.173 16.6296 242.79 16.9033L241.038 15.452C241.51 15.2627 241.995 15.1003 242.491 14.9659L243.977 16.1386ZM240.946 13.9131C240.545 14.0581 240.152 14.2204 239.767 14.3994L238.703 13.5182C239.125 13.4616 239.55 13.4261 239.977 13.4119C240.305 13.5634 240.629 13.7304 240.946 13.9131ZM-27.3656 359.074C-28.17 360.948 -28.5114 363.002 -28.3415 365.064C-28.0443 368.644 -26.2343 371.927 -23.3632 374.088L-23.2655 374.161C-23.0014 373.696 -22.7106 373.244 -22.3939 372.807L-17.8692 366.568L-27.3656 359.074ZM-16.7113 367.481L-21.1986 373.669C-21.5222 374.115 -21.8156 374.578 -22.0779 375.056L-12.4104 382.341L-7.26151 374.938L-16.7113 367.481ZM-6.10537 375.85L-11.2354 383.227L-1.81373 390.326L3.03815 383.065L-6.10537 375.85ZM4.19416 383.977L-0.639561 391.211L8.47596 398.08L13.0509 390.965L4.19416 383.977ZM14.2108 391.88L9.65357 398.968L18.49 405.626L22.8058 398.662L14.2108 391.88ZM23.9686 399.58L19.6702 406.516L28.2436 412.976L32.3167 406.167L23.9686 399.58ZM33.4865 407.09L29.4306 413.871L37.765 420.151L41.6101 413.5L33.4865 407.09ZM42.7784 414.422L38.9499 421.044L47.0621 427.157L50.693 420.667L42.7784 414.422ZM51.862 421.589L48.2475 428.05L56.1536 434.008L59.5826 427.681L51.862 421.589ZM60.7534 428.605L57.3404 434.903L65.0505 440.713L68.289 434.551L60.7534 428.605ZM69.4668 435.481L66.244 441.612L315.432 629.39C320.994 633.577 328.939 632.471 333.142 626.927L589.262 288.904C591.139 286.429 592.032 283.359 591.777 280.264L591.771 280.272C591.475 276.698 589.664 273.409 586.799 271.247L278.078 38.6073L277.121 40.4269L566.348 268.648C569.313 270.987 571.19 274.484 571.503 278.245C571.793 281.714 570.755 285.13 568.589 287.858L312.903 610.126C308.211 616.039 299.566 617.045 293.641 612.367L69.4668 435.481ZM275.941 39.4957L276.882 37.7061L273.848 35.42L272.928 37.1179L275.941 39.4957ZM271.757 36.1941L272.661 34.5257L269.663 32.2663L268.78 33.8449L271.757 36.1941ZM267.611 32.9225L268.478 31.3731L265.519 29.144L264.674 30.6055L267.611 32.9225ZM263.502 29.6802L264.33 28.2477L261.469 26.0914C261.177 26.4868 260.902 26.8984 260.647 27.3252L260.605 27.3946L263.502 29.6802ZM259.441 26.4762C259.708 26.0376 259.992 25.6139 260.294 25.206L257.655 23.2176C257.316 23.5594 256.991 23.9201 256.683 24.2995L259.441 26.4762ZM255.527 23.3874C255.827 23.0169 256.142 22.6624 256.47 22.3244L254.109 20.5455C253.737 20.8187 253.378 21.1103 253.033 21.4195L255.527 23.3874ZM251.859 20.4928C252.188 20.1877 252.53 19.8974 252.884 19.6226L250.887 18.1176C250.476 18.3189 250.076 18.54 249.688 18.7804L251.859 20.4928ZM248.47 17.8193C248.833 17.5768 249.206 17.35 249.589 17.1393L248.111 16.0257C247.644 16.1451 247.187 16.2883 246.741 16.4545L248.47 17.8193ZM245.415 15.4086C245.774 15.2506 246.139 15.1064 246.511 14.9764C246.203 14.8063 245.891 14.6503 245.574 14.5082C245.179 14.52 244.783 14.5496 244.387 14.5973L245.415 15.4086ZM-23.6342 382.364C-23.8026 380.323 -23.4839 378.286 -22.7234 376.414L-13.2519 383.551L-17.7833 390.067C-18.1128 390.541 -18.4132 391.033 -18.6837 391.538C-21.5374 389.304 -23.3306 385.988 -23.6342 382.364ZM-16.5776 390.908L-12.077 384.437L-2.63323 391.553L-7.85128 399.363L-17.4845 392.415C-17.2166 391.896 -16.914 391.392 -16.5776 390.908ZM-6.66006 400.222L-1.45907 392.438L7.6773 399.322L2.74005 407.001L-6.66006 400.222ZM3.93426 407.862L8.8549 400.21L17.7111 406.883L13.0364 414.426L3.93426 407.862ZM14.233 415.289L18.8913 407.773L27.4834 414.247L23.0545 421.651L14.233 415.289ZM24.2577 422.519L28.6705 415.142L37.0227 421.435L32.8246 428.697L24.2577 422.519ZM34.025 429.563L38.2075 422.328L46.3367 428.454L42.3555 435.571L34.025 429.563ZM43.5561 436.436L47.522 429.347L55.4444 435.317L51.6673 442.286L43.5561 436.436ZM52.8691 443.153L56.6312 436.211L64.3566 442.033L60.7721 448.852L52.8691 443.153ZM61.9802 449.723L65.5501 442.932L314.555 630.568C320.762 635.249 329.632 634.012 334.321 627.818L590.441 289.795C592.537 287.03 593.534 283.6 593.247 280.15C592.917 276.156 590.888 272.488 587.69 270.074L278.77 37.2899L279.589 35.731L608.171 272.696C611.261 274.927 613.21 278.382 613.528 282.175C613.783 285.269 612.919 288.356 611.092 290.87L354.538 644.648C350.324 650.462 342.143 651.774 336.317 647.568L61.9802 449.723ZM278.379 34.8579L277.574 36.3887L274.556 34.1141L275.34 32.6665L278.379 34.8579ZM274.138 31.7998L273.369 33.2198L270.387 30.9726L270.759 30.3071C270.885 30.0822 271.015 29.8615 271.151 29.6451L274.138 31.7998ZM269.477 29.5867L269.201 30.0794L266.29 27.8858C266.556 27.4923 266.837 27.1129 267.134 26.7483L269.955 28.7829C269.79 29.0451 269.63 29.313 269.477 29.5867ZM265.935 25.8835C265.646 26.2414 265.37 26.6124 265.109 26.9957L262.397 24.9521C262.694 24.6216 263.005 24.3052 263.328 24.0037L265.935 25.8835ZM262.114 23.1279C261.804 23.4273 261.505 23.7393 261.218 24.0636L258.761 22.2122C259.092 21.9413 259.433 21.6861 259.783 21.4469L262.114 23.1279ZM258.522 20.5378C258.191 20.7798 257.869 21.0351 257.555 21.3036L255.418 19.6928C255.783 19.4825 256.159 19.2882 256.543 19.1106L258.522 20.5378ZM255.192 18.1359C254.836 18.323 254.488 18.5234 254.149 18.7368L252.46 17.464C252.878 17.3195 253.305 17.1942 253.739 17.0886L255.192 18.1359ZM252.09 16.0415C251.747 16.1569 251.409 16.2839 251.077 16.4222L250.081 15.6714C250.449 15.6324 250.817 15.6085 251.184 15.5996C251.49 15.7347 251.793 15.882 252.09 16.0415ZM-18.0963 393.786C-18.8063 395.648 -19.0991 397.658 -18.9342 399.659C-18.6323 403.299 -16.8865 406.61 -14.0998 408.907C-13.8241 408.368 -13.5149 407.84 -13.1728 407.327L-8.66796 400.585L-18.0963 393.786ZM-7.47676 401.444L-11.951 408.14C-12.3078 408.676 -12.6247 409.228 -12.901 409.795L-3.31788 416.422L1.94438 408.238L-7.47676 401.444ZM3.13855 409.1L-2.10814 417.259L7.26409 423.741L12.2606 415.678L3.13855 409.1ZM13.4572 416.541L8.47601 424.579L17.5495 430.854L22.2975 422.917L13.4572 416.541ZM23.5008 423.784L18.768 431.697L27.571 437.785L32.0856 429.975L23.5008 423.784ZM33.286 430.841L28.7859 438.625L37.338 444.539L41.6335 436.861L33.286 430.841ZM42.8341 437.727L38.553 445.38L46.8725 451.133L50.9615 443.588L42.8341 437.727ZM52.1633 444.455L48.0882 451.974L56.1871 457.575L60.0817 450.166L52.1633 444.455ZM61.2899 451.037L57.409 458.42L357.195 665.747C360.149 667.786 363.721 668.563 367.264 667.923C370.801 667.285 373.88 665.311 375.933 662.362L632.922 292.836C634.698 290.282 635.54 287.173 635.279 284.085L635.284 284.078C634.951 280.058 632.856 276.438 629.543 274.144L280.98 33.0888C280.945 33.1529 280.911 33.2172 280.877 33.2817L280.28 34.4176L609.034 271.507C612.476 273.988 614.644 277.827 614.997 282.054C615.283 285.491 614.32 288.93 612.288 291.733L355.732 645.504C351.039 651.974 341.942 653.435 335.454 648.757L61.2899 451.037ZM279.069 33.5444L279.567 32.5976C279.629 32.4787 279.693 32.3607 279.757 32.2436L276.798 30.1965C276.534 30.5747 276.285 30.9655 276.052 31.3683L279.069 33.5444ZM274.854 30.5048C275.086 30.1126 275.331 29.731 275.589 29.3606L272.808 27.4378C272.522 27.7571 272.247 28.0898 271.985 28.4354L274.854 30.5048ZM270.791 27.5743C271.046 27.2362 271.313 26.9095 271.589 26.5944L269.012 24.8126C268.704 25.0789 268.407 25.3577 268.12 25.6483L270.791 27.5743ZM266.91 24.7759C267.185 24.4898 267.47 24.214 267.763 23.9488L265.454 22.3518C265.123 22.5645 264.8 22.7901 264.487 23.0279L266.91 24.7759ZM263.244 22.132C263.54 21.8951 263.843 21.6685 264.154 21.4525L262.207 20.1064C261.848 20.2631 261.494 20.4343 261.147 20.6197L263.244 22.132ZM259.835 19.673C260.154 19.484 260.48 19.3064 260.81 19.1403L259.374 18.1468C258.967 18.2399 258.567 18.3496 258.174 18.4756L259.835 19.673ZM256.726 17.431C257.033 17.3095 257.344 17.1972 257.66 17.0944C257.38 16.9494 257.096 16.8147 256.809 16.6903C256.466 16.6967 256.122 16.7158 255.778 16.7477L256.726 17.431ZM-14.2342 416.954C-14.4 414.96 -14.1414 413.005 -13.4816 411.17L-4.10866 417.652L-8.56848 424.588C-8.91866 425.135 -9.23302 425.697 -9.5109 426.271C-12.235 423.917 -13.9339 420.606 -14.2342 416.954ZM-7.32984 425.38L-2.89896 418.489L6.49321 424.985L1.20161 433.523L-8.10145 427.342C-8.17526 427.293 -8.24849 427.243 -8.32115 427.193C-8.03691 426.571 -7.70615 425.966 -7.32984 425.38ZM2.42796 434.338L7.70511 425.823L16.7975 432.111L11.7575 440.537L2.42796 434.338ZM12.9902 441.356L18.0159 432.954L26.8368 439.054L22.033 447.364L12.9902 441.356ZM23.2616 448.18L28.0518 439.895L36.6208 445.821L32.0386 454.012L23.2616 448.18ZM33.267 454.828L37.8358 446.662L46.1714 452.427L41.7979 460.496L33.267 454.828ZM43.0268 461.313L47.3872 453.267L55.5015 458.879L51.3245 466.826L43.0268 461.313ZM52.5592 467.646L56.7233 459.724L356.354 666.953C359.631 669.219 363.599 670.076 367.526 669.369C371.458 668.654 374.87 666.461 377.144 663.196L634.133 293.67C636.103 290.836 637.032 287.389 636.748 283.958C636.378 279.498 634.056 275.482 630.378 272.939L281.738 31.8209C281.968 31.4709 282.211 31.1308 282.464 30.8011L650.909 275.6C654.453 277.957 656.692 281.741 657.042 285.988L657.036 285.995C657.303 289.128 656.506 292.179 654.752 294.802L397.328 680.083C395.265 683.158 392.137 685.255 388.5 685.979C384.863 686.702 381.159 685.975 378.074 683.926L52.5592 467.646ZM281.231 29.9816C280.985 30.3055 280.748 30.6385 280.522 30.9802L277.695 29.0246C277.946 28.7244 278.208 28.434 278.48 28.1538L281.231 29.9816ZM277.237 27.3281C276.977 27.6052 276.724 27.891 276.481 28.1854L273.859 26.3717C274.133 26.1187 274.414 25.8762 274.703 25.6445L277.237 27.3281ZM273.421 24.7928C273.148 25.0246 272.881 25.2654 272.62 25.5152L270.23 23.8622C270.524 23.6555 270.825 23.459 271.134 23.273L273.421 24.7928ZM269.79 22.3799C269.502 22.5694 269.221 22.7675 268.946 22.9739L266.878 21.5439C267.199 21.3842 267.527 21.2355 267.861 21.0981L269.79 22.3799ZM266.413 20.1364C266.109 20.2827 265.81 20.4379 265.516 20.6019L263.903 19.4867C264.268 19.378 264.637 19.2834 265.008 19.203L266.413 20.1364ZM263.245 18.1543C262.96 18.2437 262.678 18.3409 262.398 18.4458L261.496 17.8219C261.809 17.7975 262.122 17.7833 262.434 17.7794C262.708 17.8953 262.978 18.0203 263.245 18.1543ZM-8.87337 428.591C-9.47709 430.395 -9.70899 432.304 -9.54777 434.244C-9.24352 437.908 -7.58702 441.226 -4.91971 443.631C-4.63859 443.022 -4.31777 442.427 -3.95789 441.849L0.428057 434.771L-8.87337 428.591ZM1.6544 435.586L-2.70801 442.625C-3.10144 443.26 -3.44361 443.918 -3.73337 444.592C-3.4986 444.763 -3.25771 444.927 -3.01089 445.084L5.70415 450.656L11.0031 441.798L1.6544 435.586ZM12.2359 442.617L6.95039 451.453L16.2365 457.39L21.2968 448.637L12.2359 442.617ZM22.5255 449.454L17.4781 458.184L26.4834 463.942L31.3198 455.297L22.5255 449.454ZM32.5482 456.113L27.7245 464.736L36.4699 470.327L41.0955 461.792L32.5482 456.113ZM42.3244 462.609L37.7112 471.121L46.2106 476.555L50.6377 468.133L42.3244 462.609ZM51.8725 468.953L47.4575 477.352L398.964 702.097C405.606 706.343 414.466 704.408 418.728 697.783L676.587 296.754C678.297 294.097 679.066 291.03 678.804 287.884L678.805 287.89C678.434 283.417 676.055 279.467 672.275 277.049L284.169 28.9042C283.908 29.1536 283.655 29.4117 283.41 29.6782L651.709 274.38C655.638 276.988 658.106 281.176 658.498 285.869C658.782 289.339 657.914 292.707 655.974 295.615L398.543 680.89C396.274 684.299 392.8 686.617 388.781 687.421C384.761 688.219 380.662 687.418 377.254 685.149L51.8725 468.953ZM282.165 28.8512C282.4 28.5892 282.642 28.3344 282.891 28.087L280.377 26.4795C280.101 26.6869 279.833 26.903 279.571 27.1275L282.165 28.8512ZM278.304 26.2857C278.551 26.0634 278.805 25.8482 279.064 25.6403L276.823 24.2072C276.532 24.3725 276.245 24.5471 275.964 24.7309L278.304 26.2857ZM274.639 23.8507C274.9 23.6664 275.166 23.4896 275.436 23.3204L273.524 22.098C273.21 22.2205 272.901 22.3526 272.597 22.4941L274.639 23.8507ZM271.183 21.5545C271.459 21.4084 271.739 21.2697 272.024 21.1385L270.636 20.2511C270.41 20.2977 270.185 20.3494 269.961 20.4064C269.839 20.4369 269.719 20.4688 269.599 20.5021L271.183 21.5545ZM268.032 19.4609C268.289 19.369 268.549 19.2832 268.812 19.2036C268.566 19.0839 268.316 18.9716 268.064 18.8669C267.771 18.8686 267.477 18.879 267.185 18.8981L268.032 19.4609ZM-4.85982 451.546C-5.01674 449.661 -4.81137 447.798 -4.26281 446.028C-4.11328 446.131 -3.96162 446.232 -3.80785 446.33L4.94464 451.926L0.651884 459.102C0.284799 459.718 -0.040221 460.351 -0.322524 460.998C-2.91407 458.534 -4.55896 455.165 -4.85982 451.546ZM1.91945 459.864L6.19091 452.723L15.4957 458.672L10.1911 467.848L2.07555 462.847C1.65292 462.586 1.24589 462.305 0.85548 462.006C1.151 461.271 1.5061 460.555 1.91945 459.864ZM11.4448 468.62L16.7372 459.466L25.7603 465.235L20.682 474.312L11.4448 468.62ZM21.935 475.084L27.0014 466.028L35.7636 471.63L30.8982 480.608L21.935 475.084ZM32.1512 481.38L37.0049 472.424L45.5203 477.868L40.8553 486.743L32.1512 481.38ZM42.1136 487.519L46.7672 478.666L398.166 703.336C405.491 708.013 415.268 705.883 419.967 698.575L677.826 297.546C679.717 294.611 680.564 291.232 680.274 287.763C679.864 282.83 677.237 278.473 673.065 275.804L285.325 27.898C285.567 27.7054 285.816 27.5194 286.069 27.3404L693.633 278.493C697.593 280.934 700.183 285.158 700.568 289.793C700.83 292.939 700.084 296.03 698.417 298.72L440.117 715.505C438.055 718.841 434.799 721.178 430.97 722.082C427.146 722.986 423.193 722.349 419.843 720.282L42.1136 487.519ZM284.713 26.5044C284.476 26.6842 284.243 26.8697 284.015 27.0609L281.701 25.5813C281.958 25.4247 282.22 25.275 282.486 25.1324L284.713 26.5044ZM281.061 24.254C280.816 24.4002 280.575 24.5522 280.338 24.7097L278.356 23.4423C278.633 23.3219 278.913 23.2094 279.196 23.1048L281.061 24.254ZM277.643 22.1477C277.389 22.2604 277.137 22.3792 276.888 22.504L275.339 21.5138C275.65 21.4341 275.961 21.364 276.273 21.3035L277.643 22.1477ZM274.386 20.2534C274.157 20.3207 273.93 20.3925 273.705 20.4687L272.905 19.9572C273.156 19.9438 273.407 19.9367 273.658 19.9358C273.902 20.0347 274.145 20.1405 274.386 20.2534ZM0.354857 463.462C-0.14368 465.198 -0.324604 467.016 -0.171892 468.849C0.127512 472.478 1.73538 475.847 4.27721 478.363C4.56197 477.68 4.89278 477.012 5.26888 476.362L9.45638 469.118L1.30516 464.096C0.979875 463.895 0.662981 463.684 0.354857 463.462ZM10.71 469.891L6.54042 477.103C6.11134 477.847 5.7464 478.617 5.44734 479.407C5.99107 479.844 6.56782 480.245 7.17485 480.607L14.6673 485.064L19.965 475.594L10.71 469.891ZM21.218 476.366L15.9317 485.816L25.1154 491.278L30.198 481.899L21.218 476.366ZM31.451 482.672L26.3795 492.029L35.291 497.329L40.1712 488.045L31.451 482.672ZM41.4295 488.82L36.5601 498.084L440.735 738.466C444.215 740.53 448.294 741.124 452.218 740.136C456.148 739.146 459.453 736.686 461.532 733.217L720.26 300.685C721.89 297.959 722.614 294.852 722.351 291.699L722.344 291.694C721.942 286.826 719.193 282.432 714.997 279.935L288.169 26.0764C287.925 26.2003 287.684 26.3299 287.446 26.4651L694.409 277.243C698.766 279.921 701.613 284.571 702.037 289.665C702.326 293.128 701.507 296.523 699.672 299.484L441.371 716.262C439.097 719.939 435.518 722.506 431.306 723.498C427.089 724.491 422.742 723.794 419.065 721.519L41.4295 488.82ZM286.032 25.5933C286.249 25.4571 286.469 25.3252 286.692 25.1979L284.842 24.0976C284.583 24.1882 284.327 24.2849 284.075 24.3874L286.032 25.5933ZM282.558 23.453C282.783 23.346 283.011 23.2434 283.241 23.1455L281.92 22.3598C281.636 22.4115 281.353 22.4707 281.073 22.5374L282.558 23.453ZM279.369 21.4876C279.569 21.423 279.77 21.3619 279.972 21.3043C279.75 21.203 279.527 21.1072 279.302 21.017C279.076 21.0162 278.851 21.0203 278.625 21.0294L279.369 21.4876ZM4.50233 486.147C4.35383 484.367 4.51426 482.597 4.96774 480.897C5.42935 481.242 5.91108 481.564 6.41171 481.862L13.9501 486.346L9.87944 493.622C9.49533 494.307 9.15978 495.011 8.87368 495.731C6.37663 493.172 4.80598 489.795 4.50233 486.147ZM11.1614 494.342L15.2144 487.098L24.4151 492.57L19.1363 502.31L12.2596 498.357C11.4687 497.903 10.7269 497.384 10.0392 496.81C10.3408 495.964 10.7154 495.138 11.1614 494.342ZM20.4107 503.042L25.6791 493.322L34.6067 498.631L29.5323 508.285L20.4107 503.042ZM30.8115 509.021L35.8757 499.386L439.973 739.727C443.787 741.997 448.258 742.646 452.568 741.556C456.879 740.473 460.507 737.775 462.785 733.967L721.513 301.435C723.298 298.441 724.095 295.03 723.807 291.574C723.366 286.239 720.354 281.421 715.748 278.682L289.808 25.3516C290.036 25.2647 290.267 25.1824 290.5 25.1047L736.369 281.384C740.801 283.935 743.702 288.5 744.126 293.594L744.121 293.601C744.378 296.761 743.675 299.885 742.083 302.645L482.92 750.932C478.624 758.366 469.064 760.926 461.613 756.645L30.8115 509.021ZM288.841 24.1514C288.636 24.2355 288.432 24.323 288.231 24.4139L286.775 23.5479C287.027 23.4923 287.279 23.4427 287.532 23.399L288.841 24.1514ZM285.186 22.4451C285.128 22.4626 285.069 22.4803 285.011 22.4984L284.35 22.1057C284.544 22.1002 284.738 22.0982 284.932 22.0997C285.131 22.1781 285.329 22.2608 285.526 22.3476C285.412 22.379 285.299 22.4115 285.186 22.4451ZM9.58404 498.322C9.17187 499.987 9.03199 501.714 9.17656 503.445C9.4797 507.111 11.02 510.496 13.4758 513.097C13.7618 512.341 14.1003 511.601 14.4902 510.882L18.439 503.596L11.5239 499.621C10.8432 499.23 10.1957 498.795 9.58404 498.322ZM19.7134 504.329L15.7826 511.582C15.323 512.43 14.9415 513.31 14.6398 514.212C15.4665 514.927 16.3732 515.563 17.3508 516.106L23.5959 519.579L28.851 509.582L19.7134 504.329ZM30.1301 510.317L24.8847 520.296L482.491 774.824C486.236 776.906 490.564 777.404 494.688 776.239C498.812 775.075 502.23 772.371 504.321 768.639L763.918 304.604C765.475 301.816 766.162 298.674 765.903 295.501C765.462 290.173 762.408 285.432 757.734 282.833L293.169 24.4453C292.947 24.4816 292.725 24.5224 292.503 24.5677L737.098 280.121C741.953 282.913 745.125 287.907 745.584 293.481C745.866 296.938 745.102 300.358 743.353 303.38L484.191 751.667C479.486 759.8 469.023 762.612 460.873 757.923L30.1301 510.317ZM290.666 23.5119L290.055 23.1603C290.213 23.1575 290.371 23.1571 290.529 23.159C290.72 23.2322 290.91 23.3094 291.099 23.3904C290.954 23.4292 290.81 23.4697 290.666 23.5119ZM13.8501 520.737C13.7134 519.059 13.8347 517.384 14.205 515.761C14.9598 516.364 15.77 516.909 16.6304 517.388L22.9116 520.881L19.0944 528.143C18.7003 528.894 18.3603 529.667 18.0754 530.456C15.6627 527.815 14.1532 524.421 13.8501 520.737ZM20.4036 528.821L24.2004 521.598L481.789 776.097C485.871 778.365 490.599 778.917 495.101 777.639C499.604 776.368 503.338 773.421 505.62 769.344L765.218 305.309C766.919 302.267 767.666 298.829 767.378 295.373C766.895 289.553 763.563 284.383 758.454 281.545L295.807 24.224C295.921 24.2234 296.034 24.224 296.147 24.2257C296.83 24.4849 297.501 24.7909 298.154 25.1432L779.093 284.277C784.015 286.93 787.228 291.834 787.686 297.401L787.686 297.408C787.951 300.579 787.28 303.746 785.754 306.562L525.722 786.353C521.402 794.325 511.38 797.305 503.383 793.001L22.4422 533.855C21.2741 533.226 20.2022 532.471 19.2406 531.61C19.5422 530.654 19.9306 529.721 20.4036 528.821ZM18.825 533.194C19.7212 533.932 20.6969 534.59 21.7435 535.153L502.69 794.299C511.397 798.99 522.321 795.739 527.027 787.05L787.059 307.26C788.724 304.19 789.443 300.737 789.162 297.279C788.654 291.221 785.157 285.875 779.799 282.99L301.087 25.0503C301.988 25.3437 302.87 25.7149 303.726 26.163L800.453 285.733C805.616 288.427 808.988 293.507 809.469 299.308L809.475 299.307C809.741 302.485 809.093 305.675 807.596 308.52L547.129 804.059C545.026 808.054 541.494 810.995 537.177 812.341C532.854 813.687 528.275 813.274 524.267 811.179L27.5351 551.616C22.3778 548.915 19.0061 543.841 18.5244 538.035C18.388 536.406 18.4912 534.777 18.825 533.194Z" fill="#6259E8" fill-opacity="0.06"/>
</svg>
