<svg width="212" height="125" viewBox="0 0 212 125" fill="none" xmlns="http://www.w3.org/2000/svg">
<path d="M0 6.37744V124.921H211.999V28.8789C207.4 21.3784 197.071 5.39045 192.555 1.44252C186.91 -3.49239 185.029 9.23309 175.621 28.8789C168.094 44.5955 159.522 35.4275 156.177 28.8789L139.869 17.193C136.524 23.4142 128.83 33.0723 124.816 21.9351C120.802 10.7979 111.017 6.92282 106.627 6.37744C101.267 11.0552 88.7529 22.1045 81.572 28.8789C72.5959 37.3469 69.7168 28.0321 61.9262 17.193C54.1357 6.35397 45.6677 19.3947 40.4175 21.9351C35.1673 24.4755 29.9172 12.1122 28.7317 9.23309C27.5461 6.35396 20.6024 10.0799 17.0458 9.23309C14.2006 8.55565 13.1545 -0.0407181 9.16425 0.402646L0 6.37744Z" fill="url(#paint0_linear_334_7603)"/>
<defs>
<linearGradient id="paint0_linear_334_7603" x1="106" y1="0.376953" x2="106" y2="124.921" gradientUnits="userSpaceOnUse">
<stop stop-color="#D2F801"/>
<stop offset="1" stop-color="#D2F801" stop-opacity="0"/>
</linearGradient>
</defs>
</svg>
