<svg width="1750" height="147" viewBox="0 0 1750 147" fill="none" xmlns="http://www.w3.org/2000/svg">
<path d="M0.98815 84.64H34.7482C35.2815 87.9467 36.8282 90.8267 39.3882 93.28C41.9482 95.7333 45.3615 97.6533 49.6281 99.04C54.0015 100.32 59.1215 100.96 64.9882 100.96C73.0948 100.96 79.4948 99.9467 84.1882 97.92C88.8815 95.7867 91.2282 92.6933 91.2282 88.64C91.2282 85.5467 89.8948 83.1467 87.2282 81.44C84.5615 79.7333 79.4415 78.5067 71.8682 77.76L49.4682 75.68C32.9348 74.1867 20.9348 70.4533 13.4682 64.48C6.00148 58.4 2.26815 50.24 2.26815 40C2.26815 31.68 4.66815 24.64 9.46815 18.88C14.3748 13.12 21.2015 8.8 29.9482 5.91999C38.8015 2.93333 49.0948 1.43999 60.8282 1.43999C72.3482 1.43999 82.5882 3.09333 91.5482 6.4C100.508 9.59999 107.601 14.1867 112.828 20.16C118.161 26.1333 121.041 33.0667 121.468 40.96H87.8682C87.4415 38.08 86.0548 35.6267 83.7082 33.6C81.4682 31.4667 78.3748 29.8667 74.4282 28.8C70.4815 27.6267 65.7348 27.04 60.1882 27.04C52.7215 27.04 46.8015 28.0533 42.4282 30.08C38.0548 32 35.8682 34.88 35.8682 38.72C35.8682 41.4933 37.1482 43.7333 39.7082 45.44C42.3748 47.1467 47.1215 48.32 53.9482 48.96L77.7882 51.36C89.2015 52.4267 98.3215 54.2933 105.148 56.96C111.975 59.52 116.935 63.0933 120.028 67.68C123.121 72.2667 124.668 77.9733 124.668 84.8C124.668 93.2267 122.161 100.587 117.148 106.88C112.135 113.067 105.095 117.92 96.0282 121.44C86.9615 124.853 76.4015 126.56 64.3482 126.56C51.9748 126.56 41.0415 124.853 31.5482 121.44C22.1615 117.92 14.8015 113.013 9.46815 106.72C4.13482 100.32 1.30815 92.96 0.98815 84.64ZM209.763 126.56C198.67 126.56 188.75 124.533 180.003 120.48C171.363 116.427 164.536 110.773 159.523 103.52C154.51 96.16 152.003 87.6267 152.003 77.92C152.003 68.4267 154.403 60.1067 159.203 52.96C164.003 45.7067 170.563 40.0533 178.883 36C187.31 31.9467 196.803 29.92 207.363 29.92C218.35 29.92 227.683 32.32 235.363 37.12C243.15 41.8133 249.123 48.48 253.283 57.12C257.55 65.76 259.683 75.9467 259.683 87.68H178.403V68H241.283L230.563 74.88C230.136 70.1867 228.963 66.24 227.043 63.04C225.123 59.7333 222.563 57.2267 219.363 55.52C216.27 53.8133 212.536 52.96 208.163 52.96C203.363 52.96 199.256 53.92 195.843 55.84C192.43 57.76 189.763 60.4267 187.843 63.84C185.923 67.1467 184.963 71.04 184.963 75.52C184.963 81.28 186.243 86.1867 188.803 90.24C191.47 94.1867 195.31 97.2267 200.323 99.36C205.443 101.493 211.683 102.56 219.043 102.56C225.763 102.56 232.43 101.707 239.043 100C245.763 98.1867 251.843 95.68 257.283 92.48V113.28C250.99 117.547 243.79 120.853 235.683 123.2C227.683 125.44 219.043 126.56 209.763 126.56ZM286.474 32.64H319.754L325.194 65.28V124H292.554V63.36L286.474 32.64ZM368.074 31.2V59.04C364.874 58.4 361.834 57.9733 358.954 57.76C356.181 57.44 353.621 57.28 351.274 57.28C346.581 57.28 342.261 58.24 338.314 60.16C334.368 61.9733 331.168 65.0133 328.714 69.28C326.368 73.5467 325.194 79.2533 325.194 86.4L318.954 78.72C319.808 72.1067 321.088 65.92 322.794 60.16C324.501 54.2933 326.794 49.12 329.674 44.64C332.661 40.0533 336.341 36.48 340.714 33.92C345.088 31.2533 350.421 29.92 356.714 29.92C358.528 29.92 360.394 30.0267 362.314 30.24C364.234 30.4533 366.154 30.7733 368.074 31.2ZM503.292 85.44C502.439 93.6533 499.452 100.853 494.332 107.04C489.212 113.227 482.545 118.027 474.332 121.44C466.225 124.853 457.105 126.56 446.972 126.56C435.772 126.56 425.905 124.533 417.372 120.48C408.839 116.427 402.172 110.773 397.372 103.52C392.572 96.2667 390.172 87.8933 390.172 78.4C390.172 68.8 392.572 60.3733 397.372 53.12C402.172 45.8667 408.839 40.2133 417.372 36.16C425.905 32 435.772 29.92 446.972 29.92C457.105 29.92 466.225 31.68 474.332 35.2C482.545 38.6133 489.212 43.4133 494.332 49.6C499.452 55.68 502.439 62.88 503.292 71.2H470.812C469.639 65.76 466.919 61.6 462.652 58.72C458.385 55.7333 453.159 54.24 446.972 54.24C442.172 54.24 437.959 55.2 434.332 57.12C430.812 58.9333 428.039 61.6533 426.012 65.28C424.092 68.8 423.132 73.1733 423.132 78.4C423.132 83.52 424.092 87.8933 426.012 91.52C428.039 95.04 430.812 97.76 434.332 99.68C437.959 101.493 442.172 102.4 446.972 102.4C453.159 102.4 458.385 100.853 462.652 97.76C467.025 94.6667 469.745 90.56 470.812 85.44H503.292ZM533.807 0.799994H566.607V124H533.807V0.799994ZM600.047 29.92C608.9 29.92 616.367 31.68 622.447 35.2C628.634 38.72 633.38 43.68 636.687 50.08C639.994 56.48 641.647 64.0533 641.647 72.8V124H608.847V77.6C608.847 70.7733 607.087 65.5467 603.567 61.92C600.154 58.2933 595.194 56.48 588.687 56.48C584.207 56.48 580.26 57.44 576.847 59.36C573.54 61.28 570.98 64 569.167 67.52C567.46 71.04 566.607 75.2 566.607 80L556.367 74.72C557.647 65.0133 560.367 56.8533 564.527 50.24C568.687 43.52 573.807 38.4533 579.887 35.04C586.074 31.6267 592.794 29.92 600.047 29.92ZM758.654 124L754.494 91.04L758.814 78.4L754.494 65.76L758.654 32.64H792.574L786.814 78.24L792.574 124H758.654ZM766.334 78.4C764.841 88 761.854 96.4267 757.374 103.68C753.001 110.933 747.401 116.587 740.574 120.64C733.854 124.587 726.174 126.56 717.534 126.56C708.574 126.56 700.681 124.587 693.854 120.64C687.134 116.587 681.854 110.933 678.014 103.68C674.174 96.32 672.254 87.8933 672.254 78.4C672.254 68.6933 674.174 60.2133 678.014 52.96C681.854 45.7067 687.134 40.0533 693.854 36C700.681 31.9467 708.574 29.92 717.534 29.92C726.174 29.92 733.854 31.9467 740.574 36C747.401 39.9467 753.054 45.5467 757.534 52.8C762.014 59.9467 764.948 68.48 766.334 78.4ZM705.374 78.4C705.374 82.88 706.281 86.88 708.094 90.4C710.014 93.92 712.628 96.6933 715.934 98.72C719.241 100.64 723.028 101.6 727.294 101.6C731.774 101.6 735.988 100.64 739.934 98.72C743.881 96.6933 747.348 93.92 750.334 90.4C753.321 86.88 755.561 82.88 757.054 78.4C755.561 73.8133 753.321 69.76 750.334 66.24C747.348 62.72 743.881 59.9467 739.934 57.92C735.988 55.8933 731.774 54.88 727.294 54.88C723.028 54.88 719.241 55.8933 715.934 57.92C712.628 59.9467 710.014 62.72 708.094 66.24C706.281 69.76 705.374 73.8133 705.374 78.4ZM817.882 56.8V42.56L836.442 35.04L850.522 8H869.082V32.64H907.482V56.8H869.082V83.68C869.082 90.2933 870.415 94.9333 873.082 97.6C875.749 100.267 880.602 101.6 887.642 101.6C892.122 101.6 896.069 101.227 899.482 100.48C903.002 99.6267 906.202 98.56 909.082 97.28V121.92C905.882 123.093 901.669 124.16 896.442 125.12C891.215 126.08 885.829 126.56 880.282 126.56C870.149 126.56 861.829 125.013 855.322 121.92C848.922 118.827 844.175 114.4 841.082 108.64C837.989 102.773 836.442 95.9467 836.442 88.16V56.8H817.882ZM1018.17 100.96V85.44L1019.29 81.6V59.2L1018.17 55.84V32.64H1050.81V99.68C1050.81 110.88 1048.19 120.48 1042.97 128.48C1037.74 136.48 1030.43 142.56 1021.05 146.72C1011.77 150.88 1000.78 152.96 988.086 152.96C979.659 152.96 971.819 151.84 964.566 149.6C957.419 147.467 950.272 144.267 943.126 140V115.36C949.739 120.267 956.672 123.787 963.926 125.92C971.286 128.16 978.646 129.28 986.006 129.28C996.459 129.28 1004.41 127.04 1009.85 122.56C1015.39 118.08 1018.17 110.88 1018.17 100.96ZM978.966 114.4C970.326 114.4 962.646 112.64 955.926 109.12C949.206 105.6 943.872 100.693 939.926 94.4C936.086 88 934.166 80.5867 934.166 72.16C934.166 63.6267 936.086 56.2133 939.926 49.92C943.872 43.6267 949.206 38.72 955.926 35.2C962.646 31.68 970.326 29.92 978.966 29.92C985.366 29.92 991.232 30.9333 996.566 32.96C1001.9 34.88 1006.65 37.4933 1010.81 40.8C1014.97 44 1018.43 47.52 1021.21 51.36C1024.09 55.0933 1026.27 58.8267 1027.77 62.56C1029.26 66.2933 1030.01 69.6 1030.01 72.48C1030.01 76.4267 1028.83 80.8 1026.49 85.6C1024.25 90.4 1020.94 94.9867 1016.57 99.36C1012.19 103.733 1006.81 107.36 1000.41 110.24C994.112 113.013 986.966 114.4 978.966 114.4ZM990.006 92.16C996.299 92.16 1001.9 90.5067 1006.81 87.2C1011.71 83.8933 1015.87 78.88 1019.29 72.16C1015.77 65.3333 1011.55 60.32 1006.65 57.12C1001.74 53.8133 996.192 52.16 990.006 52.16C985.312 52.16 981.206 52.96 977.686 54.56C974.272 56.16 971.659 58.5067 969.846 61.6C968.032 64.5867 967.126 68.1067 967.126 72.16C967.126 76.1067 968.032 79.6267 969.846 82.72C971.659 85.7067 974.272 88.0533 977.686 89.76C981.099 91.36 985.206 92.16 990.006 92.16ZM1086.08 32.64H1118.88V58.88L1117.44 62.72V88.32L1118.88 95.84V150.4H1086.08V32.64ZM1108.48 78.4C1109.87 68.48 1112.75 59.9467 1117.12 52.8C1121.6 45.5467 1127.26 39.9467 1134.08 36C1140.91 31.9467 1148.64 29.92 1157.28 29.92C1166.24 29.92 1174.08 31.9467 1180.8 36C1187.63 40.0533 1192.91 45.7067 1196.64 52.96C1200.48 60.2133 1202.4 68.6933 1202.4 78.4C1202.4 87.8933 1200.48 96.32 1196.64 103.68C1192.91 110.933 1187.63 116.587 1180.8 120.64C1174.08 124.587 1166.24 126.56 1157.28 126.56C1148.64 126.56 1140.91 124.587 1134.08 120.64C1127.26 116.587 1121.66 110.933 1117.28 103.68C1112.91 96.4267 1109.98 88 1108.48 78.4ZM1169.44 78.4C1169.44 73.8133 1168.48 69.76 1166.56 66.24C1164.75 62.72 1162.14 59.9467 1158.72 57.92C1155.42 55.8933 1151.63 54.88 1147.36 54.88C1142.99 54.88 1138.83 55.8933 1134.88 57.92C1130.94 59.9467 1127.47 62.72 1124.48 66.24C1121.5 69.76 1119.2 73.8133 1117.6 78.4C1119.2 82.88 1121.5 86.88 1124.48 90.4C1127.47 93.92 1130.94 96.6933 1134.88 98.72C1138.83 100.64 1142.99 101.6 1147.36 101.6C1151.63 101.6 1155.42 100.64 1158.72 98.72C1162.14 96.6933 1164.75 93.92 1166.56 90.4C1168.48 86.88 1169.44 82.88 1169.44 78.4ZM1224.59 56.8V42.56L1243.15 35.04L1257.23 8H1275.79V32.64H1314.19V56.8H1275.79V82.88C1275.79 89.8133 1277.12 94.6667 1279.79 97.44C1282.45 100.213 1287.31 101.6 1294.35 101.6C1298.83 101.6 1302.77 101.227 1306.19 100.48C1309.71 99.7333 1312.91 98.72 1315.79 97.44V121.92C1312.48 123.093 1308.21 124.16 1302.99 125.12C1297.87 126.08 1292.48 126.56 1286.83 126.56C1276.8 126.56 1268.53 125.013 1262.03 121.92C1255.63 118.827 1250.88 114.4 1247.79 108.64C1244.69 102.773 1243.15 95.9467 1243.15 88.16V56.8H1224.59ZM1309.07 56.8V32.64H1342.19L1320.59 47.68L1341.71 8H1360.27V32.64H1398.67V56.8H1360.27V82.88C1360.27 89.8133 1361.6 94.6667 1364.27 97.44C1366.93 100.213 1371.84 101.6 1378.99 101.6C1383.47 101.6 1387.41 101.227 1390.83 100.48C1394.24 99.7333 1397.39 98.72 1400.27 97.44V121.92C1396.96 123.093 1392.69 124.16 1387.47 125.12C1382.35 126.08 1376.96 126.56 1371.31 126.56C1361.28 126.56 1353.01 125.013 1346.51 121.92C1340.11 118.827 1335.36 114.4 1332.27 108.64C1329.17 102.773 1327.63 95.9467 1327.63 88.16V56.8H1309.07ZM1482.71 126.56C1470.98 126.56 1460.74 124.587 1451.99 120.64C1443.25 116.587 1436.42 110.933 1431.51 103.68C1426.61 96.32 1424.15 87.8933 1424.15 78.4C1424.15 68.6933 1426.61 60.2133 1431.51 52.96C1436.42 45.7067 1443.25 40.0533 1451.99 36C1460.74 31.9467 1470.98 29.92 1482.71 29.92C1494.34 29.92 1504.53 31.9467 1513.27 36C1522.13 40.0533 1529.01 45.7067 1533.91 52.96C1538.82 60.2133 1541.27 68.6933 1541.27 78.4C1541.27 87.8933 1538.82 96.32 1533.91 103.68C1529.01 110.933 1522.13 116.587 1513.27 120.64C1504.53 124.587 1494.34 126.56 1482.71 126.56ZM1482.71 102.4C1488.05 102.4 1492.58 101.44 1496.31 99.52C1500.15 97.6 1503.09 94.8267 1505.11 91.2C1507.14 87.5733 1508.15 83.3067 1508.15 78.4C1508.15 73.28 1507.14 68.96 1505.11 65.44C1503.09 61.8133 1500.15 59.04 1496.31 57.12C1492.58 55.2 1488.05 54.24 1482.71 54.24C1477.38 54.24 1472.79 55.2 1468.95 57.12C1465.11 59.04 1462.18 61.8133 1460.15 65.44C1458.13 68.96 1457.11 73.2267 1457.11 78.24C1457.11 83.2533 1458.13 87.5733 1460.15 91.2C1462.18 94.8267 1465.11 97.6 1468.95 99.52C1472.79 101.44 1477.38 102.4 1482.71 102.4ZM1627.03 126.56C1615.3 126.56 1605.06 124.587 1596.31 120.64C1587.57 116.587 1580.74 110.933 1575.83 103.68C1570.93 96.32 1568.47 87.8933 1568.47 78.4C1568.47 68.6933 1570.93 60.2133 1575.83 52.96C1580.74 45.7067 1587.57 40.0533 1596.31 36C1605.06 31.9467 1615.3 29.92 1627.03 29.92C1638.66 29.92 1648.85 31.9467 1657.59 36C1666.45 40.0533 1673.33 45.7067 1678.23 52.96C1683.14 60.2133 1685.59 68.6933 1685.59 78.4C1685.59 87.8933 1683.14 96.32 1678.23 103.68C1673.33 110.933 1666.45 116.587 1657.59 120.64C1648.85 124.587 1638.66 126.56 1627.03 126.56ZM1627.03 102.4C1632.37 102.4 1636.9 101.44 1640.63 99.52C1644.47 97.6 1647.41 94.8267 1649.43 91.2C1651.46 87.5733 1652.47 83.3067 1652.47 78.4C1652.47 73.28 1651.46 68.96 1649.43 65.44C1647.41 61.8133 1644.47 59.04 1640.63 57.12C1636.9 55.2 1632.37 54.24 1627.03 54.24C1621.7 54.24 1617.11 55.2 1613.27 57.12C1609.43 59.04 1606.5 61.8133 1604.47 65.44C1602.45 68.96 1601.43 73.2267 1601.43 78.24C1601.43 83.2533 1602.45 87.5733 1604.47 91.2C1606.5 94.8267 1609.43 97.6 1613.27 99.52C1617.11 101.44 1621.7 102.4 1627.03 102.4ZM1716.95 0.799994H1749.75V124H1716.95V0.799994Z" fill="#E9762B" fill-opacity="0.1"/>
</svg>
