<svg width="86" height="86" viewBox="0 0 86 86" fill="none" xmlns="http://www.w3.org/2000/svg">
<path d="M85.6005 42.9634C85.6005 37.3779 84.5003 31.847 82.3629 26.6867C80.2254 21.5264 77.0924 16.8376 73.1428 12.888C69.1933 8.93844 64.5045 5.80548 59.3441 3.66799C54.1838 1.53051 48.653 0.430358 43.0674 0.430359L43.0675 21.2626C45.9172 21.2626 48.7391 21.8239 51.372 22.9145C54.0048 24.0051 56.3971 25.6035 58.4122 27.6186C60.4273 29.6337 62.0258 32.026 63.1163 34.6589C64.2069 37.2917 64.7682 40.1136 64.7682 42.9634H85.6005Z" fill="#D2F801"/>
<path d="M43.0675 0.430359C33.3497 0.430359 23.9251 3.75802 16.3617 9.8596C8.79832 15.9612 3.55239 24.4687 1.49684 33.9666L21.8577 38.3731C22.9065 33.5272 25.583 29.1866 29.4419 26.0735C33.3008 22.9604 38.1094 21.2626 43.0675 21.2626V0.430359Z" fill="#0DE41F"/>
<path d="M85.6005 42.9634C85.6005 48.9302 84.3451 54.8302 81.9158 60.28C79.4865 65.7299 75.9377 70.6077 71.5001 74.5963C67.0625 78.585 61.8352 81.5954 56.1581 83.4318C50.4809 85.2683 44.4809 85.8896 38.5479 85.2556C32.615 84.6216 26.8817 82.7464 21.7209 79.7517C16.56 76.7571 12.0869 72.7101 8.59238 67.8738C5.09781 63.0374 2.65992 57.5199 1.43714 51.6798C0.214354 45.8396 0.234034 39.8076 1.4949 33.9755L21.8567 38.3777C21.2134 41.3533 21.2034 44.4309 21.8273 47.4106C22.4511 50.3903 23.695 53.2054 25.4779 55.6729C27.2609 58.1405 29.5431 60.2053 32.1762 61.7332C34.8094 63.261 37.7345 64.2178 40.7616 64.5413C43.7886 64.8648 46.8499 64.5477 49.7464 63.6108C52.6429 62.6738 55.3099 61.1379 57.5741 59.1028C59.8382 57.0678 61.6488 54.5791 62.8882 51.7985C64.1277 49.0179 64.7682 46.0077 64.7682 42.9634H85.6005Z" fill="#325D56"/>
</svg>
