<svg width="146" height="50" viewBox="0 0 146 50" fill="none" xmlns="http://www.w3.org/2000/svg">
<path d="M14.6079 7.24726L1.63325 29.7118C-3.00278 37.7081 2.78447 47.7268 12.0254 47.7268H37.9747C47.2156 47.7268 53.0028 37.7081 48.3667 29.7118L35.3922 7.24726C30.7873 -0.749087 19.2439 -0.749087 14.6079 7.24726Z" fill="#7F52D9"/>
<path fill-rule="evenodd" clip-rule="evenodd" d="M8.60357 31.6102C6.86128 34.6284 7.88803 38.4871 10.9054 40.2302C13.9236 41.9717 17.7512 40.9449 19.5245 37.9268L31.1611 17.7961C32.9034 14.7779 31.8766 10.9192 28.8584 9.17771C25.8411 7.43462 21.9824 8.46137 20.2401 11.4795L8.60357 31.6102ZM42.2993 34.5027C42.2993 38.3868 39.1514 41.5355 35.2681 41.5355C31.3839 41.5355 28.236 38.3868 28.236 34.5027C28.236 30.6201 31.3839 27.4714 35.2681 27.4714C39.1514 27.4714 42.2993 30.6201 42.2993 34.5027Z" fill="white"/>
<path d="M74.4642 34.9424C72.6392 34.9424 71.0261 34.5184 69.6251 33.6704C68.2425 32.8224 67.164 31.6426 66.3898 30.131C65.6155 28.6193 65.2284 26.8588 65.2284 24.8494C65.2284 22.84 65.6155 21.0887 66.3898 19.5955C67.164 18.0838 68.2425 16.904 69.6251 16.056C71.0261 15.208 72.6392 14.784 74.4642 14.784C76.5105 14.784 78.271 15.3002 79.7458 16.3325C81.239 17.3464 82.3082 18.7475 82.9534 20.5357L79.5798 21.78C79.1743 20.6555 78.5291 19.7798 77.6442 19.153C76.7778 18.5263 75.7178 18.2129 74.4642 18.2129C73.3212 18.2129 72.3165 18.4802 71.4501 19.0148C70.6021 19.5494 69.9477 20.3144 69.4868 21.3099C69.0444 22.287 68.8232 23.4668 68.8232 24.8494C68.8232 26.232 69.0444 27.421 69.4868 28.4165C69.9477 29.412 70.6021 30.177 71.4501 30.7117C72.3165 31.2463 73.3212 31.5136 74.4642 31.5136C75.7178 31.5136 76.7778 31.2002 77.6442 30.5734C78.5291 29.9466 79.1743 29.071 79.5798 27.9464L82.9534 29.1631C82.3082 30.9513 81.239 32.3616 79.7458 33.3939C78.271 34.4263 76.5105 34.9424 74.4642 34.9424ZM93.6267 34.5L93.3502 32.4537V25.9002C93.3502 25.089 93.0921 24.4899 92.5759 24.1028C92.0782 23.6972 91.3961 23.4944 90.5297 23.4944C89.8107 23.4944 89.0733 23.6419 88.3175 23.9369C87.5801 24.2134 86.9257 24.6097 86.3542 25.1259L84.6121 22.7755C85.5707 22.0012 86.5478 21.4482 87.5432 21.1163C88.5572 20.7661 89.6448 20.591 90.8062 20.591C92.6865 20.591 94.1521 21.061 95.2029 22.0012C96.2537 22.9414 96.7791 24.241 96.7791 25.9002V34.5H93.6267ZM89.5065 34.7765C88.5111 34.7765 87.617 34.5922 86.8243 34.2235C86.05 33.8548 85.4325 33.3294 84.9716 32.6473C84.5292 31.9652 84.3079 31.1817 84.3079 30.2969C84.3079 29.5042 84.4646 28.8313 84.778 28.2783C85.1098 27.7068 85.5431 27.2736 86.0777 26.9786C86.5385 26.7021 87.0455 26.5085 87.5985 26.3979C88.17 26.2873 88.7784 26.232 89.4236 26.232H93.6544V28.776H89.9213C89.6264 28.776 89.3314 28.8037 89.0365 28.859C88.7599 28.8958 88.5203 28.9972 88.3175 29.1631C88.1332 29.2922 87.9949 29.4581 87.9027 29.6609C87.8105 29.8452 87.7645 30.0572 87.7645 30.2969C87.7645 30.813 87.9672 31.2278 88.3728 31.5412C88.7784 31.8546 89.3222 32.0113 90.0043 32.0113C90.6126 32.0113 91.1657 31.8823 91.6634 31.6242C92.1796 31.3477 92.5852 30.979 92.8801 30.5181C93.1935 30.0388 93.3502 29.495 93.3502 28.8866L94.2627 30.7117C94.0231 31.6703 93.6544 32.4537 93.1566 33.0621C92.6773 33.652 92.1243 34.0852 91.4975 34.3617C90.8707 34.6383 90.2071 34.7765 89.5065 34.7765ZM99.4309 34.5V20.8675H102.887V24.5729L102.362 24.6282C102.417 23.8355 102.657 23.135 103.081 22.5266C103.505 21.9183 104.021 21.4482 104.629 21.1163C105.256 20.7661 105.892 20.591 106.537 20.591C106.998 20.591 107.432 20.6555 107.837 20.7845C108.261 20.8951 108.694 21.0887 109.137 21.3652L107.478 24.4623C107.275 24.3517 107.017 24.2503 106.703 24.1581C106.39 24.0659 106.077 24.0198 105.763 24.0198C105.395 24.0198 105.035 24.0843 104.685 24.2134C104.353 24.3424 104.049 24.5452 103.772 24.8217C103.514 25.0983 103.302 25.467 103.136 25.9278C103.063 26.1859 102.998 26.5177 102.943 26.9233C102.906 27.3104 102.887 27.8819 102.887 28.6377V34.5H99.4309ZM115.093 34.7765C113.895 34.7765 112.863 34.4723 111.996 33.864C111.13 33.2372 110.457 32.3892 109.978 31.32C109.517 30.2323 109.286 29.0157 109.286 27.6699C109.286 26.1767 109.545 24.9047 110.061 23.8539C110.595 22.8031 111.305 22.0012 112.19 21.4482C113.075 20.8767 114.043 20.591 115.093 20.591C115.831 20.591 116.513 20.7477 117.14 21.061C117.785 21.356 118.338 21.8077 118.799 22.416C119.26 23.0243 119.564 23.7986 119.711 24.7388L119.02 24.5452V15.2264H122.421V34.5H119.02V30.8499L119.822 30.4628C119.601 31.532 119.241 32.3892 118.744 33.0344C118.264 33.6612 117.702 34.1129 117.057 34.3894C116.43 34.6475 115.776 34.7765 115.093 34.7765ZM116.034 31.6242C116.716 31.6242 117.296 31.4583 117.776 31.1264C118.273 30.7946 118.651 30.3337 118.909 29.7438C119.186 29.1539 119.324 28.4626 119.324 27.6699C119.324 26.8772 119.186 26.1859 118.909 25.596C118.651 25.0061 118.273 24.5544 117.776 24.241C117.296 23.9092 116.716 23.7433 116.034 23.7433C115.37 23.7433 114.789 23.9092 114.292 24.241C113.794 24.5544 113.407 25.0061 113.13 25.596C112.872 26.1675 112.743 26.8588 112.743 27.6699C112.743 28.481 112.872 29.1816 113.13 29.7715C113.407 30.3614 113.794 30.8223 114.292 31.1541C114.789 31.4675 115.37 31.6242 116.034 31.6242ZM128.428 34.7765C127.488 34.7765 126.713 34.4908 126.105 33.9193C125.497 33.3478 125.193 32.4445 125.193 31.2094V15.2264H128.594V30.5457C128.594 30.9329 128.686 31.2094 128.87 31.3753C129.055 31.5228 129.294 31.5965 129.589 31.5965C129.737 31.5965 129.893 31.5873 130.059 31.5689C130.225 31.532 130.4 31.4859 130.585 31.4306V34.3617C130.198 34.5092 129.81 34.6106 129.423 34.6659C129.055 34.7397 128.723 34.7765 128.428 34.7765ZM133.497 40.141L136.262 33.4492L131.119 20.8675H134.88L138.087 30.0203L141.35 20.8675H145.056L137.23 40.141H133.497Z" fill="#181818"/>
</svg>
