<svg width="37" height="36" viewBox="0 0 37 36" fill="none" xmlns="http://www.w3.org/2000/svg">
<path fill-rule="evenodd" clip-rule="evenodd" d="M5.41675 12.75C5.41675 11.9216 6.08832 11.25 6.91675 11.25L30.9167 11.25C31.7452 11.25 32.4167 11.9216 32.4167 12.75C32.4167 13.5784 31.7452 14.25 30.9167 14.25L6.91675 14.25C6.08832 14.25 5.41675 13.5784 5.41675 12.75Z" fill="white"/>
<path fill-rule="evenodd" clip-rule="evenodd" d="M5.41675 23.25C5.41675 22.4216 6.08832 21.75 6.91675 21.75L30.9167 21.75C31.7452 21.75 32.4167 22.4216 32.4167 23.25C32.4167 24.0784 31.7452 24.75 30.9167 24.75L6.91675 24.75C6.08832 24.75 5.41675 24.0784 5.41675 23.25Z" fill="white"/>
</svg>
