<svg xmlns="http://www.w3.org/2000/svg" width="37" height="36" viewBox="0 0 37 36" fill="none">
<path fill-rule="evenodd" clip-rule="evenodd" d="M5.01953 12.75C5.01953 11.9216 5.6911 11.25 6.51953 11.25L30.5195 11.25C31.348 11.25 32.0195 11.9216 32.0195 12.75C32.0195 13.5784 31.348 14.25 30.5195 14.25L6.51953 14.25C5.6911 14.25 5.01953 13.5784 5.01953 12.75Z" fill="#453F9C"/>
<path fill-rule="evenodd" clip-rule="evenodd" d="M5.01953 23.25C5.01953 22.4216 5.6911 21.75 6.51953 21.75L30.5195 21.75C31.348 21.75 32.0195 22.4216 32.0195 23.25C32.0195 24.0784 31.348 24.75 30.5195 24.75L6.51953 24.75C5.6911 24.75 5.01953 24.0784 5.01953 23.25Z" fill="#453F9C"/>
</svg>
