<svg width="60" height="60" viewBox="0 0 60 60" fill="none" xmlns="http://www.w3.org/2000/svg">
<circle cx="30" cy="30" r="30" fill="#F0F0FF"/>
<path d="M22.4974 35.534C23.0655 35.9263 23.208 36.7049 22.8157 37.2729C22.0877 38.3271 21.6355 39.048 21.4048 39.5934C21.1894 40.1027 21.2571 40.2461 21.2742 40.2823L21.2752 40.2845C21.2973 40.3318 21.3234 40.3781 21.3536 40.4229C21.3983 40.4893 21.5661 40.6926 22.4995 40.8149C23.4166 40.935 24.7098 40.9376 26.6031 40.9376H33.3976C35.2909 40.9376 36.584 40.935 37.5011 40.8149C38.4346 40.6926 38.6024 40.4893 38.6471 40.4229L38.7254 40.2844L38.7264 40.2823C38.7435 40.2461 38.8113 40.1027 38.5959 39.5934C38.3652 39.048 37.913 38.3271 37.185 37.2729C36.7927 36.7049 36.9352 35.9263 37.5033 35.534C38.0713 35.1417 38.8498 35.2842 39.2421 35.8523C39.9573 36.8878 40.5542 37.8057 40.8984 38.6196C41.2535 39.459 41.4296 40.4005 40.9914 41.3406C40.9138 41.507 40.8233 41.667 40.7208 41.8192C40.0473 42.8194 38.928 43.1493 37.8258 43.2937C36.7266 43.4377 35.2676 43.4377 33.4912 43.4376H26.5095C24.7331 43.4377 23.2741 43.4377 22.1748 43.2937C21.0727 43.1493 19.9533 42.8194 19.2799 41.8192C19.1774 41.667 19.0869 41.507 19.0093 41.3406C18.5711 40.4005 18.7472 39.459 19.1023 38.6196C19.4465 37.8057 20.0434 36.8878 20.7585 35.8523C21.1508 35.2842 21.9294 35.1417 22.4974 35.534Z" fill="#7F52D9"/>
<path fill-rule="evenodd" clip-rule="evenodd" d="M30.0007 16.5625C26.1871 16.5625 22.5651 18.8812 21.052 22.5197C19.6433 25.907 20.4091 28.7937 21.9909 31.2528C23.2819 33.2599 25.1656 35.0514 26.8461 36.6498L26.8462 36.6499L26.8465 36.6502C27.1657 36.9538 27.4776 37.2504 27.7767 37.5402L27.7788 37.5422C28.3754 38.1169 29.1722 38.4375 30.0007 38.4375C30.8291 38.4375 31.6259 38.1168 32.2226 37.5422C32.5057 37.2695 32.7999 36.9907 33.1007 36.7056C34.7992 35.0961 36.7088 33.2865 38.0133 31.254C39.5932 28.7924 40.3563 25.9029 38.9493 22.5197C37.4362 18.8812 33.8143 16.5625 30.0007 16.5625ZM30 22.5C27.9289 22.5 26.25 24.1789 26.25 26.25C26.25 28.3211 27.9289 30 30 30C32.0711 30 33.75 28.3211 33.75 26.25C33.75 24.1789 32.0711 22.5 30 22.5Z" fill="#7F52D9"/>
</svg>
