<svg width="62" height="62" viewBox="0 0 62 62" fill="none" xmlns="http://www.w3.org/2000/svg">
<circle cx="31" cy="31" r="30.5" fill="#D2F801" stroke="#15301F"/>
<path d="M20.722 30.9279C19.537 28.8616 18.9648 27.1743 18.6198 25.464C18.1095 22.9345 19.2773 20.4635 21.2117 18.8868C22.0293 18.2205 22.9665 18.4481 23.45 19.3155L24.5415 21.2736C25.4066 22.8257 25.8392 23.6017 25.7534 24.4245C25.6676 25.2472 25.0842 25.9173 23.9175 27.2575L20.722 30.9279ZM20.722 30.9279C23.1206 35.1103 26.8848 38.8766 31.0721 41.278M31.0721 41.278C33.1384 42.463 34.8257 43.0352 36.536 43.3802C39.0655 43.8905 41.5365 42.7227 43.1132 40.7883C43.7795 39.9707 43.5519 39.0335 42.6845 38.55L40.7264 37.4585C39.1743 36.5934 38.3983 36.1608 37.5755 36.2466C36.7528 36.3324 36.0827 36.9158 34.7425 38.0825L31.0721 41.278Z" stroke="#15301F" stroke-width="1.5" stroke-linejoin="round"/>
</svg>
