<svg width="60" height="60" viewBox="0 0 60 60" fill="none" xmlns="http://www.w3.org/2000/svg">
<circle cx="30" cy="30" r="30" fill="#F0F0FF"/>
<path d="M21.6466 16.6082C22.3549 16.7546 22.9191 17.2305 23.2695 17.8593L24.3861 19.8624C24.7973 20.6001 25.1434 21.221 25.3694 21.7607C25.6092 22.3332 25.7516 22.8978 25.6865 23.522C25.6214 24.1462 25.3656 24.6693 25.0129 25.18C24.6803 25.6615 24.2136 26.1976 23.659 26.8346L22.0177 28.7198C21.7236 29.0576 21.5766 29.2266 21.5631 29.4377C21.5497 29.6488 21.6702 29.8291 21.9113 30.1898C23.9657 33.2636 26.7347 36.0335 29.811 38.0898C30.1717 38.3308 30.352 38.4514 30.5631 38.4379C30.7743 38.4245 30.9432 38.2774 31.281 37.9833L33.1664 36.342C33.8034 35.7873 34.3395 35.3206 34.821 34.9881C35.3317 34.6354 35.8547 34.3795 36.4789 34.3145C37.1031 34.2494 37.6677 34.3918 38.2402 34.6315C38.7799 34.8575 39.4007 35.2036 40.1384 35.6148L42.1416 36.7314C42.7704 37.0819 43.2463 37.646 43.3927 38.3544C43.5407 39.0701 43.3225 39.7896 42.8405 40.3808C41.0919 42.5263 38.2903 43.8923 35.3513 43.2995C33.5447 42.935 31.7622 42.3279 29.6063 41.0915C25.2746 38.6073 21.3908 34.7213 18.9094 30.3946C17.673 28.2387 17.0659 26.4563 16.7015 24.6497C16.1086 21.7106 17.4746 18.909 19.6201 17.1604C20.2114 16.6785 20.9308 16.4603 21.6466 16.6082Z" fill="#7F52D9"/>
</svg>
