<svg width="62" height="62" viewBox="0 0 62 62" fill="none" xmlns="http://www.w3.org/2000/svg">
<circle cx="31" cy="31" r="30.5" fill="#D2F801" stroke="#15301F"/>
<path d="M18.5 23.5L27.1413 28.3962C30.327 30.2013 31.673 30.2013 34.8587 28.3962L43.5 23.5" stroke="#15301F" stroke-width="1.5" stroke-linejoin="round"/>
<path d="M18.5197 32.8445C18.6014 36.6764 18.6423 38.5924 20.0562 40.0117C21.4701 41.431 23.4379 41.4804 27.3735 41.5793C29.7991 41.6402 32.2009 41.6402 34.6265 41.5793C38.5621 41.4804 40.5299 41.431 41.9438 40.0117C43.3577 38.5924 43.3986 36.6764 43.4803 32.8445C43.5066 31.6124 43.5066 30.3876 43.4803 29.1555C43.3986 25.3236 43.3577 23.4076 41.9438 21.9883C40.5299 20.569 38.5621 20.5196 34.6265 20.4207C32.2009 20.3598 29.7991 20.3598 27.3735 20.4207C23.4379 20.5196 21.4701 20.569 20.0562 21.9883C18.6423 23.4076 18.6014 25.3236 18.5197 29.1555C18.4934 30.3876 18.4934 31.6124 18.5197 32.8445Z" stroke="#15301F" stroke-width="1.5" stroke-linejoin="round"/>
</svg>
