<svg width="60" height="60" viewBox="0 0 60 60" fill="none" xmlns="http://www.w3.org/2000/svg">
<circle cx="30" cy="30" r="30" fill="#F0F0FF"/>
<path fill-rule="evenodd" clip-rule="evenodd" d="M27.2501 17.9474C28.1843 17.4707 29.0466 17.1875 30.0014 17.1875C30.9563 17.1875 31.8185 17.4707 32.7527 17.9474C33.6563 18.4085 34.6967 19.0886 35.9993 19.9402L35.9993 19.9402L40.9038 23.1464C41.7752 23.7146 42.4698 24.1675 42.8804 24.8845C42.9342 24.9785 42.9611 25.0255 42.9716 25.0949C42.9834 25.1731 42.9618 25.2797 42.9204 25.347C42.8837 25.4069 42.8304 25.4475 42.7237 25.5286L41.9431 26.1223L36.6202 29.978C36.0316 30.4043 35.4974 30.7912 35.0039 31.1418C34.387 31.58 33.9001 31.8284 33.4087 31.9761C32.9129 32.125 32.3585 32.1877 31.5816 32.1877H28.4221C27.6452 32.1877 27.0908 32.125 26.5951 31.9761C26.1036 31.8284 25.6167 31.58 24.9998 31.1418C24.5063 30.7912 23.9721 30.4043 23.3835 29.978L18.0563 26.1192L17.2894 25.5497C17.1698 25.4609 17.11 25.4165 17.0712 25.3493C17.0354 25.2874 17.0152 25.1907 17.0232 25.1197C17.0319 25.0426 17.0621 24.9899 17.1225 24.8845C17.5331 24.1675 18.2276 23.7146 19.099 23.1464L24.0035 19.9402L24.0036 19.9402C25.3061 19.0886 26.3465 18.4085 27.2501 17.9474ZM37.7162 31.4968C37.1303 31.9212 36.5895 32.3129 36.0884 32.6689C35.3601 33.1862 34.6892 33.5473 33.9467 33.7703C33.2085 33.9921 32.4527 34.0612 31.5802 34.0612H28.4207C27.5482 34.0612 26.7924 33.9921 26.0542 33.7703C25.3117 33.5473 24.6408 33.1862 23.9125 32.6689C23.4113 32.3129 22.8705 31.9211 22.2846 31.4967L17.805 28.2524C17.291 27.8801 17.0339 27.694 16.8302 27.7965C16.6264 27.8989 16.6227 28.2163 16.6151 28.8509L16.5625 33.2816C16.6024 35.1145 16.6346 36.5963 16.8448 37.7905C17.0658 39.0463 17.4955 40.0689 18.3783 40.9439C19.2639 41.8218 20.3111 42.2463 21.5984 42.4675C22.829 42.679 24.3647 42.7169 26.2747 42.764L26.3468 42.7658C28.7895 42.8261 31.2105 42.8261 33.6532 42.7658L33.7254 42.764C35.6353 42.7169 37.171 42.679 38.4016 42.4675C39.6889 42.2463 40.7361 41.8218 41.6217 40.9439C42.5045 40.0689 42.9343 39.0463 43.1552 37.7905C43.3654 36.5964 43.3976 35.1146 43.4375 33.2817V33.2816L43.3849 28.851C43.3773 28.2163 43.3736 27.899 43.1698 27.7965C42.966 27.694 42.709 27.8802 42.195 28.2526L37.7162 31.4968Z" fill="#7F52D9"/>
</svg>
