<svg width="62" height="62" viewBox="0 0 62 62" fill="none" xmlns="http://www.w3.org/2000/svg">
<circle cx="31" cy="31" r="30.5" fill="#D2F801" stroke="#15301F"/>
<path d="M33.0222 42.7087C32.4801 43.2163 31.7555 43.5 31.0014 43.5C30.2473 43.5 29.5227 43.2163 28.9806 42.7087C24.0163 38.0325 17.3635 32.8086 20.6078 25.2246C22.362 21.1239 26.5729 18.5 31.0014 18.5C35.4299 18.5 39.6408 21.1239 41.395 25.2246C44.6352 32.7991 37.9988 38.0486 33.0222 42.7087Z" stroke="#15301F" stroke-width="1.5"/>
<path d="M35.375 29.75C35.375 32.1662 33.4162 34.125 31 34.125C28.5838 34.125 26.625 32.1662 26.625 29.75C26.625 27.3338 28.5838 25.375 31 25.375C33.4162 25.375 35.375 27.3338 35.375 29.75Z" stroke="#15301F" stroke-width="1.5"/>
</svg>
