<svg xmlns="http://www.w3.org/2000/svg" width="1440" height="332" viewBox="0 0 1440 332" fill="none">
<path d="M1416.14 3.41881L1404.95 1M1416.14 3.41881H1382.99M1416.14 3.41881L1427.69 5.9175M1416.14 3.41881H1439.61M1404.95 1L1409.02 1.00094L1413.05 1.00618L1416.99 1.02091L1420.81 1.04991L1424.47 1.09697L1427.92 1.16781L1431.12 1.26622L1434.1 1.39171L1436.65 1.56524L1438.97 1.76634L1439.61 1.83677V3.41881M1404.95 1H1372.33M1372.33 1H1339.72M1372.33 1L1382.99 3.41881M1339.72 1H1307.1M1339.72 1L1349.84 3.41881M1307.1 1H1274.48M1307.1 1L1316.69 3.41881M1274.48 1H1241.87M1274.48 1L1283.54 3.41881M1241.87 1H1209.25M1241.87 1L1250.39 3.41881M1209.25 1H1176.63M1209.25 1L1217.24 3.41881M1176.63 1H1144.02M1176.63 1L1184.09 3.41881M1144.02 1H1111.4M1144.02 1L1150.94 3.41881M1111.4 1H1078.78M1111.4 1L1117.79 3.41881M1078.78 1H1046.17M1078.78 1L1084.64 3.41881M1046.17 1H1013.55M1046.17 1L1051.49 3.41881M1013.55 1H980.933M1013.55 1L1014.73 1.59757L1016.53 2.50225L1018.34 3.41881M980.933 1H948.317M980.933 1L981.985 1.59757L985.194 3.41881M948.317 1H915.7M948.317 1L952.045 3.41881M915.7 1H883.083M915.7 1L916.886 1.89801L918.088 2.8065L918.491 3.11218L918.896 3.41881M883.083 1H850.467M883.083 1L884.072 1.89801L884.404 2.19942L884.738 2.50225L885.747 3.41881M850.467 1H817.85M850.467 1L852.598 3.41881M817.85 1L818.047 1.29807L818.244 1.59757L819.245 3.11218L819.448 3.41881M817.85 1H785.234M785.234 1H752.616M785.234 1L786.299 3.41881M752.616 1H720M752.616 1L752.814 1.89801L753.149 3.41881M720 1H687.384M720 1V3.41881M687.384 1H654.766M687.384 1L687.186 1.89801L686.851 3.41881M654.766 1H622.15M654.766 1L653.701 3.41881M622.15 1L621.953 1.29807L621.756 1.59757L620.755 3.11218L620.552 3.41881M622.15 1H589.534M589.534 1H556.916M589.534 1L587.673 3.11218L587.402 3.41881M556.916 1H524.3M556.916 1L555.928 1.89801L555.596 2.19942L554.927 2.8065L554.591 3.11218L554.253 3.41881M524.3 1H491.683M524.3 1L523.114 1.89801L521.913 2.8065L521.509 3.11218L521.104 3.41881M491.683 1H459.067M491.683 1L487.955 3.41881M459.067 1H426.45M459.067 1L458.015 1.59757L454.806 3.41881M426.45 1H393.833M426.45 1L421.656 3.41881M393.833 1H361.217M393.833 1L388.507 3.41881M361.217 1H328.6M361.217 1L355.357 3.41881M328.6 1H295.983M328.6 1L322.208 3.41881M295.983 1H263.367M295.983 1L289.059 3.41881M263.367 1H230.751M263.367 1L255.909 3.41881M230.751 1H198.133M230.751 1L222.76 3.41881M198.133 1H165.517M198.133 1L189.61 3.41881M165.517 1H132.9M165.517 1L156.461 3.41881M132.9 1H100.283M132.9 1L123.312 3.41881M100.283 1H67.6668M100.283 1L90.163 3.41881M67.6668 1H35.0504M67.6668 1L57.0136 3.41881M35.0504 1L30.9801 1.00094L26.9517 1.00618L23.0074 1.02091L19.1867 1.04991L15.5316 1.09697L12.0812 1.16781L8.87672 1.26622L5.90232 1.39171L3.34995 1.56524L1.0262 1.76634L0.387546 1.83679V3.41881M35.0504 1L23.8641 3.41881M90.163 3.41881H123.312M90.163 3.41881H57.0136M90.163 3.41881L79.7053 5.9175M123.312 3.41881L113.405 5.9175M123.312 3.41881H156.461M222.76 3.41881H255.909M222.76 3.41881H189.61M222.76 3.41881L220.722 4.03588L214.504 5.9175M255.909 3.41881L248.204 5.9175M255.909 3.41881H289.059M355.357 3.41881H388.507M355.357 3.41881H322.208M355.357 3.41881L353.863 4.03588L353.11 4.34584L349.303 5.9175M388.507 3.41881L387.828 3.72639L387.148 4.03588L383.003 5.9175M388.507 3.41881H421.656M487.955 3.41881L487.48 3.72639L484.102 5.9175M487.955 3.41881H521.104M487.955 3.41881H454.806M521.104 3.41881L520.289 4.03588L519.878 4.34584L519.467 4.6577L517.802 5.9175M521.104 3.41881H554.253M620.552 3.41881H653.701M620.552 3.41881H587.402M620.552 3.41881L618.901 5.9175M653.701 3.41881L653.566 3.72639L653.43 4.03588L653.293 4.34584L652.879 5.28475L652.601 5.9175M653.701 3.41881H686.851M753.149 3.41881H786.299M753.149 3.41881H720M753.149 3.41881L753.7 5.9175M786.299 3.41881L786.434 3.72639L786.57 4.03588L786.707 4.34584L787.399 5.9175M786.299 3.41881H819.448M885.747 3.41881H918.896M885.747 3.41881H852.598M885.747 3.41881L886.426 4.03588L887.802 5.28475L888.149 5.60041L888.499 5.9175M918.896 3.41881L919.711 4.03588L920.122 4.34584L920.534 4.6577L922.198 5.9175M918.896 3.41881H952.045M1018.34 3.41881H1051.49M1018.34 3.41881H985.194M1018.34 3.41881L1019.57 4.03588L1020.18 4.34584L1023.3 5.9175M1051.49 3.41881L1052.17 3.72639L1052.85 4.03588L1057 5.9175M1051.49 3.41881H1084.64M1150.94 3.41881H1184.09M1150.94 3.41881H1117.79M1150.94 3.41881L1152.71 4.03588L1153.6 4.34584L1158.1 5.9175M1184.09 3.41881L1191.8 5.9175M1184.09 3.41881H1217.24M1283.54 3.41881H1316.69M1283.54 3.41881H1250.39M1283.54 3.41881L1292.89 5.9175M1316.69 3.41881L1326.6 5.9175M1316.69 3.41881H1349.84M0.271359 26.0382H0.387546M33.6366 26.0382L46.2928 22.8459M33.6366 26.0382L20.4955 29.3526M33.6366 26.0382H71.7679M33.6366 26.0382H0.387546M46.2928 22.8459H8.86473M46.2928 22.8459L58.491 19.7691M46.2928 22.8459H83.7209M8.86473 22.8459L21.7405 19.7691M8.86473 22.8459H0.387546M8.86473 22.8459L0.387546 24.8711M46.1414 13.9379H81.6078M46.1414 13.9379L57.7137 11.1725M46.1414 13.9379H10.6758M46.1414 13.9379L34.1576 16.8017M81.6078 13.9379L92.5714 11.1725M81.6078 13.9379L70.2552 16.8017M81.6078 13.9379H117.074M57.7137 11.1725H92.5714M57.7137 11.1725L68.8954 8.5008M57.7137 11.1725H22.8567M92.5714 11.1725H127.428M92.5714 11.1725L103.164 8.5008M0.0224927 76.4254H0.387546M30.7904 76.4254L47.1106 71.1328M30.7904 76.4254L13.6591 81.9814M30.7904 76.4254H80.0202M30.7904 76.4254H0.387546M47.1106 71.1328L62.676 66.0851M47.1106 71.1328H95.174M47.1106 71.1328H0.387546M15.7243 66.0851H62.676M15.7243 66.0851L31.6472 61.2655M15.7243 66.0851H0.387546M15.7243 66.0851L0.387546 70.7272M46.8655 56.6589H91.7409M46.8655 56.6589L61.4257 52.252M46.8655 56.6589H1.99018M46.8655 56.6589L31.6472 61.2655M91.7409 56.6589L105.331 52.252M91.7409 56.6589L77.5368 61.2655M91.7409 56.6589H136.617M61.4257 52.252H105.331M61.4257 52.252H17.5211M61.4257 52.252L75.3697 48.0314M105.331 52.252L118.345 48.0314M105.331 52.252H149.236M101.558 40.1047H142.787M101.558 40.1047L113.87 36.3781M101.558 40.1047H60.3283M101.558 40.1047L88.735 43.9858M142.787 40.1047L154.278 36.3781M142.787 40.1047L130.82 43.9858M142.787 40.1047H184.017M113.87 36.3781H154.278M113.87 36.3781H73.4612M113.87 36.3781L125.701 32.7969M154.278 36.3781L165.321 32.7969M154.278 36.3781H194.687M148.03 26.0382H186.162M148.03 26.0382L158.577 22.8459M148.03 26.0382H109.899M148.03 26.0382L137.079 29.3526M186.162 26.0382L196.005 22.8459M186.162 26.0382L175.941 29.3526M186.162 26.0382H224.293M158.577 22.8459H196.005M158.577 22.8459H121.149M158.577 22.8459L168.742 19.7691M196.005 22.8459L205.493 19.7691M196.005 22.8459H233.433M188.006 13.9379H223.473M188.006 13.9379L197.142 11.1725M188.006 13.9379H152.541M188.006 13.9379L178.546 16.8017M223.473 13.9379L231.999 11.1725M223.473 13.9379L214.642 16.8017M223.473 13.9379H258.939M197.142 11.1725H231.999M197.142 11.1725L205.97 8.5008M197.142 11.1725H162.285M231.999 11.1725H266.857M231.999 11.1725L240.239 8.5008M25.6092 168.184L48.5784 157.755M25.6092 168.184L1.01196 179.351M25.6092 168.184H95.0481M25.6092 168.184H0.387546M48.5784 157.755L70.0775 147.994M48.5784 157.755H115.72M48.5784 157.755H0.387546M48.1121 130.234H109.193M48.1121 130.234L67.7403 122.133M48.1121 130.234L27.2658 138.839M48.1121 130.234H0.387546M109.193 130.234L127.036 122.133M109.193 130.234L90.2417 138.839M109.193 130.234H170.274M67.7403 122.133H127.036M67.7403 122.133H8.44421M67.7403 122.133L86.2546 114.491M127.036 122.133L143.868 114.491M127.036 122.133H186.333M120.298 100.439H174.817M120.298 100.439L135.985 93.9647M120.298 100.439H65.7801M120.298 100.439L103.746 107.272M174.817 100.439L189.077 93.9647M174.817 100.439L159.769 107.272M174.817 100.439H229.335M135.985 93.9647H189.077M135.985 93.9647H82.8926M135.985 93.9647L150.871 87.8202M189.077 93.9647L202.611 87.8202M189.077 93.9647H242.169M178.478 76.4254H227.708M178.478 76.4254L191.301 71.1328M178.478 76.4254H129.249M178.478 76.4254L165.018 81.9814M227.708 76.4254L239.365 71.1328M227.708 76.4254L215.471 81.9814M227.708 76.4254H276.937M191.301 71.1328H239.365M191.301 71.1328H143.238M191.301 71.1328L203.531 66.0851M239.365 71.1328L250.483 66.0851M239.365 71.1328H287.428M226.368 56.6589H271.244M226.368 56.6589L237.046 52.252M226.368 56.6589H181.492M226.368 56.6589L215.208 61.2655M271.244 56.6589L280.951 52.252M271.244 56.6589L261.098 61.2655M271.244 56.6589H316.119M237.046 52.252H280.951M237.046 52.252H193.141M237.046 52.252L247.271 48.0314M280.951 52.252L290.247 48.0314M280.951 52.252H324.856M266.476 40.1047H307.705M266.476 40.1047L275.504 36.3781M266.476 40.1047H225.246M266.476 40.1047L257.073 43.9858M307.705 40.1047L308.75 39.6307L315.913 36.3781M307.705 40.1047L299.157 43.9858M307.705 40.1047H348.935M275.504 36.3781H315.913M275.504 36.3781H235.096M275.504 36.3781L284.181 32.7969M315.913 36.3781L323.801 32.7969M315.913 36.3781H356.322M300.555 26.0382H338.687M300.555 26.0382L308.29 22.8459M300.555 26.0382H262.424M300.555 26.0382L292.525 29.3526M338.687 26.0382L345.718 22.8459M338.687 26.0382L335.982 27.2666L331.386 29.3526M338.687 26.0382H376.818M308.29 22.8459H345.718M308.29 22.8459H270.862M308.29 22.8459L315.744 19.7691M345.718 22.8459L352.495 19.7691M345.718 22.8459H383.146M329.871 13.9379H365.338M329.871 13.9379L336.571 11.1725M329.871 13.9379H294.405M329.871 13.9379L322.934 16.8017M365.338 13.9379L369.926 11.8552L370.678 11.5129L371.429 11.1725M365.338 13.9379L359.03 16.8017M365.338 13.9379H400.804M336.571 11.1725H371.429M336.571 11.1725L343.045 8.5008M336.571 11.1725H301.714M371.429 11.1725H406.286M371.429 11.1725L377.313 8.5008M50.7679 286.981H146.373M50.7679 286.981L80.8717 267.456M50.7679 286.981L17.6882 308.437M50.7679 286.981L0.387546 286.982M146.373 286.981L172.176 267.456M146.373 286.981L118.019 308.437M146.373 286.981H241.977M80.8717 267.456H172.176M80.8717 267.456L108.384 249.611M80.8717 267.456H0.387546M172.176 267.456L195.758 249.611M172.176 267.456H263.48M156.866 218.166H237.314M156.866 218.166L178.334 204.241M156.866 218.166H76.4183M156.866 218.166L133.625 233.24M237.314 218.166L255.715 204.241M237.314 218.166L217.393 233.24M237.314 218.166H317.761M178.334 204.241H255.715M178.334 204.241H100.953M178.334 204.241L198.226 191.339M255.715 204.241L272.765 191.339M255.715 204.241H333.096M233.927 168.184H303.365M233.927 168.184L250.005 157.755M233.927 168.184H164.487M233.927 168.184L216.708 179.351M303.365 168.184L317.147 157.755M303.365 168.184L288.607 179.351M303.365 168.184H372.804M250.005 157.755H317.147M250.005 157.755H182.863M250.005 157.755L265.054 147.994M317.147 157.755L330.047 147.994M317.147 157.755H384.29M292.435 130.234H353.516M292.435 130.234L304.926 122.133M292.435 130.234H231.355M292.435 130.234L279.169 138.839M353.516 130.234L364.222 122.133M353.516 130.234L342.145 138.839M353.516 130.234H414.597M304.926 122.133H364.222M304.926 122.133H245.629M304.926 122.133L316.707 114.491M364.222 122.133L374.321 114.491M364.222 122.133H423.518M338.372 100.439H392.89M338.372 100.439L348.354 93.9647M338.372 100.439H283.853M338.372 100.439L327.838 107.272M392.89 100.439L401.446 93.9647M392.89 100.439L383.862 107.272M392.89 100.439H447.409M348.354 93.9647H401.446M348.354 93.9647H295.262M348.354 93.9647L357.827 87.8202M401.446 93.9647L409.566 87.8202M401.446 93.9647H454.539M375.396 76.4254H424.625M375.396 76.4254L383.556 71.1328M375.396 76.4254H326.166M375.396 76.4254L366.83 81.9814M424.625 76.4254L431.619 71.1328M424.625 76.4254L417.282 81.9814M424.625 76.4254H473.854M383.556 71.1328H431.619M383.556 71.1328H335.492M383.556 71.1328L391.338 66.0851M431.619 71.1328L438.29 66.0851M431.619 71.1328H479.682M405.87 56.6589H450.747M405.87 56.6589L412.666 52.252M405.87 56.6589H360.995M405.87 56.6589L398.769 61.2655M450.747 56.6589L456.57 52.252M450.747 56.6589L444.659 61.2655M450.747 56.6589H495.622M412.666 52.252H456.57M412.666 52.252H368.76M412.666 52.252L419.173 48.0314M456.57 52.252L462.148 48.0314M456.57 52.252H500.476M431.393 40.1047H472.624M431.393 40.1047L437.139 36.3781M431.393 40.1047H390.164M431.393 40.1047L425.409 43.9858M472.624 40.1047L471.993 40.581L467.494 43.9858M472.624 40.1047L477.548 36.3781M472.624 40.1047H513.853M437.139 36.3781H477.548M437.139 36.3781H396.731M437.139 36.3781L442.661 32.7969M477.548 36.3781L482.281 32.7969M477.548 36.3781H517.957M453.081 26.0382H491.212M453.081 26.0382L458.003 22.8459M453.081 26.0382H414.95M453.081 26.0382L447.971 29.3526M491.212 26.0382L495.431 22.8459M491.212 26.0382L489.589 27.2666L488.494 28.0952L486.832 29.3526M491.212 26.0382H529.343M458.003 22.8459H495.431M458.003 22.8459H420.575M458.003 22.8459L462.746 19.7691M495.431 22.8459L496.973 21.6788L497.99 20.9096L499.497 19.7691M495.431 22.8459H532.859M471.737 13.9379H507.202M471.737 13.9379L474.948 11.8552L476 11.1725M471.737 13.9379H436.27M471.737 13.9379L467.882 16.438L467.322 16.8017M507.202 13.9379L509.956 11.8552L510.407 11.5129L510.857 11.1725M507.202 13.9379L505.327 15.357L503.418 16.8017M507.202 13.9379H542.669M476 11.1725H510.857M476 11.1725L480.119 8.5008M476 11.1725H441.143M510.857 11.1725H545.714M510.857 11.1725L514.388 8.5008M433.186 286.981H528.791M433.186 286.981L446.088 267.456M433.186 286.981H337.582M433.186 286.981L419.009 308.437M528.791 286.981L537.392 267.456M528.791 286.981L519.34 308.437M528.791 286.981H624.396M446.088 267.456H537.392M446.088 267.456H354.784M446.088 267.456L457.879 249.611M537.392 267.456L545.253 249.611M537.392 267.456H628.696M478.657 218.166H559.104M478.657 218.166L487.858 204.241M478.657 218.166H398.209M478.657 218.166L468.696 233.24M559.104 218.166L565.238 204.241M559.104 218.166L552.465 233.24M559.104 218.166H639.553M487.858 204.241H565.238M487.858 204.241H410.477M487.858 204.241L496.383 191.339M565.238 204.241L570.922 191.339M565.238 204.241H642.619M511.683 168.184H581.122M511.683 168.184L518.574 157.755M511.683 168.184H442.244M511.683 168.184L504.304 179.351M581.122 168.184L585.716 157.755M581.122 168.184L576.203 179.351M581.122 168.184H650.561M518.574 157.755H585.716M518.574 157.755H451.432M518.574 157.755L525.023 147.994M585.716 157.755L590.016 147.994M585.716 157.755H652.858M536.758 130.234H597.838M536.758 130.234L542.111 122.133M536.758 130.234H475.677M536.758 130.234L531.073 138.839M597.838 130.234L601.407 122.133M597.838 130.234L594.048 138.839M597.838 130.234H658.919M542.111 122.133H601.407M542.111 122.133H482.815M542.111 122.133L547.16 114.491M601.407 122.133L604.774 114.491M601.407 122.133H660.704M556.445 100.439H610.964M556.445 100.439L560.723 93.9647M556.445 100.439H501.927M556.445 100.439L551.931 107.272M610.964 100.439L613.815 93.9647M610.964 100.439L607.954 107.272M610.964 100.439H665.482M560.723 93.9647H613.815M560.723 93.9647H507.631M560.723 93.9647L564.783 87.8202M613.815 93.9647L616.522 87.8202M613.815 93.9647H666.908M572.312 76.4254H621.541M572.312 76.4254L575.809 71.1328M572.312 76.4254H523.083M572.312 76.4254L568.642 81.9814M621.541 76.4254L623.873 71.1328M621.541 76.4254L619.094 81.9814M621.541 76.4254H670.771M575.809 71.1328H623.873M575.809 71.1328H527.746M575.809 71.1328L577.079 69.2123L579.145 66.0851M623.873 71.1328L626.097 66.0851M623.873 71.1328H671.937M585.373 56.6589H630.249M585.373 56.6589L588.285 52.252M585.373 56.6589H540.497M585.373 56.6589L583.104 60.0946L582.329 61.2655M630.249 56.6589L630.987 54.9836L632.19 52.252M630.249 56.6589L628.219 61.2655M630.249 56.6589H675.125M588.285 52.252L588.64 51.7143L591.074 48.0314M588.285 52.252H632.19M588.285 52.252H544.38M632.19 52.252L632.897 50.648L633.129 50.1189L633.362 49.5931L634.049 48.0314M632.19 52.252H676.095M596.311 40.1047H637.541M596.311 40.1047L597.555 38.2226L597.862 37.7581L598.167 37.2956L598.472 36.8359L598.774 36.3781M596.311 40.1047H555.082M596.311 40.1047L593.747 43.9858M637.541 40.1047L638.778 37.2956L638.981 36.8359L639.182 36.3781M637.541 40.1047L635.832 43.9858M637.541 40.1047H678.771M598.774 36.3781H639.182M598.774 36.3781H558.365M598.774 36.3781L600.264 34.1232L600.557 33.6787L601.14 32.7969M639.182 36.3781L640.176 34.1232L640.372 33.6787L640.566 33.2366L640.76 32.7969M639.182 36.3781H679.592M605.606 26.0382H643.738M605.606 26.0382L607.716 22.8459M605.606 26.0382H567.474M605.606 26.0382L605.066 26.8549L604.247 28.0952L603.416 29.3526M643.738 26.0382L643.558 26.4456L642.463 28.9314L642.277 29.3526M643.738 26.0382L645.144 22.8459M643.738 26.0382H681.869M607.716 22.8459H645.144M607.716 22.8459H570.288M607.716 22.8459L609.749 19.7691M645.144 22.8459L645.658 21.6788L645.827 21.2932L645.997 20.9096L646.499 19.7691M645.144 22.8459H682.572M613.602 13.9379H649.067M613.602 13.9379L614.978 11.8552L615.428 11.1725M613.602 13.9379H578.135M613.602 13.9379L612.899 14.9999L612.664 15.357L612.426 15.7159L611.709 16.8017M649.067 13.9379L649.222 13.5871L649.529 12.8897L649.834 12.1984L650.285 11.1725M649.067 13.9379L648.442 15.357L648.285 15.7159L647.966 16.438L647.806 16.8017M649.067 13.9379H684.534M615.428 11.1725H650.285M615.428 11.1725L616.976 8.82978L617.194 8.5008M615.428 11.1725H580.571M650.285 11.1725L650.435 10.8336L650.584 10.496L650.732 10.1599L650.879 9.82526L651.318 8.82978L651.463 8.5008M650.285 11.1725H685.143M815.604 286.981H911.209M815.604 286.981L811.304 267.456M815.604 286.981H720M815.604 286.981L820.33 308.437M911.209 286.981L902.608 267.456M911.209 286.981L920.66 308.437M911.209 286.981H1006.81M811.304 267.456H902.608M811.304 267.456H720M811.304 267.456L807.374 249.611M902.608 267.456L894.747 249.611M902.608 267.456H993.912M800.447 218.166H880.896M800.447 218.166L797.381 204.241M800.447 218.166H720M800.447 218.166L803.768 233.24M880.896 218.166L874.762 204.241M880.896 218.166L887.536 233.24M880.896 218.166H961.343M797.381 204.241H874.762M797.381 204.241H720M797.381 204.241L794.539 191.339M874.762 204.241L869.078 191.339M874.762 204.241H952.142M789.439 168.184H858.878M789.439 168.184L787.142 157.755M789.439 168.184H720M789.439 168.184L791.899 179.351M858.878 168.184L854.284 157.755M858.878 168.184L863.797 179.351M858.878 168.184H928.317M787.142 157.755H854.284M787.142 157.755H720M787.142 157.755L784.992 147.994M854.284 157.755L849.985 147.994M854.284 157.755H921.426M781.081 130.234H842.162M781.081 130.234L779.296 122.133M781.081 130.234H720M781.081 130.234L782.976 138.839M842.162 130.234L838.593 122.133M842.162 130.234L845.952 138.839M842.162 130.234H903.242M779.296 122.133H838.593M779.296 122.133H720M779.296 122.133L777.613 114.491M838.593 122.133L835.226 114.491M838.593 122.133H897.889M774.518 100.439H829.036M774.518 100.439L773.092 93.9647M774.518 100.439H720M774.518 100.439L776.023 107.272M829.036 100.439L826.185 93.9647M829.036 100.439L832.046 107.272M829.036 100.439H883.555M773.092 93.9647H826.185M773.092 93.9647H720M773.092 93.9647L771.739 87.8202M826.185 93.9647L823.478 87.8202M826.185 93.9647H879.277M769.229 76.4254H818.459M769.229 76.4254L768.063 71.1328M769.229 76.4254H720M769.229 76.4254L770.453 81.9814M818.459 76.4254L816.127 71.1328M818.459 76.4254L820.906 81.9814M818.459 76.4254H867.688M768.063 71.1328H816.127M768.063 71.1328H720M768.063 71.1328L766.952 66.0851M816.127 71.1328L813.903 66.0851M816.127 71.1328H864.191M764.875 56.6589H809.751M764.875 56.6589L763.905 52.252M764.875 56.6589H720M764.875 56.6589L765.89 61.2655M809.751 56.6589L808.048 52.7925L807.81 52.252M809.751 56.6589L811.781 61.2655M809.751 56.6589H854.627M763.905 52.252L763.787 51.7143L762.975 48.0314M763.905 52.252H807.81M763.905 52.252H720M807.81 52.252L807.103 50.648L806.871 50.1189L806.638 49.5931L805.951 48.0314M807.81 52.252H851.715M761.229 40.1047H802.459M761.229 40.1047L760.409 36.3781M761.229 40.1047H720M761.229 40.1047L761.546 41.5413L761.653 42.0253L761.759 42.5116L761.975 43.4919L762.085 43.9858M802.459 40.1047L801.222 37.2956L800.817 36.3781M802.459 40.1047L804.168 43.9858M802.459 40.1047H843.689M760.409 36.3781H800.817M760.409 36.3781H720M760.409 36.3781L759.62 32.7969M800.817 36.3781L799.825 34.1232L799.628 33.6787L799.434 33.2366L799.24 32.7969M800.817 36.3781H841.226M758.131 26.0382H796.262M758.131 26.0382L757.428 22.8459M758.131 26.0382H720M758.131 26.0382L758.861 29.3526M796.262 26.0382L796.442 26.4456L797.537 28.9314L797.723 29.3526M796.262 26.0382L794.856 22.8459M796.262 26.0382H834.394M757.428 22.8459H794.856M757.428 22.8459H720M757.428 22.8459L756.751 19.7691M794.856 22.8459L794.342 21.6788L794.173 21.2932L794.003 20.9096L793.501 19.7691M794.856 22.8459H832.284M755.467 13.9379H790.933M755.467 13.9379L754.857 11.1725M755.467 13.9379H720M755.467 13.9379L756.097 16.8017M790.933 13.9379L790.778 13.5871L790.47 12.8897L790.318 12.5431L790.015 11.8552L789.865 11.5129L789.714 11.1725M790.933 13.9379L791.558 15.357L791.715 15.7159L792.034 16.438L792.194 16.8017M790.933 13.9379H826.399M754.857 11.1725L754.783 10.8336L754.708 10.496L754.634 10.1599L754.269 8.5008M754.857 11.1725H789.714M754.857 11.1725H720M789.714 11.1725H824.572M789.714 11.1725L789.416 10.496L789.268 10.1599L789.121 9.82526L788.683 8.82978L788.537 8.5008M1198.02 286.981H1293.63M1198.02 286.981L1176.52 267.456M1198.02 286.981H1102.42M1198.02 286.981L1221.65 308.437M1293.63 286.981L1267.82 267.456M1293.63 286.981L1321.98 308.437M1293.63 286.981H1389.23M1176.52 267.456H1267.82M1176.52 267.456H1085.22M1176.52 267.456L1156.87 249.611M1267.82 267.456L1244.24 249.611M1267.82 267.456H1359.13M1122.24 218.166H1202.69M1122.24 218.166L1106.9 204.241M1122.24 218.166H1041.79M1122.24 218.166L1138.84 233.24M1202.69 218.166L1184.29 204.241M1202.69 218.166L1222.61 233.24M1202.69 218.166H1283.13M1106.9 204.241H1184.29M1106.9 204.241H1029.52M1106.9 204.241L1092.7 191.339M1184.29 204.241L1167.23 191.339M1184.29 204.241H1261.67M1067.2 168.184H1136.63M1067.2 168.184L1055.71 157.755M1067.2 168.184H997.756M1067.2 168.184L1079.49 179.351M1136.63 168.184L1122.85 157.755M1136.63 168.184L1151.39 179.351M1136.63 168.184H1206.07M1055.71 157.755H1122.85M1055.71 157.755H988.568M1055.71 157.755L1044.96 147.994M1122.85 157.755L1109.95 147.994M1122.85 157.755H1189.99M1025.4 130.234H1086.48M1025.4 130.234L1016.48 122.133M1025.4 130.234H964.323M1025.4 130.234L1034.88 138.839M1086.48 130.234L1075.78 122.133M1086.48 130.234L1097.86 138.839M1086.48 130.234H1147.57M1016.48 122.133H1075.78M1016.48 122.133H957.185M1016.48 122.133L1008.07 114.491M1075.78 122.133L1065.68 114.491M1075.78 122.133H1135.07M992.591 100.439H1047.11M992.591 100.439L985.461 93.9647M992.591 100.439H938.073M992.591 100.439L1000.12 107.272M1047.11 100.439L1038.55 93.9647M1047.11 100.439L1056.14 107.272M1047.11 100.439H1101.63M985.461 93.9647H1038.55M985.461 93.9647H932.369M985.461 93.9647L978.695 87.8202M1038.55 93.9647L1030.43 87.8202M1038.55 93.9647H1091.65M966.146 76.4254H1015.38M966.146 76.4254L960.318 71.1328M966.146 76.4254H916.917M966.146 76.4254L972.265 81.9814M1015.38 76.4254L1008.38 71.1328M1015.38 76.4254L1022.72 81.9814M1015.38 76.4254H1064.6M960.318 71.1328H1008.38M960.318 71.1328H912.254M960.318 71.1328L954.759 66.0851M1008.38 71.1328L1001.71 66.0851M1008.38 71.1328H1056.44M944.378 56.6589L945 57.2237L945.626 57.7913L949.451 61.2655M944.378 56.6589H989.254M944.378 56.6589L939.525 52.252M944.378 56.6589H899.503M989.254 56.6589L983.43 52.252M989.254 56.6589L995.341 61.2655M989.254 56.6589H1034.13M939.525 52.252H983.43M939.525 52.252H895.62M939.525 52.252L934.877 48.0314M983.43 52.252L977.852 48.0314M983.43 52.252H1027.33M926.147 40.1047H967.377M926.147 40.1047L922.043 36.3781M926.147 40.1047H884.918M926.147 40.1047L930.421 43.9858M967.377 40.1047L964.275 37.7581L962.452 36.3781M967.377 40.1047L972.506 43.9858M967.377 40.1047H1008.61M922.043 36.3781H962.452M922.043 36.3781H881.635M922.043 36.3781L918.585 33.2366L918.1 32.7969M962.452 36.3781L957.72 32.7969M962.452 36.3781H1002.86M910.657 26.0382H948.788M910.657 26.0382L909.766 25.2286L907.141 22.8459M910.657 26.0382H872.526M910.657 26.0382L911.556 26.8549L913.382 28.5121L914.307 29.3526M948.788 26.0382L944.569 22.8459M948.788 26.0382L950.411 27.2666L951.506 28.0952L953.168 29.3526M948.788 26.0382H986.919M907.141 22.8459H944.569M907.141 22.8459H869.712M907.141 22.8459L904.588 20.5274L903.752 19.7691M944.569 22.8459L943.027 21.6788L942.01 20.9096L940.503 19.7691M944.569 22.8459H981.997M897.331 13.9379H932.798M897.331 13.9379L895.415 12.1984L894.286 11.1725M897.331 13.9379H861.865M897.331 13.9379L900.485 16.8017M932.798 13.9379L930.044 11.8552L929.593 11.5129L929.143 11.1725M932.798 13.9379L934.673 15.357L936.582 16.8017M932.798 13.9379H968.263M894.286 11.1725H929.143M894.286 11.1725L892.802 9.82526L892.07 9.16017L891.706 8.82978L891.344 8.5008M894.286 11.1725H859.429M929.143 11.1725H964M929.143 11.1725L925.612 8.5008M1416.43 204.241H1339.05M1416.43 204.241L1390.85 191.339M1416.43 204.241H1439.61M1416.43 204.241L1439.61 215.937M1344.95 168.184H1414.39M1344.95 168.184L1324.28 157.755M1344.95 168.184H1275.51M1344.95 168.184L1367.09 179.351M1414.39 168.184L1391.42 157.755M1414.39 168.184L1438.99 179.351M1414.39 168.184H1439.61M1324.28 157.755H1391.42M1324.28 157.755H1257.14M1324.28 157.755L1304.93 147.994M1391.42 157.755L1369.92 147.994M1391.42 157.755H1439.61M1269.73 130.234H1330.81M1269.73 130.234L1253.67 122.133M1269.73 130.234H1208.65M1269.73 130.234L1286.78 138.839M1330.81 130.234L1312.96 122.133M1330.81 130.234L1349.76 138.839M1330.81 130.234H1391.89M1253.67 122.133H1312.96M1253.67 122.133H1194.37M1253.67 122.133L1238.52 114.491M1312.96 122.133L1296.13 114.491M1312.96 122.133H1372.26M1210.66 100.439H1265.18M1210.66 100.439L1197.83 93.9647M1210.66 100.439H1156.15M1210.66 100.439L1224.21 107.272M1265.18 100.439L1250.92 93.9647M1265.18 100.439L1280.23 107.272M1265.18 100.439H1319.7M1197.83 93.9647H1250.92M1197.83 93.9647H1144.74M1197.83 93.9647L1185.65 87.8202M1250.92 93.9647L1237.39 87.8202M1250.92 93.9647H1304.02M1163.06 76.4254H1212.29M1163.06 76.4254L1152.57 71.1328M1163.06 76.4254H1113.83M1163.06 76.4254L1174.08 81.9814M1212.29 76.4254L1200.64 71.1328M1212.29 76.4254L1224.53 81.9814M1212.29 76.4254H1261.52M1152.57 71.1328H1200.64M1152.57 71.1328H1104.51M1152.57 71.1328L1142.57 66.0851M1200.64 71.1328L1189.52 66.0851M1200.64 71.1328H1248.7M1123.88 56.6589H1168.76M1123.88 56.6589L1115.14 52.252M1123.88 56.6589H1079M1123.88 56.6589L1133.01 61.2655M1168.76 56.6589L1159.05 52.252M1168.76 56.6589L1178.9 61.2655M1168.76 56.6589H1213.63M1115.14 52.252H1159.05M1115.14 52.252H1071.24M1115.14 52.252L1106.78 48.0314M1159.05 52.252L1149.75 48.0314M1159.05 52.252H1202.95M1091.07 40.1047H1132.29M1091.07 40.1047L1083.68 36.3781M1091.07 40.1047H1049.84M1091.07 40.1047L1098.76 43.9858M1132.29 40.1047L1124.09 36.3781M1132.29 40.1047L1140.84 43.9858M1132.29 40.1047H1173.52M1083.68 36.3781H1124.09M1083.68 36.3781H1043.27M1083.68 36.3781L1076.58 32.7969M1124.09 36.3781L1116.2 32.7969M1124.09 36.3781H1164.5M1063.18 26.0382H1101.31M1063.18 26.0382L1056.85 22.8459M1063.18 26.0382H1025.05M1063.18 26.0382L1064.8 26.8549L1065.62 27.2666L1069.75 29.3526M1101.31 26.0382L1094.28 22.8459M1101.31 26.0382L1108.61 29.3526M1101.31 26.0382H1139.44M1056.85 22.8459H1094.28M1056.85 22.8459H1019.43M1056.85 22.8459L1050.75 19.7691M1094.28 22.8459L1087.51 19.7691M1094.28 22.8459H1131.71M1039.2 13.9379H1074.66M1039.2 13.9379L1033.71 11.1725M1039.2 13.9379H1003.73M1039.2 13.9379L1044.87 16.8017M1074.66 13.9379L1070.07 11.8552L1069.32 11.5129L1068.57 11.1725M1074.66 13.9379L1080.97 16.8017M1074.66 13.9379H1110.13M1033.71 11.1725H1068.57M1033.71 11.1725L1029.07 8.82978L1028.42 8.5008M1033.71 11.1725H998.857M1068.57 11.1725H1103.43M1068.57 11.1725L1062.69 8.5008M1428.74 100.439L1410.2 93.9647M1428.74 100.439H1374.22M1428.74 100.439L1439.61 104.237M1428.74 100.439H1439.61M1410.2 93.9647H1357.11M1410.2 93.9647L1392.61 87.8202M1410.2 93.9647H1439.61M1359.98 76.4254H1409.21M1359.98 76.4254L1344.83 71.1328M1359.98 76.4254H1310.75M1359.98 76.4254L1375.89 81.9814M1409.21 76.4254L1392.89 71.1328M1409.21 76.4254L1426.34 81.9814M1409.21 76.4254H1439.61M1344.83 71.1328H1392.89M1344.83 71.1328H1296.76M1344.83 71.1328L1330.37 66.0851M1392.89 71.1328L1377.32 66.0851M1392.89 71.1328H1439.61M1303.38 56.6589H1348.26M1303.38 56.6589L1290.76 52.252M1303.38 56.6589H1258.51M1303.38 56.6589L1316.57 61.2655M1348.26 56.6589L1334.67 52.252M1348.26 56.6589L1362.46 61.2655M1348.26 56.6589H1393.13M1290.76 52.252H1334.67M1290.76 52.252H1246.86M1290.76 52.252L1278.68 48.0314M1334.67 52.252L1321.66 48.0314M1334.67 52.252H1378.57M1255.98 40.1047H1297.21M1255.98 40.1047L1245.31 36.3781M1255.98 40.1047H1214.75M1255.98 40.1047L1267.1 43.9858M1297.21 40.1047L1285.72 36.3781M1297.21 40.1047L1309.18 43.9858M1297.21 40.1047H1338.44M1245.31 36.3781H1285.72M1245.31 36.3781H1204.9M1245.31 36.3781L1235.06 32.7969M1285.72 36.3781L1274.68 32.7969M1285.72 36.3781H1326.13M1215.71 26.0382H1253.84M1215.71 26.0382L1206.57 22.8459M1215.71 26.0382H1177.58M1215.71 26.0382L1225.2 29.3526M1253.84 26.0382L1243.99 22.8459M1253.84 26.0382L1264.06 29.3526M1253.84 26.0382H1291.97M1206.57 22.8459H1243.99M1206.57 22.8459H1169.14M1206.57 22.8459L1197.76 19.7691M1243.99 22.8459L1234.51 19.7691M1243.99 22.8459H1281.42M1181.06 13.9379H1216.53M1181.06 13.9379L1173.14 11.1725M1181.06 13.9379H1145.59M1181.06 13.9379L1189.26 16.8017M1216.53 13.9379L1208 11.1725M1216.53 13.9379L1225.36 16.8017M1216.53 13.9379H1251.99M1173.14 11.1725H1208M1173.14 11.1725L1165.49 8.5008M1173.14 11.1725H1138.29M1208 11.1725H1242.86M1208 11.1725L1199.76 8.5008M1420.9 40.1047L1406.95 36.3781M1420.9 40.1047H1379.67M1420.9 40.1047L1435.43 43.9858M1420.9 40.1047H1439.61M1406.95 36.3781H1366.54M1406.95 36.3781L1393.54 32.7969M1406.95 36.3781H1439.61M1368.23 26.0382H1406.36M1368.23 26.0382L1356.28 22.8459M1368.23 26.0382H1330.1M1368.23 26.0382L1380.64 29.3526M1406.36 26.0382L1393.71 22.8459M1406.36 26.0382L1419.5 29.3526M1406.36 26.0382H1439.61M1356.28 22.8459H1393.71M1356.28 22.8459H1318.85M1356.28 22.8459L1344.76 19.7691M1393.71 22.8459L1381.51 19.7691M1393.71 22.8459H1431.14M1322.93 13.9379H1358.39M1322.93 13.9379L1312.57 11.1725M1322.93 13.9379H1287.46M1322.93 13.9379L1333.65 16.8017M1358.39 13.9379L1347.43 11.1725M1358.39 13.9379L1369.74 16.8017M1358.39 13.9379H1393.86M1312.57 11.1725H1347.43M1312.57 11.1725L1302.57 8.5008M1312.57 11.1725H1277.71M1347.43 11.1725H1382.29M1347.43 11.1725L1336.84 8.5008M1369.74 16.8017L1381.51 19.7691M1369.74 16.8017H1405.84M1369.74 16.8017H1333.65M1393.86 13.9379L1382.29 11.1725M1393.86 13.9379L1405.84 16.8017M1393.86 13.9379H1429.32M1382.29 11.1725H1417.14M1382.29 11.1725L1371.1 8.5008M1336.84 8.5008H1302.57M1336.84 8.5008H1371.1M1336.84 8.5008L1326.6 5.9175M1405.84 16.8017L1418.26 19.7691M1405.84 16.8017H1439.61M1429.32 13.9379L1417.14 11.1725M1429.32 13.9379L1439.61 16.2733M1429.32 13.9379H1439.61M1417.14 11.1725L1405.37 8.5008M1417.14 11.1725H1439.61M1371.1 8.5008H1405.37M1371.1 8.5008L1360.29 5.9175M1405.37 8.5008L1393.99 5.9175M1405.37 8.5008H1439.61M1381.51 19.7691H1418.26M1381.51 19.7691H1344.76M1431.14 22.8459L1418.26 19.7691M1431.14 22.8459L1439.61 24.8711M1431.14 22.8459H1439.61M1418.26 19.7691H1439.61M1344.76 19.7691H1308.01M1344.76 19.7691L1333.65 16.8017M1333.65 16.8017H1297.55M1419.5 29.3526L1433.16 32.7969M1419.5 29.3526H1380.64M1419.5 29.3526H1439.61M1439.73 26.0382H1439.61M1433.16 32.7969H1393.54M1433.16 32.7969L1439.61 34.4246M1433.16 32.7969H1439.61M1393.54 32.7969H1353.92M1393.54 32.7969L1380.64 29.3526M1380.64 29.3526H1341.78M1225.36 16.8017L1234.51 19.7691M1225.36 16.8017H1261.45M1225.36 16.8017H1189.26M1251.99 13.9379L1242.86 11.1725M1251.99 13.9379L1261.45 16.8017M1251.99 13.9379H1287.46M1242.86 11.1725H1277.71M1242.86 11.1725L1234.03 8.5008M1199.76 8.5008H1234.03M1199.76 8.5008L1191.8 5.9175M1199.76 8.5008H1165.49M1261.45 16.8017L1271.26 19.7691M1261.45 16.8017H1297.55M1287.46 13.9379L1277.71 11.1725M1287.46 13.9379L1297.55 16.8017M1277.71 11.1725L1268.3 8.5008M1234.03 8.5008H1268.3M1234.03 8.5008L1225.5 5.9175M1297.55 16.8017L1308.01 19.7691M1302.57 8.5008H1268.3M1302.57 8.5008L1292.89 5.9175M1268.3 8.5008L1259.2 5.9175M1234.51 19.7691H1271.26M1234.51 19.7691H1197.76M1281.42 22.8459L1271.26 19.7691M1281.42 22.8459L1291.97 26.0382M1281.42 22.8459H1318.85M1271.26 19.7691H1308.01M1197.76 19.7691H1161.01M1197.76 19.7691L1189.26 16.8017M1308.01 19.7691L1318.85 22.8459M1189.26 16.8017H1153.16M1291.97 26.0382L1302.92 29.3526M1291.97 26.0382H1330.1M1318.85 22.8459L1330.1 26.0382M1330.1 26.0382L1341.78 29.3526M1264.06 29.3526L1274.68 32.7969M1264.06 29.3526H1302.92M1264.06 29.3526H1225.2M1302.92 29.3526L1314.3 32.7969M1302.92 29.3526H1341.78M1341.78 29.3526L1353.92 32.7969M1274.68 32.7969H1314.3M1274.68 32.7969H1235.06M1326.13 36.3781L1314.3 32.7969M1326.13 36.3781L1338.44 40.1047M1326.13 36.3781H1366.54M1314.3 32.7969H1353.92M1235.06 32.7969H1195.44M1235.06 32.7969L1225.2 29.3526M1353.92 32.7969L1366.54 36.3781M1225.2 29.3526H1186.34M1338.44 40.1047L1351.27 43.9858M1338.44 40.1047H1379.67M1366.54 36.3781L1379.67 40.1047M1379.67 40.1047L1393.35 43.9858M1309.18 43.9858L1321.66 48.0314M1309.18 43.9858H1351.27M1309.18 43.9858H1267.1M1351.27 43.9858L1364.63 48.0314M1351.27 43.9858H1393.35M1393.35 43.9858L1407.61 48.0314M1393.35 43.9858H1435.43M1435.43 43.9858H1439.61M1435.43 43.9858L1439.61 45.1017M1321.66 48.0314H1364.63M1321.66 48.0314H1278.68M1378.57 52.252L1364.63 48.0314M1378.57 52.252L1393.13 56.6589M1378.57 52.252H1422.48M1364.63 48.0314H1407.61M1278.68 48.0314H1235.7M1278.68 48.0314L1267.1 43.9858M1407.61 48.0314L1422.48 52.252M1407.61 48.0314H1439.61M1267.1 43.9858H1225.01M1393.13 56.6589L1408.35 61.2655M1393.13 56.6589H1438.01M1422.48 52.252L1438.01 56.6589M1422.48 52.252H1439.61M1439.84 48.0314H1439.61M1438.01 56.6589L1439.61 57.1137M1438.01 56.6589H1439.61M1362.46 61.2655L1377.32 66.0851M1362.46 61.2655H1408.35M1362.46 61.2655H1316.57M1408.35 61.2655L1424.28 66.0851M1408.35 61.2655H1439.61M1440 57.2237L1439.61 57.1137M1377.32 66.0851H1424.28M1377.32 66.0851H1330.37M1424.28 66.0851H1439.61M1424.28 66.0851L1439.61 70.7272M1330.37 66.0851H1283.42M1330.37 66.0851L1316.57 61.2655M1316.57 61.2655H1270.68M1426.34 81.9814H1375.89M1426.34 81.9814L1439.61 86.2853M1426.34 81.9814H1439.61M1439.98 76.4254H1439.61M1375.89 81.9814H1325.43M1375.89 81.9814L1392.61 87.8202M1439.76 86.3327L1439.61 86.2853M1080.97 16.8017L1087.51 19.7691M1080.97 16.8017H1117.07M1080.97 16.8017H1044.87M1110.13 13.9379L1103.43 11.1725M1110.13 13.9379L1117.07 16.8017M1110.13 13.9379H1145.59M1103.43 11.1725H1138.29M1103.43 11.1725L1096.96 8.5008M1062.69 8.5008H1096.96M1062.69 8.5008L1060.53 7.52196L1057 5.9175M1062.69 8.5008H1028.42M1117.07 16.8017L1124.26 19.7691M1117.07 16.8017H1153.16M1145.59 13.9379L1138.29 11.1725M1145.59 13.9379L1153.16 16.8017M1138.29 11.1725L1131.22 8.5008M1096.96 8.5008H1131.22M1096.96 8.5008L1090.7 5.9175M1153.16 16.8017L1161.01 19.7691M1165.49 8.5008L1158.1 5.9175M1165.49 8.5008H1131.22M1131.22 8.5008L1130.36 8.17277L1128.64 7.52196L1124.4 5.9175M1087.51 19.7691H1124.26M1087.51 19.7691H1050.75M1131.71 22.8459L1124.26 19.7691M1131.71 22.8459L1139.44 26.0382M1131.71 22.8459H1169.14M1124.26 19.7691H1161.01M1050.75 19.7691H1014M1050.75 19.7691L1044.87 16.8017M1161.01 19.7691L1169.14 22.8459M1044.87 16.8017H1008.78M1139.44 26.0382L1147.48 29.3526M1139.44 26.0382H1177.58M1169.14 22.8459L1170.18 23.2381L1177.58 26.0382M1177.58 26.0382L1186.34 29.3526M1108.61 29.3526L1109.55 29.7762L1116.2 32.7969M1108.61 29.3526H1147.48M1108.61 29.3526H1069.75M1147.48 29.3526L1155.82 32.7969M1147.48 29.3526H1186.34M1186.34 29.3526L1195.44 32.7969M1116.2 32.7969H1155.82M1116.2 32.7969H1076.58M1164.5 36.3781L1155.82 32.7969M1164.5 36.3781L1173.52 40.1047M1164.5 36.3781H1204.9M1155.82 32.7969H1195.44M1076.58 32.7969H1036.96M1076.58 32.7969L1069.75 29.3526M1195.44 32.7969L1204.9 36.3781M1069.75 29.3526H1030.89M1173.52 40.1047L1182.93 43.9858M1173.52 40.1047H1214.75M1204.9 36.3781L1214.75 40.1047M1214.75 40.1047L1225.01 43.9858M1140.84 43.9858L1149.75 48.0314M1140.84 43.9858H1182.93M1140.84 43.9858H1098.76M1182.93 43.9858L1192.73 48.0314M1182.93 43.9858H1225.01M1225.01 43.9858L1235.7 48.0314M1149.75 48.0314H1192.73M1149.75 48.0314H1106.78M1202.95 52.252L1192.73 48.0314M1202.95 52.252L1213.63 56.6589M1202.95 52.252H1246.86M1192.73 48.0314H1235.7M1106.78 48.0314H1063.8M1106.78 48.0314L1098.76 43.9858M1235.7 48.0314L1246.86 52.252M1098.76 43.9858H1056.67M1213.63 56.6589L1224.79 61.2655M1213.63 56.6589H1258.51M1246.86 52.252L1258.51 56.6589M1258.51 56.6589L1270.68 61.2655M1178.9 61.2655L1189.52 66.0851M1178.9 61.2655H1224.79M1178.9 61.2655H1133.01M1224.79 61.2655L1236.47 66.0851M1224.79 61.2655H1270.68M1270.68 61.2655L1283.42 66.0851M1189.52 66.0851H1236.47M1189.52 66.0851H1142.57M1248.7 71.1328L1236.47 66.0851M1248.7 71.1328L1261.52 76.4254M1248.7 71.1328H1296.76M1236.47 66.0851H1283.42M1142.57 66.0851H1095.61M1142.57 66.0851L1133.01 61.2655M1283.42 66.0851L1296.76 71.1328M1133.01 61.2655H1087.12M1261.52 76.4254L1274.98 81.9814M1261.52 76.4254H1310.75M1296.76 71.1328L1310.75 76.4254M1310.75 76.4254L1325.43 81.9814M1224.53 81.9814L1237.39 87.8202M1224.53 81.9814H1274.98M1224.53 81.9814H1174.08M1274.98 81.9814L1289.13 87.8202M1274.98 81.9814H1325.43M1325.43 81.9814L1340.87 87.8202M1237.39 87.8202H1289.13M1237.39 87.8202H1185.65M1304.02 93.9647L1289.13 87.8202M1304.02 93.9647L1319.7 100.439M1304.02 93.9647H1357.11M1289.13 87.8202H1340.87M1185.65 87.8202H1133.91M1185.65 87.8202L1174.08 81.9814M1340.87 87.8202L1357.11 93.9647M1340.87 87.8202H1392.61M1174.08 81.9814H1123.62M1319.7 100.439L1336.25 107.272M1319.7 100.439H1374.22M1357.11 93.9647L1374.22 100.439M1392.61 87.8202H1439.61M1374.22 100.439L1392.28 107.272M1280.23 107.272L1296.13 114.491M1280.23 107.272H1336.25M1280.23 107.272H1224.21M1336.25 107.272L1353.75 114.491M1336.25 107.272H1392.28M1392.28 107.272L1411.36 114.491M1392.28 107.272H1439.61M1296.13 114.491H1353.75M1296.13 114.491H1238.52M1372.26 122.133L1353.75 114.491M1372.26 122.133L1391.89 130.234M1372.26 122.133H1431.56M1353.75 114.491H1411.36M1238.52 114.491H1180.91M1238.52 114.491L1224.21 107.272M1411.36 114.491L1431.56 122.133M1411.36 114.491H1439.61M1224.21 107.272H1168.18M1391.89 130.234L1412.73 138.839M1391.89 130.234H1439.61M1431.56 122.133H1439.61M1431.56 122.133L1439.61 125.181M1349.76 138.839L1369.92 147.994M1349.76 138.839H1412.73M1349.76 138.839H1286.78M1412.73 138.839L1434.91 147.994M1412.73 138.839H1439.61M1369.92 147.994H1434.91M1369.92 147.994H1304.93M1434.91 147.994L1439.61 149.933M1434.91 147.994H1439.61M1304.93 147.994H1239.94M1304.93 147.994L1286.78 138.839M1286.78 138.839H1223.81M1438.99 179.351H1367.09M1438.99 179.351H1439.61M1438.99 179.351L1439.61 179.635M1367.09 179.351H1295.19M1367.09 179.351L1390.85 191.339M936.582 16.8017L938.036 17.9018L938.525 18.2721L940.503 19.7691M936.582 16.8017H972.679M936.582 16.8017H900.485M968.263 13.9379L965.052 11.8552L964 11.1725M968.263 13.9379L972.119 16.438L972.679 16.8017M968.263 13.9379H1003.73M964 11.1725H998.857M964 11.1725L959.881 8.5008M925.612 8.5008H959.881M925.612 8.5008L924.318 7.52196L922.198 5.9175M925.612 8.5008H891.344M972.679 16.8017L973.807 17.5333L977.254 19.7691M972.679 16.8017H1008.78M1003.73 13.9379L998.857 11.1725M1003.73 13.9379L1008.78 16.8017M998.857 11.1725L995.311 9.16017L994.149 8.5008M959.881 8.5008H994.149M959.881 8.5008L955.898 5.9175M1008.78 16.8017L1014 19.7691M1028.42 8.5008L1027.77 8.17277L1023.3 5.9175M1028.42 8.5008H994.149M994.149 8.5008L992.424 7.52196L989.598 5.9175M940.503 19.7691H977.254M940.503 19.7691H903.752M981.997 22.8459L977.254 19.7691M981.997 22.8459L986.919 26.0382M981.997 22.8459H1019.43M977.254 19.7691H1014M903.752 19.7691H867.002M903.752 19.7691L900.485 16.8017M1014 19.7691L1019.43 22.8459M900.485 16.8017H864.388M986.919 26.0382L990.09 28.0952L990.734 28.5121L992.029 29.3526M986.919 26.0382H1025.05M1019.43 22.8459L1025.05 26.0382M1025.05 26.0382L1030.89 29.3526M953.168 29.3526L957.72 32.7969M953.168 29.3526H992.029M953.168 29.3526H914.307M992.029 29.3526L997.339 32.7969M992.029 29.3526H1030.89M1030.89 29.3526L1036.96 32.7969M957.72 32.7969H997.339M957.72 32.7969H918.1M1002.86 36.3781L999.384 34.1232L998.7 33.6787L997.339 32.7969M1002.86 36.3781L1008.61 40.1047M1002.86 36.3781H1043.27M997.339 32.7969H1036.96M918.1 32.7969H878.48M918.1 32.7969L914.307 29.3526M1036.96 32.7969L1043.27 36.3781M914.307 29.3526H875.445M1008.61 40.1047L1014.59 43.9858M1008.61 40.1047H1049.84M1043.27 36.3781L1049.84 40.1047M1049.84 40.1047L1056.67 43.9858M972.506 43.9858L975.151 45.9872L975.821 46.4945L977.852 48.0314M972.506 43.9858H1014.59M972.506 43.9858H930.421M1014.59 43.9858L1020.83 48.0314M1014.59 43.9858H1056.67M1056.67 43.9858L1063.8 48.0314M977.852 48.0314H1020.83M977.852 48.0314H934.877M1027.33 52.252L1020.83 48.0314M1027.33 52.252L1034.13 56.6589M1027.33 52.252H1071.24M1020.83 48.0314H1063.8M934.877 48.0314H891.901M934.877 48.0314L933.745 47.0041L930.421 43.9858M1063.8 48.0314L1071.24 52.252M930.421 43.9858H888.338M1034.13 56.6589L1041.23 61.2655M1034.13 56.6589H1079M1071.24 52.252L1079 56.6589M1079 56.6589L1087.12 61.2655M995.341 61.2655L1001.71 66.0851M995.341 61.2655H1041.23M995.341 61.2655H949.451M1041.23 61.2655L1048.66 66.0851M1041.23 61.2655H1087.12M1087.12 61.2655L1095.61 66.0851M1001.71 66.0851H1048.66M1001.71 66.0851H954.759M1056.44 71.1328L1048.66 66.0851M1056.44 71.1328L1064.6 76.4254M1056.44 71.1328H1104.51M1048.66 66.0851H1095.61M954.759 66.0851H907.807M954.759 66.0851L949.451 61.2655M1095.61 66.0851L1104.51 71.1328M949.451 61.2655H903.561M1064.6 76.4254L1073.17 81.9814M1064.6 76.4254H1113.83M1104.51 71.1328L1113.83 76.4254M1113.83 76.4254L1123.62 81.9814M1022.72 81.9814L1030.43 87.8202M1022.72 81.9814H1073.17M1022.72 81.9814H972.265M1073.17 81.9814L1082.17 87.8202M1073.17 81.9814H1123.62M1123.62 81.9814L1133.91 87.8202M1030.43 87.8202H1082.17M1030.43 87.8202H978.695M1091.65 93.9647L1082.17 87.8202M1091.65 93.9647L1101.63 100.439M1091.65 93.9647H1144.74M1082.17 87.8202H1133.91M978.695 87.8202H926.956M978.695 87.8202L972.265 81.9814M1133.91 87.8202L1144.74 93.9647M972.265 81.9814H921.812M1101.63 100.439L1112.16 107.272M1101.63 100.439H1156.15M1144.74 93.9647L1156.15 100.439M1156.15 100.439L1168.18 107.272M1056.14 107.272L1065.68 114.491M1056.14 107.272H1112.16M1056.14 107.272H1000.12M1112.16 107.272L1123.29 114.491M1112.16 107.272H1168.18M1168.18 107.272L1180.91 114.491M1065.68 114.491H1123.29M1065.68 114.491H1008.07M1135.07 122.133L1123.29 114.491M1135.07 122.133L1147.57 130.234M1135.07 122.133H1194.37M1123.29 114.491H1180.91M1008.07 114.491H950.453M1008.07 114.491L1000.12 107.272M1180.91 114.491L1194.37 122.133M1000.12 107.272H944.093M1147.57 130.234L1160.83 138.839M1147.57 130.234H1208.65M1194.37 122.133L1208.65 130.234M1208.65 130.234L1223.81 138.839M1097.86 138.839L1109.95 147.994M1097.86 138.839H1160.83M1097.86 138.839H1034.88M1160.83 138.839L1174.95 147.994M1160.83 138.839H1223.81M1223.81 138.839L1239.94 147.994M1109.95 147.994H1174.95M1109.95 147.994H1044.96M1189.99 157.755L1174.95 147.994M1189.99 157.755L1206.07 168.184M1189.99 157.755H1257.14M1174.95 147.994H1239.94M1044.96 147.994H979.969M1044.96 147.994L1034.88 138.839M1239.94 147.994L1257.14 157.755M1034.88 138.839H971.903M1206.07 168.184L1223.29 179.351M1206.07 168.184H1275.51M1257.14 157.755L1275.51 168.184M1275.51 168.184L1295.19 179.351M1151.39 179.351L1167.23 191.339M1151.39 179.351H1223.29M1151.39 179.351H1079.49M1223.29 179.351L1241.77 191.339M1223.29 179.351H1295.19M1295.19 179.351L1316.31 191.339M1167.23 191.339H1241.77M1167.23 191.339H1092.7M1261.67 204.241L1241.77 191.339M1261.67 204.241L1283.13 218.166M1261.67 204.241H1339.05M1241.77 191.339H1316.31M1092.7 191.339H1018.16M1092.7 191.339L1079.49 179.351M1316.31 191.339L1339.05 204.241M1316.31 191.339H1390.85M1079.49 179.351H1007.6M1283.13 218.166L1306.37 233.24M1283.13 218.166H1363.58M1339.05 204.241L1363.58 218.166M1390.85 191.339H1439.61M1363.58 218.166L1390.14 233.24M1363.58 218.166H1439.61M1222.61 233.24L1244.24 249.611M1222.61 233.24H1306.37M1222.61 233.24H1138.84M1306.37 233.24L1331.62 249.611M1306.37 233.24H1390.14M1390.14 233.24L1418.99 249.611M1390.14 233.24H1439.61M1244.24 249.611H1331.62M1244.24 249.611H1156.87M1359.13 267.456L1331.62 249.611M1359.13 267.456L1389.23 286.981M1359.13 267.456H1439.61M1331.62 249.611H1418.99M1156.87 249.611H1069.49M1156.87 249.611L1138.84 233.24M1418.99 249.611H1439.61M1418.99 249.611L1439.61 261.316M1138.84 233.24H1055.07M1389.23 286.981L1422.31 308.437M1389.23 286.981H1439.61M1321.98 308.437L1353.28 332.125M1321.98 308.437H1422.31M1321.98 308.437H1221.65M1422.31 308.437L1439.61 319.659M1422.31 308.437H1439.61M1353.28 332.125H1247.74M1353.28 332.125L1439.61 332.125M1247.74 332.125H1142.19M1247.74 332.125L1221.65 308.437M1221.65 308.437H1121.32M792.194 16.8017L792.355 17.1668L792.516 17.5333L792.679 17.9018L792.841 18.2721L793.335 19.3921L793.501 19.7691M792.194 16.8017H828.291M792.194 16.8017H756.097M826.399 13.9379L825.022 11.8552L824.572 11.1725M826.399 13.9379L827.574 15.7159L828.291 16.8017M826.399 13.9379H861.865M824.572 11.1725H859.429M824.572 11.1725L823.242 9.16017L822.806 8.5008M788.537 8.5008L788.393 8.17277L787.822 6.87589L787.399 5.9175M788.537 8.5008H822.806M788.537 8.5008H754.269M828.291 16.8017L828.532 17.1668L828.775 17.5333L829.018 17.9018L829.263 18.2721L830.251 19.7691M828.291 16.8017H864.388M861.865 13.9379L860.03 11.8552L859.429 11.1725M861.865 13.9379L864.388 16.8017M859.429 11.1725L858.241 9.82526L857.364 8.82978L857.075 8.5008M822.806 8.5008L822.59 8.17277L822.16 7.52196L821.732 6.87589L821.521 6.55501L821.099 5.9175M822.806 8.5008H857.075M864.388 16.8017L866.34 19.017L867.002 19.7691M891.344 8.5008L889.201 6.55501L888.499 5.9175M891.344 8.5008H857.075M857.075 8.5008L855.08 6.23554L854.798 5.9175M793.501 19.7691H830.251M793.501 19.7691H756.751M832.284 22.8459L830.251 19.7691M832.284 22.8459L834.394 26.0382M832.284 22.8459H869.712M830.251 19.7691H867.002M756.751 19.7691H720M756.751 19.7691L756.097 16.8017M867.002 19.7691L869.712 22.8459M756.097 16.8017H720M834.394 26.0382L834.934 26.8549L835.753 28.0952L836.584 29.3526M834.394 26.0382H872.526M869.712 22.8459L870.059 23.2381L872.526 26.0382M872.526 26.0382L872.884 26.4456L873.245 26.8549L873.607 27.2666L875.445 29.3526M797.723 29.3526L799.24 32.7969M797.723 29.3526H836.584M797.723 29.3526H758.861M836.584 29.3526L838.86 32.7969M836.584 29.3526H875.445M875.445 29.3526L877.71 31.9231L878.094 32.359L878.48 32.7969M799.24 32.7969H838.86M799.24 32.7969H759.62M841.226 36.3781L841.528 36.8359L841.833 37.2956L842.138 37.7581L843.689 40.1047M841.226 36.3781L840.031 34.5696L839.736 34.1232L839.443 33.6787L838.86 32.7969M841.226 36.3781H881.635M838.86 32.7969H878.48M759.62 32.7969H720M759.62 32.7969L758.861 29.3526M878.48 32.7969L881.635 36.3781M758.861 29.3526H720M843.689 40.1047L845.927 43.4919L846.253 43.9858M843.689 40.1047H884.918M881.635 36.3781L882.444 37.2956L884.918 40.1047M884.918 40.1047L886.184 41.5413L888.338 43.9858M804.168 43.9858L805.051 45.9872L805.273 46.4945L805.951 48.0314M804.168 43.9858H846.253M804.168 43.9858H762.085M846.253 43.9858L848.926 48.0314M846.253 43.9858H888.338M888.338 43.9858L891.901 48.0314M805.951 48.0314H848.926M805.951 48.0314H762.975M851.715 52.252L848.926 48.0314M851.715 52.252L854.627 56.6589M851.715 52.252H895.62M848.926 48.0314H891.901M762.975 48.0314H720M762.975 48.0314L762.749 47.0041L762.304 44.9813L762.085 43.9858M891.901 48.0314L895.62 52.252M762.085 43.9858H720M854.627 56.6589L856.897 60.0946L857.671 61.2655M854.627 56.6589H899.503M895.62 52.252L899.503 56.6589M899.503 56.6589L901.509 58.9366L903.561 61.2655M811.781 61.2655L813.903 66.0851M811.781 61.2655H857.671M811.781 61.2655H765.89M857.671 61.2655L860.855 66.0851M857.671 61.2655H903.561M903.561 61.2655L907.807 66.0851M813.903 66.0851H860.855M813.903 66.0851H766.952M864.191 71.1328L863.342 69.8488L860.855 66.0851M864.191 71.1328L867.688 76.4254M864.191 71.1328H912.254M860.855 66.0851H907.807M766.952 66.0851H720M766.952 66.0851L765.89 61.2655M907.807 66.0851L912.254 71.1328M765.89 61.2655H720M867.688 76.4254L871.359 81.9814M867.688 76.4254H916.917M912.254 71.1328L916.917 76.4254M916.917 76.4254L921.812 81.9814M820.906 81.9814L823.478 87.8202M820.906 81.9814H871.359M820.906 81.9814H770.453M871.359 81.9814L875.217 87.8202M871.359 81.9814H921.812M921.812 81.9814L926.956 87.8202M823.478 87.8202H875.217M823.478 87.8202H771.739M879.277 93.9647L875.217 87.8202M879.277 93.9647L883.555 100.439M879.277 93.9647H932.369M875.217 87.8202H926.956M771.739 87.8202H720M771.739 87.8202L770.61 82.6955L770.453 81.9814M926.956 87.8202L932.369 93.9647M770.453 81.9814H720M883.555 100.439L888.069 107.272M883.555 100.439H938.073M932.369 93.9647L936.618 98.7886L938.073 100.439M938.073 100.439L944.093 107.272M832.046 107.272L835.226 114.491M832.046 107.272H888.069M832.046 107.272H776.023M888.069 107.272L892.84 114.491M888.069 107.272H944.093M944.093 107.272L950.453 114.491M835.226 114.491H892.84M835.226 114.491H777.613M897.889 122.133L892.84 114.491M897.889 122.133L903.242 130.234M897.889 122.133H957.185M892.84 114.491H950.453M777.613 114.491H720M777.613 114.491L776.023 107.272M950.453 114.491L957.185 122.133M776.023 107.272H720M903.242 130.234L908.927 138.839M903.242 130.234H964.323M957.185 122.133L964.323 130.234M964.323 130.234L971.903 138.839M845.952 138.839L849.985 147.994M845.952 138.839H908.927M845.952 138.839H782.976M908.927 138.839L914.977 147.994M908.927 138.839H971.903M971.903 138.839L979.969 147.994M849.985 147.994H914.977M849.985 147.994H784.992M921.426 157.755L914.977 147.994M921.426 157.755L928.317 168.184M921.426 157.755H988.568M914.977 147.994H979.969M784.992 147.994H720M784.992 147.994L782.976 138.839M979.969 147.994L988.568 157.755M782.976 138.839H720M928.317 168.184L935.696 179.351M928.317 168.184H997.756M988.568 157.755L997.756 168.184M997.756 168.184L1007.6 179.351M863.797 179.351L869.078 191.339M863.797 179.351H935.696M863.797 179.351H791.899M935.696 179.351L943.617 191.339M935.696 179.351H1007.6M1007.6 179.351L1018.16 191.339M869.078 191.339H943.617M869.078 191.339H794.539M952.142 204.241L943.617 191.339M952.142 204.241L961.343 218.166M952.142 204.241H1029.52M943.617 191.339H1018.16M794.539 191.339H720M794.539 191.339L791.899 179.351M1018.16 191.339L1029.52 204.241M791.899 179.351H720M961.343 218.166L971.304 233.24M961.343 218.166H1041.79M1029.52 204.241L1041.79 218.166M1041.79 218.166L1055.07 233.24M887.536 233.24L894.747 249.611M887.536 233.24H971.304M887.536 233.24H803.768M971.304 233.24L982.121 249.611M971.304 233.24H1055.07M1055.07 233.24L1069.49 249.611M894.747 249.611H982.121M894.747 249.611H807.374M993.912 267.456L982.121 249.611M993.912 267.456L1006.81 286.981M993.912 267.456H1085.22M982.121 249.611H1069.49M807.374 249.611H720M807.374 249.611L803.768 233.24M1069.49 249.611L1085.22 267.456M803.768 233.24H720M1006.81 286.981L1020.99 308.437M1006.81 286.981H1102.42M1085.22 267.456L1102.42 286.981M1102.42 286.981L1121.32 308.437M920.66 308.437L931.095 332.125M920.66 308.437H1020.99M920.66 308.437H820.33M1020.99 308.437L1036.64 332.125M1020.99 308.437H1121.32M1121.32 308.437L1142.19 332.125M1036.64 332.125H931.095M1036.64 332.125H1142.19M931.095 332.125H825.548M825.548 332.125H720M825.548 332.125L820.33 308.437M820.33 308.437H720M647.806 16.8017L647.645 17.1668L647.484 17.5333L647.321 17.9018L647.159 18.2721L646.83 19.017L646.665 19.3921L646.499 19.7691M647.806 16.8017H683.903M647.806 16.8017H611.709M684.534 13.9379L685.143 11.1725M684.534 13.9379L683.903 16.8017M684.534 13.9379H720M685.143 11.1725L685.217 10.8336L685.292 10.496L685.366 10.1599L685.732 8.5008M685.143 11.1725H720M651.463 8.5008L651.607 8.17277L652.178 6.87589L652.601 5.9175M651.463 8.5008H685.732M651.463 8.5008H617.194M683.903 16.8017L683.822 17.1668L683.742 17.5333L683.66 17.9018L683.25 19.7691M683.903 16.8017H720M720 13.9379V11.1725M720 13.9379V16.8017M720 11.1725V8.5008M685.732 8.5008H720M685.732 8.5008L685.947 7.52196L686.019 7.19822L686.3 5.9175M720 16.8017V19.7691M754.269 8.5008L754.054 7.52196L753.982 7.19822L753.911 6.87589L753.84 6.55501L753.77 6.23554L753.7 5.9175M754.269 8.5008H720M720 8.5008V5.9175M646.499 19.7691H683.25M646.499 19.7691H609.749M682.572 22.8459L682.485 23.2381L682.399 23.6327L681.869 26.0382M682.572 22.8459L683.25 19.7691M682.572 22.8459H720M683.25 19.7691H720M609.749 19.7691H572.998M609.749 19.7691L610.245 19.017L610.492 18.6439L610.737 18.2721L610.983 17.9018L611.225 17.5333L611.468 17.1668L611.709 16.8017M720 19.7691V22.8459M611.709 16.8017H575.612M681.869 26.0382L681.139 29.3526M681.869 26.0382H720M720 22.8459V26.0382M720 26.0382V29.3526M642.277 29.3526L640.76 32.7969M642.277 29.3526H681.139M642.277 29.3526H603.416M681.139 29.3526L680.38 32.7969M681.139 29.3526H720M720 29.3526V32.7969M640.76 32.7969H680.38M640.76 32.7969H601.14M679.592 36.3781L680.38 32.7969M679.592 36.3781L678.771 40.1047M679.592 36.3781H720M680.38 32.7969H720M601.14 32.7969H561.52M601.14 32.7969L603.416 29.3526M720 32.7969V36.3781M603.416 29.3526H564.555M678.771 40.1047L678.454 41.5413L678.133 43.0003L677.915 43.9858M678.771 40.1047H720M720 36.3781V40.1047M720 40.1047V43.9858M635.832 43.9858L634.949 45.9872L634.727 46.4945L634.049 48.0314M635.832 43.9858H677.915M635.832 43.9858H593.747M677.915 43.9858L677.697 44.9813L677.251 47.0041L677.025 48.0314M677.915 43.9858H720M720 43.9858V48.0314M634.049 48.0314H677.025M634.049 48.0314H591.074M676.095 52.252L676.213 51.7143L677.025 48.0314M676.095 52.252L675.125 56.6589M676.095 52.252H720M677.025 48.0314H720M591.074 48.0314H548.099M591.074 48.0314L593.747 43.9858M720 48.0314V52.252M593.747 43.9858H551.662M675.125 56.6589L674.11 61.2655M675.125 56.6589H720M720 52.252V56.6589M720 56.6589V61.2655M628.219 61.2655L626.097 66.0851M628.219 61.2655H674.11M628.219 61.2655H582.329M674.11 61.2655L673.048 66.0851M674.11 61.2655H720M720 61.2655V66.0851M626.097 66.0851H673.048M626.097 66.0851H579.145M671.937 71.1328L673.048 66.0851M671.937 71.1328L670.771 76.4254M671.937 71.1328H720M673.048 66.0851H720M579.145 66.0851H532.193M579.145 66.0851L582.329 61.2655M720 66.0851V71.1328M582.329 61.2655H536.439M670.771 76.4254L669.547 81.9814M670.771 76.4254H720M720 71.1328V76.4254M720 76.4254V81.9814M619.094 81.9814L616.522 87.8202M619.094 81.9814H669.547M619.094 81.9814H568.642M669.547 81.9814L668.261 87.8202M669.547 81.9814H720M720 81.9814V87.8202M616.522 87.8202H668.261M616.522 87.8202H564.783M666.908 93.9647L668.261 87.8202M666.908 93.9647L665.482 100.439M666.908 93.9647H720M668.261 87.8202H720M564.783 87.8202H513.044M564.783 87.8202L568.642 81.9814M720 87.8202V93.9647M568.642 81.9814H518.188M665.482 100.439L663.977 107.272M665.482 100.439H720M720 93.9647V100.439M720 100.439V107.272M607.954 107.272L604.774 114.491M607.954 107.272H663.977M607.954 107.272H551.931M663.977 107.272L662.387 114.491M663.977 107.272H720M720 107.272V114.491M604.774 114.491H662.387M604.774 114.491H547.16M660.704 122.133L662.387 114.491M660.704 122.133L658.919 130.234M660.704 122.133H720M662.387 114.491H720M547.16 114.491H489.547M547.16 114.491L551.931 107.272M720 114.491V122.133M551.931 107.272H495.907M658.919 130.234L657.024 138.839M658.919 130.234H720M720 122.133V130.234M720 130.234V138.839M594.048 138.839L590.016 147.994M594.048 138.839H657.024M594.048 138.839H531.073M657.024 138.839L655.008 147.994M657.024 138.839H720M720 138.839V147.994M590.016 147.994H655.008M590.016 147.994H525.023M652.858 157.755L655.008 147.994M652.858 157.755L650.561 168.184M652.858 157.755H720M655.008 147.994H720M525.023 147.994H460.031M525.023 147.994L531.073 138.839M720 147.994V157.755M531.073 138.839H468.097M650.561 168.184L648.101 179.351M650.561 168.184H720M720 157.755V168.184M720 168.184V179.351M576.203 179.351L570.922 191.339M576.203 179.351H648.101M576.203 179.351H504.304M648.101 179.351L645.461 191.339M648.101 179.351H720M720 179.351V191.339M570.922 191.339H645.461M570.922 191.339H496.383M642.619 204.241L645.461 191.339M642.619 204.241L639.553 218.166M642.619 204.241H720M645.461 191.339H720M496.383 191.339H421.844M496.383 191.339L504.304 179.351M720 191.339V204.241M504.304 179.351H432.405M639.553 218.166L636.232 233.24M639.553 218.166H720M720 204.241V218.166M720 218.166V233.24M552.465 233.24L545.253 249.611M552.465 233.24H636.232M552.465 233.24H468.696M636.232 233.24L632.626 249.611M636.232 233.24H720M720 233.24V249.611M545.253 249.611H632.626M545.253 249.611H457.879M628.696 267.456L632.626 249.611M628.696 267.456L624.396 286.981M628.696 267.456H720M632.626 249.611H720M457.879 249.611H370.505M457.879 249.611L468.696 233.24M720 249.611V267.456M468.696 233.24H384.929M624.396 286.981L619.67 308.437M624.396 286.981H720M720 267.456V286.981M720 286.981V308.437M519.34 308.437L508.905 332.125M519.34 308.437H619.67M519.34 308.437H419.009M619.67 308.437L614.452 332.125M619.67 308.437H720M720 308.437V332.125M614.452 332.125H508.905M614.452 332.125H720M508.905 332.125H403.358M403.358 332.125H297.81M403.358 332.125L419.009 308.437M419.009 308.437H318.679M503.418 16.8017L501.475 18.2721L499.497 19.7691M503.418 16.8017H539.515M503.418 16.8017H467.322M542.669 13.9379L545.714 11.1725M542.669 13.9379L539.515 16.8017M542.669 13.9379H578.135M545.714 11.1725H580.571M545.714 11.1725L547.93 9.16017L548.657 8.5008M514.388 8.5008H548.657M514.388 8.5008L515.682 7.52196L517.802 5.9175M514.388 8.5008H480.119M539.515 16.8017L536.248 19.7691M539.515 16.8017H575.612M578.135 13.9379L580.571 11.1725M578.135 13.9379L575.612 16.8017M580.571 11.1725L581.759 9.82526L582.636 8.82978L582.925 8.5008M548.657 8.5008H582.925M548.657 8.5008L550.799 6.55501L551.501 5.9175M575.612 16.8017L573.66 19.017L572.998 19.7691M617.194 8.5008L617.41 8.17277L617.841 7.52196L618.479 6.55501L618.901 5.9175M617.194 8.5008H582.925M582.925 8.5008L583.214 8.17277L583.788 7.52196L585.201 5.9175M499.497 19.7691H536.248M499.497 19.7691H462.746M532.859 22.8459L533.29 22.4551L533.718 22.0658L535.412 20.5274L536.248 19.7691M532.859 22.8459L530.235 25.2286L529.343 26.0382M532.859 22.8459H570.288M536.248 19.7691H572.998M462.746 19.7691H425.996M462.746 19.7691L466.193 17.5333L467.322 16.8017M572.998 19.7691L570.288 22.8459M467.322 16.8017H431.224M529.343 26.0382L528.895 26.4456L528.444 26.8549L527.079 28.0952L526.618 28.5121L525.693 29.3526M529.343 26.0382H567.474M570.288 22.8459L569.941 23.2381L567.474 26.0382M567.474 26.0382L567.116 26.4456L566.755 26.8549L566.393 27.2666L564.555 29.3526M486.832 29.3526L482.281 32.7969M486.832 29.3526H525.693M486.832 29.3526H447.971M525.693 29.3526L521.9 32.7969M525.693 29.3526H564.555M564.555 29.3526L561.52 32.7969M482.281 32.7969H521.9M482.281 32.7969H442.661M517.957 36.3781L521.9 32.7969M517.957 36.3781L513.853 40.1047M517.957 36.3781H558.365M521.9 32.7969H561.52M442.661 32.7969H403.041M442.661 32.7969L447.971 29.3526M561.52 32.7969L558.365 36.3781M447.971 29.3526H409.109M513.853 40.1047L509.579 43.9858M513.853 40.1047H555.082M558.365 36.3781L557.557 37.2956L555.082 40.1047M555.082 40.1047L553.816 41.5413L552.53 43.0003L551.662 43.9858M467.494 43.9858L464.849 45.9872L462.148 48.0314M467.494 43.9858H509.579M467.494 43.9858H425.409M509.579 43.9858L505.123 48.0314M509.579 43.9858H551.662M551.662 43.9858L548.099 48.0314M462.148 48.0314H505.123M462.148 48.0314H419.173M500.476 52.252L505.123 48.0314M500.476 52.252L495.622 56.6589M500.476 52.252H544.38M505.123 48.0314H548.099M419.173 48.0314H376.197M419.173 48.0314L425.409 43.9858M548.099 48.0314L544.38 52.252M425.409 43.9858H383.326M495.622 56.6589L494.375 57.7913L490.549 61.2655M495.622 56.6589H540.497M544.38 52.252L540.497 56.6589M540.497 56.6589L540 57.2237L538.491 58.9366L536.439 61.2655M444.659 61.2655L438.29 66.0851M444.659 61.2655H490.549M444.659 61.2655H398.769M490.549 61.2655L485.241 66.0851M490.549 61.2655H536.439M536.439 61.2655L532.193 66.0851M438.29 66.0851H485.241M438.29 66.0851H391.338M479.682 71.1328L483.188 67.9506L485.241 66.0851M479.682 71.1328L473.854 76.4254M479.682 71.1328H527.746M485.241 66.0851H532.193M391.338 66.0851H344.386M391.338 66.0851L398.769 61.2655M532.193 66.0851L527.746 71.1328M398.769 61.2655H352.878M473.854 76.4254L467.735 81.9814M473.854 76.4254H523.083M527.746 71.1328L523.083 76.4254M523.083 76.4254L518.188 81.9814M417.282 81.9814L409.566 87.8202M417.282 81.9814H467.735M417.282 81.9814H366.83M467.735 81.9814L461.305 87.8202M467.735 81.9814H518.188M518.188 81.9814L513.044 87.8202M409.566 87.8202H461.305M409.566 87.8202H357.827M454.539 93.9647L461.305 87.8202M454.539 93.9647L447.409 100.439M454.539 93.9647H507.631M461.305 87.8202H513.044M357.827 87.8202H306.089M357.827 87.8202L366.83 81.9814M513.044 87.8202L507.631 93.9647M366.83 81.9814H316.377M447.409 100.439L439.885 107.272M447.409 100.439H501.927M507.631 93.9647L501.927 100.439M501.927 100.439L495.907 107.272M383.862 107.272L374.321 114.491M383.862 107.272H439.885M383.862 107.272H327.838M439.885 107.272L431.934 114.491M439.885 107.272H495.907M495.907 107.272L489.547 114.491M374.321 114.491H431.934M374.321 114.491H316.707M423.518 122.133L431.934 114.491M423.518 122.133L414.597 130.234M423.518 122.133H482.815M431.934 114.491H489.547M316.707 114.491H259.094M316.707 114.491L327.838 107.272M489.547 114.491L482.815 122.133M327.838 107.272H271.816M414.597 130.234L405.121 138.839M414.597 130.234H475.677M482.815 122.133L475.677 130.234M475.677 130.234L468.097 138.839M342.145 138.839L330.047 147.994M342.145 138.839H405.121M342.145 138.839H279.169M405.121 138.839L395.039 147.994M405.121 138.839H468.097M468.097 138.839L460.031 147.994M330.047 147.994H395.039M330.047 147.994H265.054M384.29 157.755L395.039 147.994M384.29 157.755L372.804 168.184M384.29 157.755H451.432M395.039 147.994H460.031M265.054 147.994H200.062M265.054 147.994L279.169 138.839M460.031 147.994L451.432 157.755M279.169 138.839H216.193M372.804 168.184L360.506 179.351M372.804 168.184H442.244M451.432 157.755L442.244 168.184M442.244 168.184L432.405 179.351M288.607 179.351L272.765 191.339M288.607 179.351H360.506M288.607 179.351H216.708M360.506 179.351L347.304 191.339M360.506 179.351H432.405M432.405 179.351L421.844 191.339M272.765 191.339H347.304M272.765 191.339H198.226M333.096 204.241L347.304 191.339M333.096 204.241L317.761 218.166M333.096 204.241H410.477M347.304 191.339H421.844M198.226 191.339H123.687M198.226 191.339L216.708 179.351M421.844 191.339L410.477 204.241M216.708 179.351H144.809M317.761 218.166L301.161 233.24M317.761 218.166H398.209M410.477 204.241L398.209 218.166M398.209 218.166L384.929 233.24M217.393 233.24L195.758 249.611M217.393 233.24H301.161M217.393 233.24H133.625M301.161 233.24L283.132 249.611M301.161 233.24H384.929M384.929 233.24L370.505 249.611M195.758 249.611H283.132M195.758 249.611H108.384M263.48 267.456L283.132 249.611M263.48 267.456L241.977 286.981M263.48 267.456H354.784M283.132 249.611H370.505M108.384 249.611H21.0104M108.384 249.611L133.625 233.24M370.505 249.611L354.784 267.456M133.625 233.24H49.8579M241.977 286.981L218.349 308.437M241.977 286.981H337.582M354.784 267.456L337.582 286.981M337.582 286.981L318.679 308.437M118.019 308.437L86.7156 332.125M118.019 308.437H218.349M118.019 308.437H17.6882M218.349 308.437L192.263 332.125M218.349 308.437H318.679M318.679 308.437L297.81 332.125M192.263 332.125H86.7156M192.263 332.125H297.81M86.7156 332.125L0.387546 332.125M17.6882 308.437L0.387546 319.659M17.6882 308.437H0.387546M359.03 16.8017L352.495 19.7691M359.03 16.8017H395.127M359.03 16.8017H322.934M400.804 13.9379L406.286 11.1725M400.804 13.9379L395.127 16.8017M400.804 13.9379H436.27M406.286 11.1725H441.143M406.286 11.1725L411.582 8.5008M377.313 8.5008H411.582M377.313 8.5008L379.47 7.52196L383.003 5.9175M377.313 8.5008H343.045M395.127 16.8017L389.245 19.7691M395.127 16.8017H431.224M436.27 13.9379L441.143 11.1725M436.27 13.9379L431.224 16.8017M441.143 11.1725L444.689 9.16017L445.851 8.5008M411.582 8.5008L412.232 8.17277L416.703 5.9175M411.582 8.5008H445.851M431.224 16.8017L425.996 19.7691M480.119 8.5008L484.102 5.9175M480.119 8.5008H445.851M445.851 8.5008L447.576 7.52196L450.403 5.9175M352.495 19.7691H389.245M352.495 19.7691H315.744M383.146 22.8459L389.245 19.7691M383.146 22.8459L376.818 26.0382M383.146 22.8459H420.575M389.245 19.7691H425.996M315.744 19.7691H278.994M315.744 19.7691L322.934 16.8017M425.996 19.7691L420.575 22.8459M322.934 16.8017H286.837M376.818 26.0382L375.198 26.8549L370.247 29.3526M376.818 26.0382H414.95M420.575 22.8459L414.95 26.0382M414.95 26.0382L409.109 29.3526M331.386 29.3526L330.454 29.7762L323.801 32.7969M331.386 29.3526H370.247M331.386 29.3526H292.525M370.247 29.3526L363.421 32.7969M370.247 29.3526H409.109M409.109 29.3526L408.364 29.7762L403.041 32.7969M323.801 32.7969H363.421M323.801 32.7969H284.181M356.322 36.3781L363.421 32.7969M356.322 36.3781L348.935 40.1047M356.322 36.3781H396.731M363.421 32.7969H403.041M284.181 32.7969H244.561M284.181 32.7969L292.525 29.3526M403.041 32.7969L396.731 36.3781M292.525 29.3526H253.663M348.935 40.1047L341.241 43.9858M348.935 40.1047H390.164M396.731 36.3781L390.164 40.1047M390.164 40.1047L383.326 43.9858M299.157 43.9858L290.247 48.0314M299.157 43.9858H341.241M299.157 43.9858H257.073M341.241 43.9858L333.222 48.0314M341.241 43.9858H383.326M383.326 43.9858L376.197 48.0314M290.247 48.0314H333.222M290.247 48.0314H247.271M324.856 52.252L333.222 48.0314M324.856 52.252L316.119 56.6589M324.856 52.252H368.76M333.222 48.0314H376.197M247.271 48.0314H204.296M247.271 48.0314L257.073 43.9858M376.197 48.0314L368.76 52.252M257.073 43.9858H214.988M316.119 56.6589L306.988 61.2655M316.119 56.6589H360.995M368.76 52.252L360.995 56.6589M360.995 56.6589L352.878 61.2655M261.098 61.2655L250.483 66.0851M261.098 61.2655H306.988M261.098 61.2655H215.208M306.988 61.2655L297.435 66.0851M306.988 61.2655H352.878M352.878 61.2655L344.386 66.0851M250.483 66.0851H297.435M250.483 66.0851H203.531M287.428 71.1328L297.435 66.0851M287.428 71.1328L276.937 76.4254M287.428 71.1328H335.492M297.435 66.0851H344.386M203.531 66.0851H156.579M203.531 66.0851L215.208 61.2655M344.386 66.0851L335.492 71.1328M215.208 61.2655H169.317M276.937 76.4254L265.924 81.9814M276.937 76.4254H326.166M335.492 71.1328L326.166 76.4254M326.166 76.4254L316.377 81.9814M215.471 81.9814L202.611 87.8202M215.471 81.9814H265.924M215.471 81.9814H165.018M265.924 81.9814L254.349 87.8202M265.924 81.9814H316.377M316.377 81.9814L306.089 87.8202M202.611 87.8202H254.349M202.611 87.8202H150.871M242.169 93.9647L254.349 87.8202M242.169 93.9647L229.335 100.439M242.169 93.9647H295.262M254.349 87.8202H306.089M150.871 87.8202H99.1326M150.871 87.8202L165.018 81.9814M306.089 87.8202L295.262 93.9647M165.018 81.9814H114.565M229.335 100.439L215.792 107.272M229.335 100.439H283.853M295.262 93.9647L283.853 100.439M283.853 100.439L271.816 107.272M159.769 107.272L143.868 114.491M159.769 107.272H215.792M159.769 107.272H103.746M215.792 107.272L201.481 114.491M215.792 107.272H271.816M271.816 107.272L259.094 114.491M143.868 114.491H201.481M143.868 114.491H86.2546M186.333 122.133L201.481 114.491M186.333 122.133L170.274 130.234M186.333 122.133H245.629M201.481 114.491H259.094M86.2546 114.491H28.6413M86.2546 114.491L103.746 107.272M259.094 114.491L245.629 122.133M103.746 107.272H47.7231M170.274 130.234L153.217 138.839M170.274 130.234H231.355M245.629 122.133L231.355 130.234M231.355 130.234L216.193 138.839M90.2417 138.839L70.0775 147.994M90.2417 138.839H153.217M90.2417 138.839H27.2658M153.217 138.839L135.07 147.994M153.217 138.839H216.193M216.193 138.839L200.062 147.994M70.0775 147.994H135.07M70.0775 147.994H5.08526M115.72 157.755L135.07 147.994M115.72 157.755L95.0481 168.184M115.72 157.755H182.863M135.07 147.994H200.062M5.08526 147.994L27.2658 138.839M5.08526 147.994H0.387546M5.08526 147.994L0.387546 149.933M200.062 147.994L182.863 157.755M27.2658 138.839H0.387546M95.0481 168.184L72.911 179.351M95.0481 168.184H164.487M182.863 157.755L164.487 168.184M164.487 168.184L144.809 179.351M1.01196 179.351H72.911M1.01196 179.351H0.387546M1.01196 179.351L0.387546 179.635M72.911 179.351L49.1473 191.339M72.911 179.351H144.809M144.809 179.351L123.687 191.339M23.5726 204.241L49.1473 191.339M23.5726 204.241H100.953M23.5726 204.241H0.387546M23.5726 204.241L0.387546 215.937M49.1473 191.339H123.687M49.1473 191.339H0.387546M123.687 191.339L100.953 204.241M100.953 204.241L76.4183 218.166M76.4183 218.166L49.8579 233.24M76.4183 218.166H0.387546M49.8579 233.24L21.0104 249.611M49.8579 233.24H0.387546M21.0104 249.611H0.387546M21.0104 249.611L0.387546 261.316M214.642 16.8017L205.493 19.7691M214.642 16.8017H250.74M214.642 16.8017H178.546M258.939 13.9379L266.857 11.1725M258.939 13.9379L250.74 16.8017M258.939 13.9379H294.405M266.857 11.1725H301.714M266.857 11.1725L274.507 8.5008M240.239 8.5008H274.507M240.239 8.5008L248.204 5.9175M240.239 8.5008H205.97M250.74 16.8017L242.243 19.7691M250.74 16.8017H286.837M294.405 13.9379L301.714 11.1725M294.405 13.9379L286.837 16.8017M301.714 11.1725L308.776 8.5008M274.507 8.5008L275.445 8.17277L281.904 5.9175M274.507 8.5008H308.776M286.837 16.8017L278.994 19.7691M343.045 8.5008L349.303 5.9175M343.045 8.5008H308.776M308.776 8.5008L309.642 8.17277L315.603 5.9175M205.493 19.7691H242.243M205.493 19.7691H168.742M233.433 22.8459L242.243 19.7691M233.433 22.8459L224.293 26.0382M233.433 22.8459H270.862M242.243 19.7691H278.994M168.742 19.7691H131.992M168.742 19.7691L178.546 16.8017M278.994 19.7691L270.862 22.8459M178.546 16.8017H142.449M224.293 26.0382L214.802 29.3526M224.293 26.0382H262.424M270.862 22.8459L269.824 23.2381L262.424 26.0382M262.424 26.0382L253.663 29.3526M175.941 29.3526L165.321 32.7969M175.941 29.3526H214.802M175.941 29.3526H137.079M214.802 29.3526L204.941 32.7969M214.802 29.3526H253.663M253.663 29.3526L244.561 32.7969M165.321 32.7969H204.941M165.321 32.7969H125.701M194.687 36.3781L204.941 32.7969M194.687 36.3781L184.017 40.1047M194.687 36.3781H235.096M204.941 32.7969H244.561M125.701 32.7969H86.0814M125.701 32.7969L137.079 29.3526M244.561 32.7969L235.096 36.3781M137.079 29.3526H98.2181M184.017 40.1047L172.904 43.9858M184.017 40.1047H225.246M235.096 36.3781L225.246 40.1047M225.246 40.1047L214.988 43.9858M130.82 43.9858L118.345 48.0314M130.82 43.9858H172.904M130.82 43.9858H88.735M172.904 43.9858L161.321 48.0314M172.904 43.9858H214.988M214.988 43.9858L204.296 48.0314M118.345 48.0314H161.321M118.345 48.0314H75.3697M149.236 52.252L161.321 48.0314M149.236 52.252L136.617 56.6589M149.236 52.252H193.141M161.321 48.0314H204.296M75.3697 48.0314H32.3946M75.3697 48.0314L88.735 43.9858M204.296 48.0314L193.141 52.252M88.735 43.9858H46.6511M136.617 56.6589L123.427 61.2655M136.617 56.6589H181.492M193.141 52.252L181.492 56.6589M181.492 56.6589L169.317 61.2655M77.5368 61.2655L62.676 66.0851M77.5368 61.2655H123.427M77.5368 61.2655H31.6472M123.427 61.2655L109.628 66.0851M123.427 61.2655H169.317M169.317 61.2655L156.579 66.0851M62.676 66.0851H109.628M95.174 71.1328L109.628 66.0851M95.174 71.1328L80.0202 76.4254M95.174 71.1328H143.238M109.628 66.0851H156.579M156.579 66.0851L143.238 71.1328M31.6472 61.2655H0.387546M80.0202 76.4254L64.1122 81.9814M80.0202 76.4254H129.249M143.238 71.1328L129.249 76.4254M129.249 76.4254L114.565 81.9814M13.6591 81.9814H64.1122M13.6591 81.9814H0.387546M13.6591 81.9814L0.387546 86.2853M64.1122 81.9814L47.3932 87.8202M64.1122 81.9814H114.565M114.565 81.9814L99.1326 87.8202M29.8002 93.9647L47.3932 87.8202M29.8002 93.9647L11.2619 100.439M29.8002 93.9647H82.8926M29.8002 93.9647H0.387546M47.3932 87.8202H99.1326M47.3932 87.8202H0.387546M99.1326 87.8202L82.8926 93.9647M0.241375 86.3327L0.387546 86.2853M11.2619 100.439H65.7801M11.2619 100.439H0.387546M11.2619 100.439L0.387546 104.237M82.8926 93.9647L65.7801 100.439M65.7801 100.439L47.7231 107.272M47.7231 107.272L28.6413 114.491M47.7231 107.272H0.387546M8.44421 122.133L28.6413 114.491M8.44421 122.133H0.387546M8.44421 122.133L0.387546 125.181M28.6413 114.491H0.387546M70.2552 16.8017L58.491 19.7691M70.2552 16.8017H106.352M70.2552 16.8017H34.1576M117.074 13.9379L127.428 11.1725M117.074 13.9379L106.352 16.8017M117.074 13.9379H152.541M127.428 11.1725H162.285M127.428 11.1725L137.433 8.5008M103.164 8.5008H137.433M103.164 8.5008L113.405 5.9175M103.164 8.5008H68.8954M106.352 16.8017L95.2415 19.7691M106.352 16.8017H142.449M152.541 13.9379L162.285 11.1725M152.541 13.9379L142.449 16.8017M162.285 11.1725L171.701 8.5008M137.433 8.5008H171.701M137.433 8.5008L147.105 5.9175M142.449 16.8017L131.992 19.7691M205.97 8.5008L214.504 5.9175M205.97 8.5008H171.701M171.701 8.5008L180.805 5.9175M58.491 19.7691H95.2415M58.491 19.7691H21.7405M83.7209 22.8459L95.2415 19.7691M83.7209 22.8459L71.7679 26.0382M83.7209 22.8459H121.149M95.2415 19.7691H131.992M21.7405 19.7691L34.1576 16.8017M21.7405 19.7691H0.387546M131.992 19.7691L121.149 22.8459M34.1576 16.8017H0.387546M71.7679 26.0382L59.3568 29.3526M71.7679 26.0382H109.899M121.149 22.8459L109.899 26.0382M109.899 26.0382L98.2181 29.3526M20.4955 29.3526L6.84157 32.7969M20.4955 29.3526H59.3568M20.4955 29.3526H0.387546M59.3568 29.3526L46.4615 32.7969M59.3568 29.3526H98.2181M98.2181 29.3526L86.0814 32.7969M33.0527 36.3781L46.4615 32.7969M33.0527 36.3781L19.099 40.1047M33.0527 36.3781H73.4612M33.0527 36.3781H0.387546M46.4615 32.7969H6.84157M46.4615 32.7969H86.0814M6.84157 32.7969L0.387546 34.4246M6.84157 32.7969H0.387546M86.0814 32.7969L73.4612 36.3781M19.099 40.1047L4.56654 43.9858M19.099 40.1047H60.3283M19.099 40.1047H0.387546M73.4612 36.3781L60.3283 40.1047M60.3283 40.1047L46.6511 43.9858M4.56654 43.9858H46.6511M4.56654 43.9858L0.387546 45.1017M4.56654 43.9858H0.387546M46.6511 43.9858L32.3946 48.0314M17.5211 52.252L32.3946 48.0314M17.5211 52.252L1.99018 56.6589M17.5211 52.252H0.387546M32.3946 48.0314H0.387546M0.162665 48.0314H0.387546M1.99018 56.6589H0.387546M1.99018 56.6589L0.387546 57.1137M0 57.2237L0.387546 57.1137M10.6758 13.9379L22.8567 11.1725M10.6758 13.9379H0.387546M10.6758 13.9379L0.387546 16.2733M22.8567 11.1725L34.6269 8.5008M22.8567 11.1725H0.387546M68.8954 8.5008L79.7053 5.9175M68.8954 8.5008H34.6269M34.6269 8.5008L46.0057 5.9175M34.6269 8.5008H0.387546M1191.8 5.9175H1225.5M1191.8 5.9175H1158.1M1217.24 3.41881L1219.28 4.03588L1225.5 5.9175M1217.24 3.41881H1250.39M1225.5 5.9175H1259.2M1250.39 3.41881L1252.56 4.03588L1253.66 4.34584L1259.2 5.9175M1259.2 5.9175H1292.89M1292.89 5.9175H1326.6M1158.1 5.9175H1124.4M1326.6 5.9175H1360.29M1360.29 5.9175L1349.84 3.41881M1360.29 5.9175H1393.99M1349.84 3.41881H1382.99M1057 5.9175H1090.7M1057 5.9175H1023.3M1084.64 3.41881L1086.14 4.03588L1086.89 4.34584L1090.7 5.9175M1084.64 3.41881H1117.79M1090.7 5.9175H1124.4M1117.79 3.41881L1124.4 5.9175M1023.3 5.9175H989.598M922.198 5.9175H955.898M922.198 5.9175H888.499M952.045 3.41881L952.52 3.72639L952.996 4.03588L953.475 4.34584L955.898 5.9175M952.045 3.41881H985.194M955.898 5.9175H989.598M985.194 3.41881L989.598 5.9175M888.499 5.9175H854.798M787.399 5.9175H821.099M787.399 5.9175H753.7M819.448 3.41881L821.099 5.9175M819.448 3.41881H852.598M821.099 5.9175H854.798M852.598 3.41881L852.869 3.72639L853.141 4.03588L853.415 4.34584L854.798 5.9175M753.7 5.9175H720M652.601 5.9175H686.3M652.601 5.9175H618.901M686.851 3.41881L686.3 5.9175M686.851 3.41881H720M686.3 5.9175H720M720 3.41881V5.9175M618.901 5.9175H585.201M517.802 5.9175H551.501M517.802 5.9175H484.102M554.253 3.41881L553.574 4.03588L552.198 5.28475L551.501 5.9175M554.253 3.41881H587.402M551.501 5.9175H585.201M587.402 3.41881L587.131 3.72639L586.859 4.03588L586.585 4.34584L585.201 5.9175M484.102 5.9175H450.403M383.003 5.9175H416.703M383.003 5.9175H349.303M421.656 3.41881L420.433 4.03588L419.817 4.34584L416.703 5.9175M421.656 3.41881H454.806M416.703 5.9175H450.403M454.806 3.41881L454.263 3.72639L450.403 5.9175M349.303 5.9175H315.603M248.204 5.9175H281.904M248.204 5.9175H214.504M289.059 3.41881L287.292 4.03588L286.403 4.34584L281.904 5.9175M289.059 3.41881H322.208M281.904 5.9175H315.603M322.208 3.41881L321.394 3.72639L315.603 5.9175M214.504 5.9175H180.805M113.405 5.9175H147.105M113.405 5.9175H79.7053M156.461 3.41881L147.105 5.9175M156.461 3.41881H189.61M147.105 5.9175H180.805M189.61 3.41881L187.437 4.03588L186.342 4.34584L180.805 5.9175M79.7053 5.9175H46.0057M23.8641 3.41881L12.3061 5.9175M23.8641 3.41881H57.0136M23.8641 3.41881H0.387546M12.3061 5.9175H46.0057M12.3061 5.9175L0.387546 8.49448M12.3061 5.9175H0.387546M57.0136 3.41881L54.2955 4.03588L46.0057 5.9175M1382.99 3.41881L1385.7 4.03588L1393.99 5.9175M1393.99 5.9175H1427.69M1427.69 5.9175L1439.61 8.49449M1427.69 5.9175H1439.61M1439.61 125.181V122.133M1439.61 125.181V130.234M1439.61 122.133V114.491M1439.61 130.234V131.744V138.839M1439.61 138.839V147.994M1439.61 66.0851V61.2655M1439.61 66.0851V70.7272M1439.61 3.41881V5.9175M1439.61 5.9175V8.49449M1439.61 8.49449L1439.64 8.5008H1439.61M1439.61 8.49449V8.5008M1439.61 8.5008V11.1725M1439.61 11.1725V13.9379M1439.61 13.9379V16.2733M1439.61 16.2733V16.8017M1439.61 16.8017V19.7691M1439.61 19.7691V22.8459M1439.61 22.8459V24.8711M1439.61 24.8711V26.0382M1439.61 26.0382V29.3526M1439.61 29.3526V32.7969M1439.61 32.7969V34.4246M1439.61 34.4246V36.3781M1439.61 36.3781V40.1047M1439.61 40.1047V43.9858M1439.61 43.9858V45.1017M1439.61 45.1017V48.0314M1439.61 48.0314V52.252M1439.61 52.252V56.6589M1439.61 56.6589V57.1137M1439.61 57.1137V61.2655M1439.61 71.1328V76.4254M1439.61 71.1328V70.7272M1439.61 76.4254V81.9814M1439.61 81.9814V86.2853M1439.61 86.2853V87.8202M1439.61 87.8202V93.9647M1439.61 93.9647V100.439M1439.61 100.439V104.237M1439.61 104.237V107.272M1439.61 107.272V114.491M1439.61 147.994V149.933M1439.61 149.933V157.755M1439.61 157.755V168.184M1439.61 168.184V179.351M1439.61 179.351V179.635M1439.61 179.635V191.339M1439.61 191.339V204.241M1439.61 204.241V215.937M1439.61 215.937V218.166M1439.61 218.166V233.24M1439.61 233.24V249.611M1439.61 249.611V261.316M1439.61 261.316V267.456M1439.61 267.456V286.981M1439.61 286.981V308.437M1439.61 308.437V319.659M1439.61 319.659V332.125M1439.61 332.125V332.209H0.387546V332.125M0.387546 71.1328V76.4254M0.387546 71.1328V70.7272M0.387546 70.7272V66.0851M0.387546 66.0851V61.2655M0.387546 61.2655V57.1137M0.387546 57.1137V56.6589M0.387546 56.6589V52.252M0.387546 52.252V48.0314M0.387546 48.0314V45.1017M0.387546 45.1017V43.9858M0.387546 43.9858V40.1047M0.387546 40.1047V36.3781M0.387546 36.3781V34.4246M0.387546 34.4246V32.7969M0.387546 32.7969V29.3526M0.387546 29.3526V26.0382M0.387546 26.0382V24.8711M0.387546 24.8711V22.8459M0.387546 22.8459V19.7691M0.387546 19.7691V16.8017M0.387546 16.8017V16.2733M0.387546 16.2733V13.9379M0.387546 13.9379V11.1725M0.387546 11.1725V8.5008M0.387546 8.5008H0.35831L0.387546 8.49448M0.387546 8.5008V8.49448M0.387546 8.49448V5.9175M0.387546 5.9175V3.41881M0.387546 332.125V319.659M0.387546 319.659V308.437M0.387546 308.437V286.982M0.387546 286.982V267.456M0.387546 267.456V261.316M0.387546 261.316V249.611M0.387546 249.611V233.24M0.387546 233.24V218.166M0.387546 218.166V215.937M0.387546 215.937V204.241M0.387546 204.241V191.339M0.387546 191.339V179.635M0.387546 179.635V179.351M0.387546 179.351V168.184M0.387546 168.184V157.755M0.387546 157.755V149.933M0.387546 149.933V147.994M0.387546 147.994V138.839M0.387546 138.839V130.234M0.387546 130.234V125.181M0.387546 125.181V122.133M0.387546 122.133V114.491M0.387546 114.491V107.272M0.387546 107.272V104.237M0.387546 104.237V100.439M0.387546 100.439V93.9647M0.387546 93.9647V87.8202M0.387546 87.8202V86.2853M0.387546 86.2853V81.9814M0.387546 81.9814V76.4254" stroke="url(#paint0_linear_277_1866)" stroke-opacity="0.2" stroke-width="0.870405" stroke-miterlimit="10" stroke-linecap="round" stroke-linejoin="round"/>
<defs>
<linearGradient id="paint0_linear_277_1866" x1="720" y1="1" x2="720" y2="233.218" gradientUnits="userSpaceOnUse">
<stop stop-color="#6259E8" stop-opacity="0"/>
<stop offset="1" stop-color="#6259E8"/>
</linearGradient>
</defs>
</svg>