<svg xmlns="http://www.w3.org/2000/svg" width="1440" height="332" viewBox="0 0 1440 332" fill="none">
<path d="M23.8641 328.581L35.0503 331M23.8641 328.581L57.0135 328.581M23.8641 328.581L12.3061 326.082M23.8641 328.581L0.387477 328.581M35.0503 331L30.9799 330.999L26.9516 330.994L23.0072 330.979L19.1865 330.95L15.5315 330.903L12.0811 330.832L8.87653 330.734L5.90221 330.608L3.34981 330.435L1.02608 330.234L0.387477 330.163L0.387477 328.581M35.0503 331L67.6667 331M67.6667 331L100.283 331M67.6667 331L57.0135 328.581M100.283 331L132.9 331M100.283 331L90.1629 328.581M132.9 331L165.517 331M132.9 331L123.312 328.581M165.517 331L198.133 331M165.517 331L156.461 328.581M198.133 331L230.75 331M198.133 331L189.61 328.581M230.75 331L263.367 331M230.75 331L222.76 328.581M263.367 331L295.983 331M263.367 331L255.909 328.581M295.983 331L328.6 331M295.983 331L289.059 328.581M328.6 331L361.217 331M328.6 331L322.208 328.581M361.217 331L393.833 331M361.217 331L355.357 328.581M393.833 331L426.45 331M393.833 331L388.507 328.581M426.45 331L459.067 331M426.45 331L425.266 330.402L423.472 329.498L421.656 328.581M459.067 331L491.683 331M459.067 331L458.015 330.402L454.806 328.581M491.683 331L524.3 331M491.683 331L487.955 328.581M524.3 331L556.917 331M524.3 331L523.114 330.102L521.912 329.193L521.509 328.888L521.104 328.581M556.917 331L589.533 331M556.917 331L555.928 330.102L555.596 329.801L555.262 329.498L554.253 328.581M589.533 331L622.15 331M589.533 331L587.402 328.581M622.15 331L621.953 330.702L621.756 330.402L620.755 328.888L620.552 328.581M622.15 331L654.766 331M654.766 331L687.384 331M654.766 331L653.701 328.581M687.384 331L720 331M687.384 331L687.186 330.102L686.851 328.581M720 331L752.616 331M720 331L720 328.581M752.616 331L785.234 331M752.616 331L752.814 330.102L753.149 328.581M785.234 331L817.85 331M785.234 331L786.299 328.581M817.85 331L818.047 330.702L818.244 330.402L819.245 328.888L819.448 328.581M817.85 331L850.466 331M850.466 331L883.084 331M850.466 331L852.327 328.888L852.598 328.581M883.084 331L915.7 331M883.084 331L884.072 330.102L884.404 329.801L885.073 329.193L885.409 328.888L885.747 328.581M915.7 331L948.317 331M915.7 331L916.886 330.102L918.087 329.193L918.491 328.888L918.896 328.581M948.317 331L980.933 331M948.317 331L952.045 328.581M980.933 331L1013.55 331M980.933 331L981.985 330.402L985.194 328.581M1013.55 331L1046.17 331M1013.55 331L1018.34 328.581M1046.17 331L1078.78 331M1046.17 331L1051.49 328.581M1078.78 331L1111.4 331M1078.78 331L1084.64 328.581M1111.4 331L1144.02 331M1111.4 331L1117.79 328.581M1144.02 331L1176.63 331M1144.02 331L1150.94 328.581M1176.63 331L1209.25 331M1176.63 331L1184.09 328.581M1209.25 331L1241.87 331M1209.25 331L1217.24 328.581M1241.87 331L1274.48 331M1241.87 331L1250.39 328.581M1274.48 331L1307.1 331M1274.48 331L1283.54 328.581M1307.1 331L1339.72 331M1307.1 331L1316.69 328.581M1339.72 331L1372.33 331M1339.72 331L1349.84 328.581M1372.33 331L1404.95 331M1372.33 331L1382.99 328.581M1404.95 331L1409.02 330.999L1413.05 330.994L1416.99 330.979L1420.81 330.95L1424.47 330.903L1427.92 330.832L1431.12 330.734L1434.1 330.608L1436.65 330.435L1438.97 330.234L1439.61 330.163L1439.61 328.581M1404.95 331L1416.14 328.581M1349.84 328.581L1316.69 328.581M1349.84 328.581L1382.99 328.581M1349.84 328.581L1360.29 326.082M1316.69 328.581L1326.6 326.082M1316.69 328.581L1283.54 328.581M1217.24 328.581L1184.09 328.581M1217.24 328.581L1250.39 328.581M1217.24 328.581L1219.28 327.964L1225.5 326.082M1184.09 328.581L1191.8 326.082M1184.09 328.581L1150.94 328.581M1084.64 328.581L1051.49 328.581M1084.64 328.581L1117.79 328.581M1084.64 328.581L1086.14 327.964L1086.89 327.654L1090.7 326.082M1051.49 328.581L1052.17 328.274L1052.85 327.964L1057 326.082M1051.49 328.581L1018.34 328.581M952.045 328.581L952.52 328.274L955.898 326.082M952.045 328.581L918.896 328.581M952.045 328.581L985.194 328.581M918.896 328.581L919.711 327.964L920.122 327.654L920.533 327.342L922.198 326.082M918.896 328.581L885.747 328.581M819.448 328.581L786.299 328.581M819.448 328.581L852.598 328.581M819.448 328.581L821.099 326.082M786.299 328.581L786.434 328.274L786.57 327.964L786.707 327.654L787.121 326.715L787.399 326.082M786.299 328.581L753.149 328.581M686.851 328.581L653.701 328.581M686.851 328.581L720 328.581M686.851 328.581L686.3 326.082M653.701 328.581L653.566 328.274L653.43 327.964L653.293 327.654L652.601 326.082M653.701 328.581L620.552 328.581M554.253 328.581L521.104 328.581M554.253 328.581L587.402 328.581M554.253 328.581L553.574 327.964L552.198 326.715L551.851 326.4L551.501 326.082M521.104 328.581L520.289 327.964L519.878 327.654L519.466 327.342L517.802 326.082M521.104 328.581L487.955 328.581M421.656 328.581L388.507 328.581M421.656 328.581L454.806 328.581M421.656 328.581L420.433 327.964L419.817 327.654L416.703 326.082M388.507 328.581L387.828 328.274L387.148 327.964L383.003 326.082M388.507 328.581L355.357 328.581M289.059 328.581L255.909 328.581M289.059 328.581L322.208 328.581M289.059 328.581L287.292 327.964L286.403 327.654L281.904 326.082M255.909 328.581L248.204 326.082M255.909 328.581L222.76 328.581M156.461 328.581L123.312 328.581M156.461 328.581L189.61 328.581M156.461 328.581L147.105 326.082M123.312 328.581L113.405 326.082M123.312 328.581L90.1629 328.581M1439.73 305.962L1439.61 305.962M1406.36 305.962L1393.71 309.154M1406.36 305.962L1419.5 302.647M1406.36 305.962L1368.23 305.962M1406.36 305.962L1439.61 305.962M1393.71 309.154L1431.14 309.154M1393.71 309.154L1381.51 312.231M1393.71 309.154L1356.28 309.154M1431.14 309.154L1418.26 312.231M1431.14 309.154L1439.61 309.154M1431.14 309.154L1439.61 307.129M1393.86 318.062L1358.39 318.062M1393.86 318.062L1382.29 320.827M1393.86 318.062L1429.32 318.062M1393.86 318.062L1405.84 315.198M1358.39 318.062L1347.43 320.827M1358.39 318.062L1369.74 315.198M1358.39 318.062L1322.93 318.062M1382.29 320.827L1347.43 320.827M1382.29 320.827L1371.1 323.499M1382.29 320.827L1417.14 320.827M1347.43 320.827L1312.57 320.827M1347.43 320.827L1336.84 323.499M1439.98 255.575L1439.61 255.575M1409.21 255.575L1392.89 260.867M1409.21 255.575L1426.34 250.019M1409.21 255.575L1359.98 255.575M1409.21 255.575L1439.61 255.575M1392.89 260.867L1377.32 265.915M1392.89 260.867L1344.83 260.867M1392.89 260.867L1439.61 260.867M1424.28 265.915L1377.32 265.915M1424.28 265.915L1408.35 270.734M1424.28 265.915L1439.61 265.915M1424.28 265.915L1439.61 261.273M1393.13 275.341L1348.26 275.341M1393.13 275.341L1378.57 279.748M1393.13 275.341L1438.01 275.341M1393.13 275.341L1408.35 270.734M1348.26 275.341L1334.67 279.748M1348.26 275.341L1362.46 270.734M1348.26 275.341L1303.38 275.341M1378.57 279.748L1334.67 279.748M1378.57 279.748L1422.48 279.748M1378.57 279.748L1364.63 283.969M1334.67 279.748L1321.66 283.969M1334.67 279.748L1290.76 279.748M1338.44 291.895L1297.21 291.895M1338.44 291.895L1326.13 295.622M1338.44 291.895L1379.67 291.895M1338.44 291.895L1351.27 288.014M1297.21 291.895L1285.72 295.622M1297.21 291.895L1309.18 288.014M1297.21 291.895L1255.98 291.895M1326.13 295.622L1285.72 295.622M1326.13 295.622L1366.54 295.622M1326.13 295.622L1314.3 299.203M1285.72 295.622L1274.68 299.203M1285.72 295.622L1245.31 295.622M1291.97 305.962L1253.84 305.962M1291.97 305.962L1281.42 309.154M1291.97 305.962L1330.1 305.962M1291.97 305.962L1302.92 302.647M1253.84 305.962L1243.99 309.154M1253.84 305.962L1264.06 302.647M1253.84 305.962L1215.71 305.962M1281.42 309.154L1243.99 309.154M1281.42 309.154L1318.85 309.154M1281.42 309.154L1271.26 312.231M1243.99 309.154L1234.51 312.231M1243.99 309.154L1206.57 309.154M1251.99 318.062L1216.53 318.062M1251.99 318.062L1242.86 320.827M1251.99 318.062L1287.46 318.062M1251.99 318.062L1261.45 315.198M1216.53 318.062L1208 320.827M1216.53 318.062L1225.36 315.198M1216.53 318.062L1181.06 318.062M1242.86 320.827L1208 320.827M1242.86 320.827L1234.03 323.499M1242.86 320.827L1277.71 320.827M1208 320.827L1173.14 320.827M1208 320.827L1199.76 323.499M1414.39 163.816L1391.42 174.245M1414.39 163.816L1438.99 152.649M1414.39 163.816L1344.95 163.816M1414.39 163.816L1439.61 163.816M1391.42 174.245L1369.92 184.006M1391.42 174.245L1324.28 174.245M1391.42 174.245L1439.61 174.245M1391.89 201.766L1330.81 201.766M1391.89 201.766L1372.26 209.867M1391.89 201.766L1412.73 193.161M1391.89 201.766L1439.61 201.766M1330.81 201.766L1312.96 209.867M1330.81 201.766L1349.76 193.161M1330.81 201.766L1269.73 201.766M1372.26 209.867L1312.96 209.867M1372.26 209.867L1431.56 209.867M1372.26 209.867L1353.75 217.509M1312.96 209.867L1296.13 217.509M1312.96 209.867L1253.67 209.867M1319.7 231.561L1265.18 231.561M1319.7 231.561L1304.01 238.035M1319.7 231.561L1374.22 231.561M1319.7 231.561L1336.25 224.728M1265.18 231.561L1250.92 238.035M1265.18 231.561L1280.23 224.728M1265.18 231.561L1210.66 231.561M1304.01 238.035L1250.92 238.035M1304.01 238.035L1357.11 238.035M1304.01 238.035L1289.13 244.18M1250.92 238.035L1237.39 244.18M1250.92 238.035L1197.83 238.035M1261.52 255.575L1212.29 255.575M1261.52 255.575L1248.7 260.867M1261.52 255.575L1310.75 255.575M1261.52 255.575L1274.98 250.019M1212.29 255.575L1200.64 260.867M1212.29 255.575L1224.53 250.019M1212.29 255.575L1163.06 255.575M1248.7 260.867L1200.64 260.867M1248.7 260.867L1296.76 260.867M1248.7 260.867L1236.47 265.915M1200.64 260.867L1189.52 265.915M1200.64 260.867L1152.57 260.867M1213.63 275.341L1168.76 275.341M1213.63 275.341L1202.95 279.748M1213.63 275.341L1258.51 275.341M1213.63 275.341L1224.79 270.734M1168.76 275.341L1159.05 279.748M1168.76 275.341L1178.9 270.734M1168.76 275.341L1123.88 275.341M1202.95 279.748L1159.05 279.748M1202.95 279.748L1246.86 279.748M1202.95 279.748L1192.73 283.969M1159.05 279.748L1149.75 283.969M1159.05 279.748L1115.14 279.748M1173.52 291.895L1132.3 291.895M1173.52 291.895L1164.5 295.622M1173.52 291.895L1214.75 291.895M1173.52 291.895L1182.93 288.014M1132.3 291.895L1131.25 292.369L1124.09 295.622M1132.3 291.895L1140.84 288.014M1132.3 291.895L1091.07 291.895M1164.5 295.622L1124.09 295.622M1164.5 295.622L1204.9 295.622M1164.5 295.622L1155.82 299.203M1124.09 295.622L1116.2 299.203M1124.09 295.622L1083.68 295.622M1139.44 305.962L1101.31 305.962M1139.44 305.962L1131.71 309.154M1139.44 305.962L1177.58 305.962M1139.44 305.962L1147.48 302.647M1101.31 305.962L1094.28 309.154M1101.31 305.962L1104.02 304.733L1108.61 302.647M1101.31 305.962L1063.18 305.962M1131.71 309.154L1094.28 309.154M1131.71 309.154L1169.14 309.154M1131.71 309.154L1124.26 312.231M1094.28 309.154L1087.51 312.231M1094.28 309.154L1056.85 309.154M1110.13 318.062L1074.66 318.062M1110.13 318.062L1103.43 320.827M1110.13 318.062L1145.59 318.062M1110.13 318.062L1117.07 315.198M1074.66 318.062L1070.07 320.145L1069.32 320.487L1068.57 320.827M1074.66 318.062L1080.97 315.198M1074.66 318.062L1039.2 318.062M1103.43 320.827L1068.57 320.827M1103.43 320.827L1096.96 323.499M1103.43 320.827L1138.29 320.827M1068.57 320.827L1033.71 320.827M1068.57 320.827L1062.69 323.499M1389.23 45.0187L1293.63 45.0187M1389.23 45.0187L1359.13 64.5441M1389.23 45.0187L1422.31 23.5626M1389.23 45.0187L1439.61 45.0183M1293.63 45.0187L1267.82 64.5441M1293.63 45.0187L1321.98 23.5626M1293.63 45.0187L1198.02 45.0187M1359.13 64.5441L1267.82 64.5441M1359.13 64.5441L1331.62 82.3886M1359.13 64.5441L1439.61 64.5442M1267.82 64.5441L1244.24 82.3886M1267.82 64.5441L1176.52 64.5441M1283.13 113.834L1202.69 113.834M1283.13 113.834L1261.67 127.759M1283.13 113.834L1363.58 113.834M1283.13 113.834L1306.37 98.7603M1202.69 113.834L1184.28 127.759M1202.69 113.834L1222.61 98.7603M1202.69 113.834L1122.24 113.834M1261.67 127.759L1184.28 127.759M1261.67 127.759L1339.05 127.759M1261.67 127.759L1241.77 140.661M1184.28 127.759L1167.23 140.661M1184.28 127.759L1106.9 127.759M1206.07 163.816L1136.63 163.816M1206.07 163.816L1189.99 174.245M1206.07 163.816L1275.51 163.816M1206.07 163.816L1223.29 152.649M1136.63 163.816L1122.85 174.245M1136.63 163.816L1151.39 152.649M1136.63 163.816L1067.2 163.816M1189.99 174.245L1122.85 174.245M1189.99 174.245L1257.14 174.245M1189.99 174.245L1174.95 184.006M1122.85 174.245L1109.95 184.006M1122.85 174.245L1055.71 174.245M1147.57 201.766L1086.48 201.766M1147.57 201.766L1135.07 209.867M1147.57 201.766L1208.65 201.766M1147.57 201.766L1160.83 193.161M1086.48 201.766L1075.78 209.867M1086.48 201.766L1097.86 193.161M1086.48 201.766L1025.4 201.766M1135.07 209.867L1075.78 209.867M1135.07 209.867L1194.37 209.867M1135.07 209.867L1123.29 217.509M1075.78 209.867L1065.68 217.509M1075.78 209.867L1016.48 209.867M1101.63 231.561L1047.11 231.561M1101.63 231.561L1091.65 238.035M1101.63 231.561L1156.15 231.561M1101.63 231.561L1112.16 224.728M1047.11 231.561L1038.55 238.035M1047.11 231.561L1056.14 224.728M1047.11 231.561L992.591 231.561M1091.65 238.035L1038.55 238.035M1091.65 238.035L1144.74 238.035M1091.65 238.035L1082.17 244.18M1038.55 238.035L1030.43 244.18M1038.55 238.035L985.461 238.035M1064.6 255.575L1015.38 255.575M1064.6 255.575L1056.44 260.867M1064.6 255.575L1113.83 255.575M1064.6 255.575L1073.17 250.019M1015.38 255.575L1008.38 260.867M1015.38 255.575L1022.72 250.019M1015.38 255.575L966.146 255.575M1056.44 260.867L1008.38 260.867M1056.44 260.867L1104.51 260.867M1056.44 260.867L1048.66 265.915M1008.38 260.867L1001.71 265.915M1008.38 260.867L960.318 260.867M1034.13 275.341L989.253 275.341M1034.13 275.341L1027.33 279.748M1034.13 275.341L1079 275.341M1034.13 275.341L1041.23 270.734M989.253 275.341L983.43 279.748M989.253 275.341L995.341 270.734M989.253 275.341L944.378 275.341M1027.33 279.748L983.43 279.748M1027.33 279.748L1071.24 279.748M1027.33 279.748L1020.83 283.969M983.43 279.748L977.852 283.969M983.43 279.748L939.524 279.748M1008.61 291.895L967.376 291.895M1008.61 291.895L1002.86 295.622M1008.61 291.895L1049.84 291.895M1008.61 291.895L1014.59 288.014M967.376 291.895L968.007 291.419L972.506 288.014M967.376 291.895L962.452 295.622M967.376 291.895L926.147 291.895M1002.86 295.622L962.452 295.622M1002.86 295.622L1043.27 295.622M1002.86 295.622L997.339 299.203M962.452 295.622L957.719 299.203M962.452 295.622L922.043 295.622M986.919 305.962L948.788 305.962M986.919 305.962L981.997 309.154M986.919 305.962L1025.05 305.962M986.919 305.962L992.029 302.647M948.788 305.962L944.569 309.154M948.788 305.962L950.411 304.733L951.506 303.905L953.168 302.647M948.788 305.962L910.657 305.962M981.997 309.154L944.569 309.154M981.997 309.154L1019.43 309.154M981.997 309.154L977.254 312.231M944.569 309.154L943.027 310.321L942.01 311.09L940.503 312.231M944.569 309.154L907.141 309.154M968.263 318.062L932.798 318.062M968.263 318.062L965.052 320.145L964 320.827M968.263 318.062L1003.73 318.062M968.263 318.062L972.118 315.562L972.678 315.198M932.798 318.062L930.044 320.145L929.593 320.487L929.143 320.827M932.798 318.062L934.673 316.643L936.582 315.198M932.798 318.062L897.331 318.062M964 320.827L929.143 320.827M964 320.827L959.881 323.499M964 320.827L998.857 320.827M929.143 320.827L894.286 320.827M929.143 320.827L925.612 323.499M1006.81 45.0187L911.209 45.0187M1006.81 45.0187L993.912 64.5441M1006.81 45.0187L1102.42 45.0187M1006.81 45.0187L1020.99 23.5626M911.209 45.0187L902.608 64.5441M911.209 45.0187L920.66 23.5626M911.209 45.0187L815.604 45.0186M993.912 64.5441L902.608 64.5441M993.912 64.5441L1085.22 64.5441M993.912 64.5441L982.121 82.3886M902.608 64.5441L894.747 82.3886M902.608 64.5441L811.304 64.5441M961.343 113.834L880.896 113.834M961.343 113.834L952.142 127.759M961.343 113.834L1041.79 113.834M961.343 113.834L971.304 98.7603M880.896 113.834L874.762 127.759M880.896 113.834L887.535 98.7603M880.896 113.834L800.447 113.834M952.142 127.759L874.762 127.759M952.142 127.759L1029.52 127.759M952.142 127.759L943.617 140.661M874.762 127.759L869.078 140.661M874.762 127.759L797.381 127.759M928.317 163.816L858.878 163.816M928.317 163.816L921.426 174.245M928.317 163.816L997.756 163.816M928.317 163.816L935.696 152.649M858.878 163.816L854.284 174.245M858.878 163.816L863.797 152.649M858.878 163.816L789.439 163.816M921.426 174.245L854.284 174.245M921.426 174.245L988.568 174.245M921.426 174.245L914.977 184.006M854.284 174.245L849.984 184.006M854.284 174.245L787.142 174.245M903.242 201.766L842.162 201.766M903.242 201.766L897.889 209.867M903.242 201.766L964.323 201.766M903.242 201.766L908.927 193.161M842.162 201.766L838.593 209.867M842.162 201.766L845.952 193.161M842.162 201.766L781.081 201.766M897.889 209.867L838.593 209.867M897.889 209.867L957.185 209.867M897.889 209.867L892.84 217.509M838.593 209.867L835.226 217.509M838.593 209.867L779.296 209.867M883.555 231.561L829.036 231.561M883.555 231.561L879.277 238.035M883.555 231.561L938.073 231.561M883.555 231.561L888.069 224.728M829.036 231.561L826.185 238.035M829.036 231.561L832.046 224.728M829.036 231.561L774.518 231.561M879.277 238.035L826.185 238.035M879.277 238.035L932.369 238.035M879.277 238.035L875.217 244.18M826.185 238.035L823.478 244.18M826.185 238.035L773.092 238.035M867.688 255.575L818.459 255.575M867.688 255.575L864.191 260.867M867.688 255.575L916.917 255.575M867.688 255.575L871.358 250.019M818.459 255.575L816.127 260.867M818.459 255.575L820.906 250.019M818.459 255.575L769.229 255.575M864.191 260.867L816.127 260.867M864.191 260.867L912.254 260.867M864.191 260.867L862.921 262.788L860.855 265.915M816.127 260.867L813.903 265.915M816.127 260.867L768.063 260.867M854.627 275.341L809.751 275.341M854.627 275.341L851.715 279.748M854.627 275.341L899.503 275.341M854.627 275.341L856.896 271.905L857.671 270.734M809.751 275.341L809.013 277.016L807.81 279.748M809.751 275.341L811.781 270.734M809.751 275.341L764.875 275.341M851.715 279.748L851.36 280.286L848.926 283.969M851.715 279.748L807.81 279.748M851.715 279.748L895.62 279.748M807.81 279.748L807.103 281.352L806.871 281.881L806.638 282.407L805.951 283.969M807.81 279.748L763.905 279.748M843.689 291.895L802.459 291.895M843.689 291.895L842.445 293.777L842.138 294.242L841.833 294.704L841.528 295.164L841.226 295.622M843.689 291.895L884.918 291.895M843.689 291.895L846.253 288.014M802.459 291.895L801.222 294.704L801.019 295.164L800.818 295.622M802.459 291.895L804.168 288.014M802.459 291.895L761.229 291.895M841.226 295.622L800.818 295.622M841.226 295.622L881.635 295.622M841.226 295.622L839.736 297.877L839.443 298.321L838.86 299.203M800.818 295.622L799.824 297.877L799.628 298.321L799.434 298.763L799.24 299.203M800.818 295.622L760.408 295.622M834.394 305.962L796.262 305.962M834.394 305.962L832.284 309.154M834.394 305.962L872.526 305.962M834.394 305.962L834.934 305.145L835.753 303.905L836.584 302.647M796.262 305.962L796.442 305.554L797.537 303.069L797.723 302.647M796.262 305.962L794.856 309.154M796.262 305.962L758.131 305.962M832.284 309.154L794.856 309.154M832.284 309.154L869.712 309.154M832.284 309.154L830.251 312.231M794.856 309.154L794.342 310.321L794.173 310.707L794.003 311.09L793.501 312.231M794.856 309.154L757.428 309.154M826.398 318.062L790.933 318.062M826.398 318.062L825.022 320.145L824.572 320.827M826.398 318.062L861.865 318.062M826.398 318.062L827.101 317L827.336 316.643L827.574 316.284L828.291 315.198M790.933 318.062L790.778 318.413L790.471 319.11L790.166 319.802L789.715 320.827M790.933 318.062L791.558 316.643L791.715 316.284L792.034 315.562L792.194 315.198M790.933 318.062L755.466 318.062M824.572 320.827L789.715 320.827M824.572 320.827L823.024 323.17L822.806 323.499M824.572 320.827L859.429 320.827M789.715 320.827L789.565 321.166L789.416 321.504L789.268 321.84L789.121 322.175L788.682 323.17L788.537 323.499M789.715 320.827L754.857 320.827M624.396 45.0186L528.791 45.0186M624.396 45.0186L628.696 64.5441M624.396 45.0186L720 45.0186M624.396 45.0186L619.67 23.5626M528.791 45.0186L537.392 64.5441M528.791 45.0186L519.34 23.5626M528.791 45.0186L433.186 45.0186M628.696 64.5441L537.392 64.5441M628.696 64.5441L720 64.5441M628.696 64.5441L632.626 82.3886M537.392 64.5441L545.253 82.3886M537.392 64.5441L446.088 64.5441M639.553 113.834L559.104 113.834M639.553 113.834L642.619 127.759M639.553 113.834L720 113.834M639.553 113.834L636.232 98.7603M559.104 113.834L565.238 127.759M559.104 113.834L552.464 98.7603M559.104 113.834L478.657 113.834M642.619 127.759L565.238 127.759M642.619 127.759L720 127.759M642.619 127.759L645.461 140.661M565.238 127.759L570.922 140.661M565.238 127.759L487.858 127.759M650.561 163.816L581.122 163.816M650.561 163.816L652.858 174.245M650.561 163.816L720 163.816M650.561 163.816L648.101 152.649M581.122 163.816L585.716 174.245M581.122 163.816L576.203 152.649M581.122 163.816L511.683 163.816M652.858 174.245L585.716 174.245M652.858 174.245L720 174.245M652.858 174.245L655.008 184.006M585.716 174.245L590.015 184.006M585.716 174.245L518.574 174.245M658.919 201.766L597.838 201.766M658.919 201.766L660.704 209.867M658.919 201.766L720 201.766M658.919 201.766L657.024 193.161M597.838 201.766L601.407 209.867M597.838 201.766L594.048 193.161M597.838 201.766L536.758 201.766M660.704 209.867L601.407 209.867M660.704 209.867L720 209.867M660.704 209.867L662.387 217.509M601.407 209.867L604.774 217.509M601.407 209.867L542.111 209.867M665.482 231.561L610.964 231.561M665.482 231.561L666.908 238.035M665.482 231.561L720 231.561M665.482 231.561L663.977 224.728M610.964 231.561L613.815 238.035M610.964 231.561L607.954 224.728M610.964 231.561L556.445 231.561M666.908 238.035L613.815 238.035M666.908 238.035L720 238.035M666.908 238.035L668.261 244.18M613.815 238.035L616.522 244.18M613.815 238.035L560.723 238.035M670.771 255.575L621.541 255.575M670.771 255.575L671.937 260.867M670.771 255.575L720 255.575M670.771 255.575L669.547 250.019M621.541 255.575L623.873 260.867M621.541 255.575L619.094 250.019M621.541 255.575L572.312 255.575M671.937 260.867L623.873 260.867M671.937 260.867L720 260.867M671.937 260.867L673.048 265.915M623.873 260.867L626.097 265.915M623.873 260.867L575.809 260.867M675.125 275.341L630.249 275.341M675.125 275.341L676.095 279.748M675.125 275.341L720 275.341M675.125 275.341L674.11 270.734M630.249 275.341L631.952 279.207L632.19 279.748M630.249 275.341L628.219 270.734M630.249 275.341L585.373 275.341M676.095 279.748L676.213 280.286L677.025 283.969M676.095 279.748L632.19 279.748M676.095 279.748L720 279.748M632.19 279.748L632.897 281.352L633.129 281.881L633.362 282.407L634.049 283.968M632.19 279.748L588.285 279.748M678.771 291.895L637.541 291.895M678.771 291.895L679.591 295.622M678.771 291.895L720 291.895M678.771 291.895L678.454 290.459L678.347 289.975L678.241 289.488L678.025 288.508L677.915 288.014M637.541 291.895L638.778 294.704L639.183 295.622M637.541 291.895L635.832 288.014M637.541 291.895L596.311 291.895M679.591 295.622L639.183 295.622M679.591 295.622L720 295.622M679.591 295.622L680.38 299.203M639.183 295.622L640.175 297.877L640.372 298.321L640.566 298.763L640.76 299.203M639.183 295.622L598.774 295.622M681.869 305.962L643.738 305.962M681.869 305.962L682.572 309.154M681.869 305.962L720 305.962M681.869 305.962L681.139 302.647M643.738 305.962L643.558 305.554L642.463 303.068L642.277 302.647M643.738 305.962L645.144 309.154M643.738 305.962L605.606 305.962M682.572 309.154L645.144 309.154M682.572 309.154L720 309.154M682.572 309.154L683.249 312.231M645.144 309.154L645.658 310.321L645.827 310.707L645.997 311.09L646.499 312.231M645.144 309.154L607.716 309.154M684.533 318.062L649.067 318.062M684.533 318.062L685.143 320.827M684.533 318.062L720 318.062M684.533 318.062L683.903 315.198M649.067 318.062L649.222 318.413L649.53 319.11L649.682 319.457L649.985 320.145L650.135 320.487L650.286 320.827M649.067 318.062L648.442 316.643L648.285 316.284L647.966 315.562L647.806 315.198M649.067 318.062L613.601 318.062M685.143 320.827L685.217 321.166L685.292 321.504L685.366 321.84L685.731 323.499M685.143 320.827L650.286 320.827M685.143 320.827L720 320.827M650.286 320.827L615.428 320.827M650.286 320.827L650.584 321.504L650.732 321.84L650.879 322.175L651.317 323.17L651.463 323.499M241.977 45.0186L146.373 45.0186M241.977 45.0186L263.48 64.5441M241.977 45.0186L337.581 45.0186M241.977 45.0186L218.348 23.5625M146.373 45.0186L172.176 64.5441M146.373 45.0186L118.019 23.5625M146.373 45.0186L50.7678 45.0186M263.48 64.5441L172.176 64.5441M263.48 64.5441L354.784 64.5441M263.48 64.5441L283.131 82.3885M172.176 64.5441L195.758 82.3885M172.176 64.5441L80.8717 64.544M317.761 113.834L237.313 113.834M317.761 113.834L333.096 127.759M317.761 113.834L398.209 113.834M317.761 113.834L301.161 98.7602M237.313 113.834L255.715 127.759M237.313 113.834L217.393 98.7602M237.313 113.834L156.866 113.834M333.096 127.759L255.715 127.759M333.096 127.759L410.477 127.759M333.096 127.759L347.304 140.661M255.715 127.759L272.765 140.661M255.715 127.759L178.334 127.759M372.804 163.816L303.365 163.816M372.804 163.816L384.29 174.245M372.804 163.816L442.244 163.816M372.804 163.816L360.506 152.649M303.365 163.816L317.147 174.245M303.365 163.816L288.607 152.649M303.365 163.816L233.926 163.816M384.29 174.245L317.147 174.245M384.29 174.245L451.432 174.245M384.29 174.245L395.039 184.006M317.147 174.245L330.046 184.006M317.147 174.245L250.005 174.245M414.596 201.766L353.516 201.766M414.596 201.766L423.518 209.867M414.596 201.766L475.677 201.766M414.596 201.766L405.121 193.161M353.516 201.766L364.222 209.867M353.516 201.766L342.145 193.161M353.516 201.766L292.435 201.766M423.518 209.867L364.222 209.867M423.518 209.867L482.815 209.867M423.518 209.867L431.934 217.509M364.222 209.867L374.321 217.509M364.222 209.867L304.926 209.867M447.409 231.561L392.89 231.561M447.409 231.561L454.539 238.035M447.409 231.561L501.927 231.561M447.409 231.561L439.885 224.728M392.89 231.561L401.446 238.035M392.89 231.561L383.861 224.728M392.89 231.561L338.371 231.561M454.539 238.035L401.446 238.035M454.539 238.035L507.631 238.035M454.539 238.035L461.305 244.18M401.446 238.035L409.566 244.18M401.446 238.035L348.354 238.035M473.854 255.575L424.625 255.575M473.854 255.575L479.682 260.867M473.854 255.575L523.083 255.575M473.854 255.575L467.735 250.019M424.625 255.575L431.619 260.867M424.625 255.575L417.282 250.019M424.625 255.575L375.396 255.575M479.682 260.867L431.619 260.867M479.682 260.867L527.746 260.867M479.682 260.867L485.241 265.915M431.619 260.867L438.29 265.915M431.619 260.867L383.556 260.867M495.622 275.341L495 274.776L494.375 274.209L490.549 270.734M495.622 275.341L450.746 275.341M495.622 275.341L500.475 279.748M495.622 275.341L540.497 275.341M450.746 275.341L456.57 279.748M450.746 275.341L444.659 270.734M450.746 275.341L405.87 275.341M500.475 279.748L456.57 279.748M500.475 279.748L544.38 279.748M500.475 279.748L505.123 283.968M456.57 279.748L462.148 283.968M456.57 279.748L412.665 279.748M513.853 291.895L472.623 291.895M513.853 291.895L517.957 295.622M513.853 291.895L555.082 291.895M513.853 291.895L509.579 288.014M472.623 291.895L475.725 294.242L477.548 295.622M472.623 291.895L467.494 288.014M472.623 291.895L431.393 291.895M517.957 295.622L477.548 295.622M517.957 295.622L558.365 295.622M517.957 295.622L521.415 298.763L521.9 299.203M477.548 295.622L482.28 299.203M477.548 295.622L437.139 295.622M529.343 305.962L491.212 305.962M529.343 305.962L530.234 306.771L532.859 309.154M529.343 305.962L567.474 305.962M529.343 305.962L528.444 305.145L526.618 303.488L525.693 302.647M491.212 305.962L495.431 309.154M491.212 305.962L489.589 304.733L488.494 303.905L486.832 302.647M491.212 305.962L453.081 305.962M532.859 309.154L495.431 309.154M532.859 309.154L570.288 309.154M532.859 309.154L535.412 311.473L536.248 312.231M495.431 309.154L496.973 310.321L497.99 311.09L499.497 312.231M495.431 309.154L458.003 309.154M542.669 318.062L507.202 318.062M542.669 318.062L544.585 319.801L545.714 320.827M542.669 318.062L578.135 318.062M542.669 318.062L539.515 315.198M507.202 318.062L509.956 320.145L510.407 320.487L510.857 320.827M507.202 318.062L505.327 316.643L503.418 315.198M507.202 318.062L471.737 318.062M545.714 320.827L510.857 320.827M545.714 320.827L547.198 322.175L547.93 322.84L548.294 323.17L548.656 323.499M545.714 320.827L580.571 320.827M510.857 320.827L476 320.827M510.857 320.827L514.388 323.499M23.5726 127.759L100.953 127.759M23.5726 127.759L49.1472 140.661M23.5726 127.759L0.387496 127.759M23.5726 127.759L0.387497 116.063M95.048 163.816L25.6091 163.816M95.048 163.816L115.72 174.245M95.048 163.816L164.487 163.816M95.048 163.816L72.9109 152.649M25.6091 163.816L48.5782 174.245M25.6091 163.816L1.01191 152.649M25.6091 163.816L0.387492 163.816M115.72 174.245L48.5782 174.245M115.72 174.245L182.863 174.245M115.72 174.245L135.07 184.006M48.5782 174.245L70.0774 184.006M48.5782 174.245L0.387491 174.245M170.274 201.766L109.193 201.766M170.274 201.766L186.333 209.867M170.274 201.766L231.355 201.766M170.274 201.766L153.217 193.161M109.193 201.766L127.036 209.867M109.193 201.766L90.2416 193.161M109.193 201.766L48.112 201.766M186.333 209.867L127.036 209.867M186.333 209.867L245.629 209.867M186.333 209.867L201.481 217.509M127.036 209.867L143.868 217.509M127.036 209.867L67.7403 209.867M229.335 231.561L174.817 231.561M229.335 231.561L242.169 238.035M229.335 231.561L283.853 231.561M229.335 231.561L215.792 224.728M174.817 231.561L189.077 238.035M174.817 231.561L159.769 224.728M174.817 231.561L120.298 231.561M242.169 238.035L189.077 238.035M242.169 238.035L295.261 238.035M242.169 238.035L254.349 244.18M189.077 238.035L202.611 244.18M189.077 238.035L135.985 238.035M276.937 255.574L227.708 255.574M276.937 255.574L287.428 260.867M276.937 255.574L326.166 255.574M276.937 255.574L265.924 250.019M227.708 255.574L239.365 260.867M227.708 255.574L215.471 250.019M227.708 255.574L178.479 255.574M287.428 260.867L239.365 260.867M287.428 260.867L335.492 260.867M287.428 260.867L297.435 265.915M239.365 260.867L250.483 265.915M239.365 260.867L191.301 260.867M316.119 275.341L271.244 275.341M316.119 275.341L324.856 279.748M316.119 275.341L360.995 275.341M316.119 275.341L306.988 270.734M271.244 275.341L280.951 279.748M271.244 275.341L261.098 270.734M271.244 275.341L226.368 275.341M324.856 279.748L280.951 279.748M324.856 279.748L368.76 279.748M324.856 279.748L333.222 283.968M280.951 279.748L290.247 283.968M280.951 279.748L237.046 279.748M348.935 291.895L307.706 291.895M348.935 291.895L356.322 295.622M348.935 291.895L390.164 291.895M348.935 291.895L341.241 288.014M307.706 291.895L315.913 295.622M307.706 291.895L299.156 288.014M307.706 291.895L266.475 291.895M356.322 295.622L315.913 295.622M356.322 295.622L396.731 295.622M356.322 295.622L363.421 299.203M315.913 295.622L323.801 299.203M315.913 295.622L275.504 295.622M376.818 305.962L338.687 305.962M376.818 305.962L383.146 309.154M376.818 305.962L414.949 305.962M376.818 305.962L375.198 305.145L374.384 304.733L370.247 302.647M338.687 305.962L345.718 309.154M338.687 305.962L331.386 302.647M338.687 305.962L300.556 305.962M383.146 309.154L345.718 309.154M383.146 309.154L420.574 309.154M383.146 309.154L389.245 312.231M345.718 309.154L352.495 312.231M345.718 309.154L308.29 309.154M400.804 318.062L365.338 318.062M400.804 318.062L406.286 320.827M400.804 318.062L436.27 318.062M400.804 318.062L395.127 315.198M365.338 318.062L369.926 320.145L370.678 320.487L371.429 320.827M365.338 318.062L359.03 315.198M365.338 318.062L329.872 318.062M406.286 320.827L371.429 320.827M406.286 320.827L410.929 323.17L411.582 323.499M406.286 320.827L441.143 320.827M371.429 320.827L336.571 320.827M371.429 320.827L377.313 323.499M11.2618 231.561L29.8002 238.035M11.2618 231.561L65.7801 231.561M11.2618 231.561L0.387486 227.763M11.2618 231.561L0.387486 231.561M29.8002 238.035L82.8926 238.035M29.8002 238.035L47.3932 244.18M29.8002 238.035L0.387485 238.035M80.0201 255.574L30.7903 255.574M80.0201 255.574L95.1747 260.867M80.0201 255.574L129.249 255.574M80.0201 255.574L64.1121 250.019M30.7903 255.574L47.1106 260.867M30.7903 255.574L13.6591 250.019M30.7903 255.574L0.387484 255.574M95.1747 260.867L47.1106 260.867M95.1747 260.867L143.238 260.867M95.1747 260.867L109.628 265.915M47.1106 260.867L62.6759 265.915M47.1106 260.867L0.387483 260.867M136.617 275.341L91.7408 275.341M136.617 275.341L149.236 279.748M136.617 275.341L181.492 275.341M136.617 275.341L123.427 270.734M91.7408 275.341L105.331 279.748M91.7408 275.341L77.5374 270.734M91.7408 275.341L46.8655 275.341M149.236 279.748L105.331 279.748M149.236 279.748L193.141 279.748M149.236 279.748L161.321 283.968M105.331 279.748L118.345 283.968M105.331 279.748L61.4256 279.748M184.017 291.895L142.788 291.895M184.017 291.895L194.687 295.622M184.017 291.895L225.246 291.895M184.017 291.895L172.904 288.014M142.788 291.895L154.278 295.622M142.788 291.895L130.82 288.014M142.788 291.895L101.557 291.895M194.687 295.622L154.278 295.622M194.687 295.622L235.096 295.622M194.687 295.622L204.941 299.203M154.278 295.622L165.321 299.203M154.278 295.622L113.87 295.622M224.293 305.962L186.161 305.962M224.293 305.962L233.433 309.154M224.293 305.962L262.424 305.962M224.293 305.962L214.802 302.647M186.161 305.962L196.005 309.154M186.161 305.962L175.941 302.647M186.161 305.962L148.03 305.962M233.433 309.154L196.005 309.154M233.433 309.154L270.862 309.154M233.433 309.154L242.243 312.231M196.005 309.154L205.493 312.231M196.005 309.154L158.577 309.154M258.939 318.062L223.473 318.062M258.939 318.062L266.857 320.827M258.939 318.062L294.405 318.062M258.939 318.062L250.74 315.198M223.473 318.062L232 320.827M223.473 318.062L214.642 315.198M223.473 318.062L188.006 318.062M266.857 320.827L232 320.827M266.857 320.827L274.507 323.499M266.857 320.827L301.714 320.827M232 320.827L197.142 320.827M232 320.827L240.239 323.499M19.0989 291.895L33.0527 295.622M19.0989 291.895L60.3282 291.895M19.0989 291.895L4.56644 288.014M19.0989 291.895L0.38748 291.895M33.0527 295.622L73.4611 295.622M33.0527 295.622L46.4614 299.203M33.0527 295.622L0.38748 295.622M71.7678 305.962L33.6365 305.962M71.7678 305.962L83.7209 309.154M71.7678 305.962L109.899 305.962M71.7678 305.962L59.3567 302.647M33.6365 305.962L46.2928 309.154M33.6365 305.962L20.4954 302.647M33.6365 305.962L0.387479 305.962M83.7209 309.154L46.2928 309.154M83.7209 309.154L121.149 309.154M83.7209 309.154L95.2414 312.231M46.2928 309.154L58.4909 312.231M46.2928 309.154L8.86463 309.154M117.074 318.062L81.6078 318.062M117.074 318.062L127.428 320.827M117.074 318.062L152.541 318.062M117.074 318.062L106.352 315.198M81.6078 318.062L92.5714 320.827M81.6078 318.062L70.2551 315.198M81.6078 318.062L46.1413 318.062M127.428 320.827L92.5714 320.827M127.428 320.827L137.432 323.499M127.428 320.827L162.285 320.827M92.5714 320.827L57.7136 320.827M92.5714 320.827L103.164 323.499M70.2551 315.198L58.4909 312.231M70.2551 315.198L34.1576 315.198M70.2551 315.198L106.352 315.198M46.1413 318.062L57.7136 320.827M46.1413 318.062L34.1576 315.198M46.1413 318.062L10.6757 318.062M57.7136 320.827L22.8566 320.827M57.7136 320.827L68.8953 323.499M103.164 323.499L137.432 323.499M103.164 323.499L68.8953 323.499M103.164 323.499L113.405 326.082M34.1576 315.198L21.7397 312.231M34.1576 315.198L0.387478 315.198M10.6757 318.062L22.8566 320.827M10.6757 318.062L0.387478 315.727M10.6757 318.062L0.387478 318.062M22.8566 320.827L34.6268 323.499M22.8566 320.827L0.387478 320.827M68.8953 323.499L34.6268 323.499M68.8953 323.499L79.7052 326.082M34.6268 323.499L46.0057 326.082M34.6268 323.499L0.387477 323.499M58.4909 312.231L21.7397 312.231M58.4909 312.231L95.2414 312.231M8.86463 309.154L21.7397 312.231M8.86463 309.154L0.387479 307.129M8.86463 309.154L0.387479 309.154M21.7397 312.231L0.387478 312.231M95.2414 312.231L131.992 312.231M95.2414 312.231L106.352 315.198M106.352 315.198L142.449 315.198M20.4954 302.647L6.84149 299.203M20.4954 302.647L59.3567 302.647M20.4954 302.647L0.387479 302.647M0.27127 305.962L0.387479 305.962M6.84149 299.203L46.4614 299.203M6.84149 299.203L0.38748 297.575M6.84149 299.203L0.38748 299.203M46.4614 299.203L86.0813 299.203M46.4614 299.203L59.3567 302.647M59.3567 302.647L98.218 302.647M214.642 315.198L205.493 312.231M214.642 315.198L178.546 315.198M214.642 315.198L250.74 315.198M188.006 318.062L197.142 320.827M188.006 318.062L178.546 315.198M188.006 318.062L152.541 318.062M197.142 320.827L162.285 320.827M197.142 320.827L205.97 323.499M240.239 323.499L205.97 323.499M240.239 323.499L248.204 326.082M240.239 323.499L274.507 323.499M178.546 315.198L168.742 312.231M178.546 315.198L142.449 315.198M152.541 318.062L162.285 320.827M152.541 318.062L142.449 315.198M162.285 320.827L171.701 323.499M205.97 323.499L171.701 323.499M205.97 323.499L214.504 326.082M142.449 315.198L131.992 312.231M137.432 323.499L171.701 323.499M137.432 323.499L147.105 326.082M171.701 323.499L180.805 326.082M205.493 312.231L168.742 312.231M205.493 312.231L242.243 312.231M158.577 309.154L168.742 312.231M158.577 309.154L148.03 305.962M158.577 309.154L121.149 309.154M168.742 312.231L131.992 312.231M242.243 312.231L278.994 312.231M242.243 312.231L250.74 315.198M131.992 312.231L121.149 309.154M250.74 315.198L286.837 315.198M148.03 305.962L137.079 302.647M148.03 305.962L109.899 305.962M121.149 309.154L109.899 305.962M109.899 305.962L98.218 302.647M175.941 302.647L165.321 299.203M175.941 302.647L137.079 302.647M175.941 302.647L214.802 302.647M137.079 302.647L125.701 299.203M137.079 302.647L98.218 302.647M98.218 302.647L86.0813 299.203M165.321 299.203L125.701 299.203M165.321 299.203L204.941 299.203M113.87 295.622L125.701 299.203M113.87 295.622L101.557 291.895M113.87 295.622L73.4611 295.622M125.701 299.203L86.0813 299.203M204.941 299.203L244.561 299.203M204.941 299.203L214.802 302.647M86.0813 299.203L73.4611 295.622M214.802 302.647L253.663 302.647M101.557 291.895L88.7349 288.014M101.557 291.895L60.3282 291.895M73.4611 295.622L60.3282 291.895M60.3282 291.895L46.6511 288.014M130.82 288.014L118.345 283.968M130.82 288.014L88.7349 288.014M130.82 288.014L172.904 288.014M88.7349 288.014L75.3696 283.968M88.7349 288.014L46.6511 288.014M46.6511 288.014L32.3945 283.968M46.6511 288.014L4.56644 288.014M4.56644 288.014L0.387481 288.014M4.56644 288.014L0.387481 286.898M118.345 283.968L75.3696 283.968M118.345 283.968L161.321 283.968M61.4256 279.748L75.3696 283.968M61.4256 279.748L46.8655 275.341M61.4256 279.748L17.521 279.748M75.3696 283.968L32.3945 283.968M161.321 283.968L204.296 283.968M161.321 283.968L172.904 288.014M32.3945 283.968L17.521 279.748M32.3945 283.968L0.387481 283.968M172.904 288.014L214.988 288.014M46.8655 275.341L31.6472 270.734M46.8655 275.341L1.99007 275.341M17.521 279.748L1.99007 275.341M17.521 279.748L0.387482 279.748M0.162566 283.968L0.387481 283.968M1.99007 275.341L0.387482 274.886M1.99007 275.341L0.387482 275.341M77.5374 270.734L62.6759 265.915M77.5374 270.734L31.6472 270.734M77.5374 270.734L123.427 270.734M31.6472 270.734L15.7242 265.915M31.6472 270.734L0.387482 270.734M-3.51428e-05 274.776L0.387482 274.886M62.6759 265.915L15.7242 265.915M62.6759 265.915L109.628 265.915M15.7242 265.915L0.387483 265.915M15.7242 265.915L0.387483 261.273M109.628 265.915L156.579 265.915M109.628 265.915L123.427 270.734M123.427 270.734L169.317 270.734M13.6591 250.019L64.1121 250.019M13.6591 250.019L0.387485 245.715M13.6591 250.019L0.387484 250.019M0.022385 255.574L0.387484 255.574M64.1121 250.019L114.565 250.019M64.1121 250.019L47.3932 244.18M0.241354 245.667L0.387485 245.715M359.03 315.198L352.495 312.231M359.03 315.198L322.934 315.198M359.03 315.198L395.127 315.198M329.872 318.062L336.571 320.827M329.872 318.062L322.934 315.198M329.872 318.062L294.405 318.062M336.571 320.827L301.714 320.827M336.571 320.827L343.044 323.499M377.313 323.499L343.044 323.499M377.313 323.499L379.47 324.478L383.003 326.082M377.313 323.499L411.582 323.499M322.934 315.198L315.744 312.231M322.934 315.198L286.837 315.198M294.405 318.062L301.714 320.827M294.405 318.062L286.837 315.198M301.714 320.827L308.776 323.499M343.044 323.499L308.776 323.499M343.044 323.499L349.303 326.082M286.837 315.198L278.994 312.231M274.507 323.499L281.904 326.082M274.507 323.499L308.776 323.499M308.776 323.499L309.642 323.827L311.364 324.478L315.603 326.082M352.495 312.231L315.744 312.231M352.495 312.231L389.245 312.231M308.29 309.154L315.744 312.231M308.29 309.154L300.556 305.962M308.29 309.154L270.862 309.154M315.744 312.231L278.994 312.231M389.245 312.231L425.996 312.231M389.245 312.231L395.127 315.198M278.994 312.231L270.862 309.154M395.127 315.198L431.225 315.198M300.556 305.962L292.525 302.647M300.556 305.962L262.424 305.962M270.862 309.154L269.824 308.762L262.424 305.962M262.424 305.962L253.663 302.647M331.386 302.647L330.454 302.224L323.801 299.203M331.386 302.647L292.525 302.647M331.386 302.647L370.247 302.647M292.525 302.647L284.181 299.203M292.525 302.647L253.663 302.647M253.663 302.647L244.561 299.203M323.801 299.203L284.181 299.203M323.801 299.203L363.421 299.203M275.504 295.622L284.181 299.203M275.504 295.622L266.475 291.895M275.504 295.622L235.096 295.622M284.181 299.203L244.561 299.203M363.421 299.203L403.041 299.203M363.421 299.203L370.247 302.647M244.561 299.203L235.096 295.622M370.247 302.647L409.109 302.647M266.475 291.895L257.073 288.014M266.475 291.895L225.246 291.895M235.096 295.622L225.246 291.895M225.246 291.895L214.988 288.014M299.156 288.014L290.247 283.968M299.156 288.014L257.073 288.014M299.156 288.014L341.241 288.014M257.073 288.014L247.271 283.968M257.073 288.014L214.988 288.014M214.988 288.014L204.296 283.968M290.247 283.968L247.271 283.968M290.247 283.968L333.222 283.968M237.046 279.748L247.271 283.968M237.046 279.748L226.368 275.341M237.046 279.748L193.141 279.748M247.271 283.968L204.296 283.968M333.222 283.968L376.197 283.968M333.222 283.968L341.241 288.014M204.296 283.968L193.141 279.748M341.241 288.014L383.326 288.014M226.368 275.341L215.208 270.734M226.368 275.341L181.492 275.341M193.141 279.748L181.492 275.341M181.492 275.341L169.317 270.734M261.098 270.734L250.483 265.915M261.098 270.734L215.208 270.734M261.098 270.734L306.988 270.734M215.208 270.734L203.531 265.915M215.208 270.734L169.317 270.734M169.317 270.734L156.579 265.915M250.483 265.915L203.531 265.915M250.483 265.915L297.435 265.915M191.301 260.867L203.531 265.915M191.301 260.867L178.479 255.574M191.301 260.867L143.238 260.867M203.531 265.915L156.579 265.915M297.435 265.915L344.386 265.915M297.435 265.915L306.988 270.734M156.579 265.915L143.238 260.867M306.988 270.734L352.878 270.734M178.479 255.574L165.018 250.019M178.479 255.574L129.249 255.574M143.238 260.867L129.249 255.574M129.249 255.574L114.565 250.019M215.471 250.019L202.611 244.18M215.471 250.019L165.018 250.019M215.471 250.019L265.924 250.019M165.018 250.019L150.871 244.18M165.018 250.019L114.565 250.019M114.565 250.019L99.1325 244.18M202.611 244.18L150.871 244.18M202.611 244.18L254.349 244.18M135.985 238.035L150.871 244.18M135.985 238.035L120.298 231.561M135.985 238.035L82.8926 238.035M150.871 244.18L99.1325 244.18M254.349 244.18L306.089 244.18M254.349 244.18L265.924 250.019M99.1325 244.18L82.8926 238.035M99.1325 244.18L47.3932 244.18M265.924 250.019L316.377 250.019M120.298 231.561L103.746 224.728M120.298 231.561L65.7801 231.561M82.8926 238.035L65.7801 231.561M47.3932 244.18L0.387485 244.18M65.7801 231.561L47.723 224.728M159.769 224.728L143.868 217.509M159.769 224.728L103.746 224.728M159.769 224.728L215.792 224.728M103.746 224.728L86.2545 217.509M103.746 224.728L47.723 224.728M47.723 224.728L28.6413 217.509M47.723 224.728L0.387487 224.728M143.868 217.509L86.2545 217.509M143.868 217.509L201.481 217.509M67.7403 209.867L86.2545 217.509M67.7403 209.867L48.112 201.766M67.7403 209.867L8.44418 209.867M86.2545 217.509L28.6413 217.509M201.481 217.509L259.094 217.509M201.481 217.509L215.792 224.728M28.6413 217.509L8.44418 209.867M28.6413 217.509L0.387487 217.509M215.792 224.728L271.816 224.728M48.112 201.766L27.2658 193.161M48.112 201.766L0.387489 201.766M8.44418 209.867L0.387488 209.867M8.44418 209.867L0.387488 206.819M90.2416 193.161L70.0774 184.006M90.2416 193.161L27.2658 193.161M90.2416 193.161L153.217 193.161M27.2658 193.161L5.08519 184.006M27.2658 193.161L0.38749 193.161M70.0774 184.006L5.08519 184.006M70.0774 184.006L135.07 184.006M5.08519 184.006L0.387491 182.067M5.08519 184.006L0.387491 184.006M135.07 184.006L200.062 184.006M135.07 184.006L153.217 193.161M153.217 193.161L216.193 193.161M1.01191 152.649L72.9109 152.649M1.01191 152.649L0.387493 152.649M1.01191 152.649L0.387494 152.365M72.9109 152.649L144.809 152.649M72.9109 152.649L49.1472 140.661M503.418 315.198L501.964 314.098L501.475 313.728L499.497 312.231M503.418 315.198L467.321 315.198M503.418 315.198L539.515 315.198M471.737 318.062L474.948 320.145L476 320.827M471.737 318.062L467.882 315.562L467.321 315.198M471.737 318.062L436.27 318.062M476 320.827L441.143 320.827M476 320.827L480.119 323.499M514.388 323.499L480.119 323.499M514.388 323.499L515.682 324.478L517.802 326.082M514.388 323.499L548.656 323.499M467.321 315.198L466.193 314.467L462.746 312.231M467.321 315.198L431.225 315.198M436.27 318.062L441.143 320.827M436.27 318.062L431.225 315.198M441.143 320.827L444.689 322.84L445.851 323.499M480.119 323.499L445.851 323.499M480.119 323.499L484.102 326.082M431.225 315.198L425.996 312.231M411.582 323.499L412.231 323.827L416.703 326.082M411.582 323.499L445.851 323.499M445.851 323.499L447.576 324.478L450.402 326.082M499.497 312.231L462.746 312.231M499.497 312.231L536.248 312.231M458.003 309.154L462.746 312.231M458.003 309.154L453.081 305.962M458.003 309.154L420.574 309.154M462.746 312.231L425.996 312.231M536.248 312.231L572.998 312.231M536.248 312.231L539.515 315.198M425.996 312.231L420.574 309.154M539.515 315.198L575.612 315.198M453.081 305.962L449.91 303.905L449.266 303.488L447.971 302.647M453.081 305.962L414.949 305.962M420.574 309.154L414.949 305.962M414.949 305.962L409.109 302.647M486.832 302.647L482.28 299.203M486.832 302.647L447.971 302.647M486.832 302.647L525.693 302.647M447.971 302.647L442.661 299.203M447.971 302.647L409.109 302.647M409.109 302.647L403.041 299.203M482.28 299.203L442.661 299.203M482.28 299.203L521.9 299.203M437.139 295.622L440.616 297.877L441.3 298.321L442.661 299.203M437.139 295.622L431.393 291.895M437.139 295.622L396.731 295.622M442.661 299.203L403.041 299.203M521.9 299.203L561.52 299.203M521.9 299.203L525.693 302.647M403.041 299.203L396.731 295.622M525.693 302.647L564.555 302.647M431.393 291.895L425.409 288.014M431.393 291.895L390.164 291.895M396.731 295.622L390.164 291.895M390.164 291.895L383.326 288.014M467.494 288.014L464.849 286.013L464.179 285.505L462.148 283.968M467.494 288.014L425.409 288.014M467.494 288.014L509.579 288.014M425.409 288.014L419.173 283.968M425.409 288.014L383.326 288.014M383.326 288.014L376.197 283.968M462.148 283.968L419.173 283.968M462.148 283.968L505.123 283.968M412.665 279.748L419.173 283.968M412.665 279.748L405.87 275.341M412.665 279.748L368.76 279.748M419.173 283.968L376.197 283.968M505.123 283.968L548.099 283.968M505.123 283.968L506.255 284.996L509.579 288.014M376.197 283.968L368.76 279.748M509.579 288.014L551.662 288.014M405.87 275.341L398.769 270.734M405.87 275.341L360.995 275.341M368.76 279.748L360.995 275.341M360.995 275.341L352.878 270.734M444.659 270.734L438.29 265.915M444.659 270.734L398.769 270.734M444.659 270.734L490.549 270.734M398.769 270.734L391.338 265.915M398.769 270.734L352.878 270.734M352.878 270.734L344.386 265.915M438.29 265.915L391.338 265.915M438.29 265.915L485.241 265.915M383.556 260.867L391.338 265.915M383.556 260.867L375.396 255.575M383.556 260.867L335.492 260.867M391.338 265.915L344.386 265.915M485.241 265.915L532.193 265.915M485.241 265.915L490.549 270.734M344.386 265.915L335.492 260.867M490.549 270.734L536.439 270.734M375.396 255.575L366.83 250.019M375.396 255.575L326.166 255.574M335.492 260.867L326.166 255.574M326.166 255.574L316.377 250.019M417.282 250.019L409.566 244.18M417.282 250.019L366.83 250.019M417.282 250.019L467.735 250.019M366.83 250.019L357.827 244.18M366.83 250.019L316.377 250.019M316.377 250.019L306.089 244.18M409.566 244.18L357.827 244.18M409.566 244.18L461.305 244.18M348.354 238.035L357.827 244.18M348.354 238.035L338.371 231.561M348.354 238.035L295.261 238.035M357.827 244.18L306.089 244.18M461.305 244.18L513.044 244.18M461.305 244.18L467.735 250.019M306.089 244.18L295.261 238.035M467.735 250.019L518.188 250.019M338.371 231.561L327.838 224.728M338.371 231.561L283.853 231.561M295.261 238.035L283.853 231.561M283.853 231.561L271.816 224.728M383.861 224.728L374.321 217.509M383.861 224.728L327.838 224.728M383.861 224.728L439.885 224.728M327.838 224.728L316.707 217.509M327.838 224.728L271.816 224.728M271.816 224.728L259.094 217.509M374.321 217.509L316.707 217.509M374.321 217.509L431.934 217.509M304.926 209.867L316.707 217.509M304.926 209.867L292.435 201.766M304.926 209.867L245.629 209.867M316.707 217.509L259.094 217.509M431.934 217.509L489.547 217.509M431.934 217.509L439.885 224.728M259.094 217.509L245.629 209.867M439.885 224.728L495.907 224.728M292.435 201.766L279.169 193.161M292.435 201.766L231.355 201.766M245.629 209.867L231.355 201.766M231.355 201.766L216.193 193.161M342.145 193.161L330.046 184.006M342.145 193.161L279.169 193.161M342.145 193.161L405.121 193.161M279.169 193.161L265.054 184.006M279.169 193.161L216.193 193.161M216.193 193.161L200.062 184.006M330.046 184.006L265.054 184.006M330.046 184.006L395.039 184.006M250.005 174.245L265.054 184.006M250.005 174.245L233.926 163.816M250.005 174.245L182.863 174.245M265.054 184.006L200.062 184.006M395.039 184.006L460.031 184.006M395.039 184.006L405.121 193.161M200.062 184.006L182.863 174.245M405.121 193.161L468.097 193.161M233.926 163.816L216.708 152.649M233.926 163.816L164.487 163.816M182.863 174.245L164.487 163.816M164.487 163.816L144.809 152.649M288.607 152.649L272.765 140.661M288.607 152.649L216.708 152.649M288.607 152.649L360.506 152.649M216.708 152.649L198.226 140.661M216.708 152.649L144.809 152.649M144.809 152.649L123.686 140.661M272.765 140.661L198.226 140.661M272.765 140.661L347.304 140.661M178.334 127.759L198.226 140.661M178.334 127.759L156.866 113.834M178.334 127.759L100.953 127.759M198.226 140.661L123.686 140.661M347.304 140.661L421.844 140.661M347.304 140.661L360.506 152.649M123.686 140.661L100.953 127.759M123.686 140.661L49.1472 140.661M360.506 152.649L432.405 152.649M156.866 113.834L133.625 98.7602M156.866 113.834L76.4183 113.834M100.953 127.759L76.4183 113.834M49.1472 140.661L0.387495 140.661M76.4183 113.834L49.8571 98.7602M76.4183 113.834L0.387497 113.834M217.393 98.7602L195.758 82.3885M217.393 98.7602L133.625 98.7602M217.393 98.7602L301.161 98.7602M133.625 98.7602L108.384 82.3885M133.625 98.7602L49.8571 98.7602M49.8571 98.7602L21.0104 82.3885M49.8571 98.7602L0.387499 98.7602M195.758 82.3885L108.384 82.3885M195.758 82.3885L283.131 82.3885M80.8717 64.544L108.384 82.3885M80.8717 64.544L50.7678 45.0186M80.8717 64.544L0.387502 64.544M108.384 82.3885L21.0104 82.3885M283.131 82.3885L370.505 82.3886M283.131 82.3885L301.161 98.7602M21.0104 82.3885L0.3875 82.3885M21.0104 82.3885L0.387501 70.6842M301.161 98.7602L384.929 98.7602M50.7678 45.0186L17.6882 23.5625M50.7678 45.0186L0.387504 45.0186M118.019 23.5625L86.7155 -0.125061M118.019 23.5625L17.6882 23.5625M118.019 23.5625L218.348 23.5625M17.6882 23.5625L0.387507 12.3408M17.6882 23.5625L0.387506 23.5625M86.7155 -0.125061L192.263 -0.125052M86.7155 -0.125061L0.387508 -0.124633M192.263 -0.125052L297.81 -0.125044M192.263 -0.125052L218.348 23.5625M218.348 23.5625L318.679 23.5625M647.806 315.198L647.645 314.833L647.484 314.467L647.321 314.098L647.159 313.728L646.665 312.608L646.499 312.231M647.806 315.198L611.709 315.198M647.806 315.198L683.903 315.198M613.601 318.062L614.978 320.145L615.428 320.827M613.601 318.062L612.426 316.284L611.709 315.198M613.601 318.062L578.135 318.062M615.428 320.827L580.571 320.827M615.428 320.827L616.758 322.84L617.194 323.499M651.463 323.499L651.607 323.827L652.178 325.124L652.601 326.082M651.463 323.499L617.194 323.499M651.463 323.499L685.731 323.499M611.709 315.198L611.468 314.833L611.225 314.467L610.982 314.098L610.737 313.728L609.749 312.231M611.709 315.198L575.612 315.198M578.135 318.062L579.97 320.145L580.571 320.827M578.135 318.062L575.612 315.198M580.571 320.827L581.759 322.175L582.636 323.17L582.925 323.499M617.194 323.499L617.41 323.827L617.84 324.478L618.268 325.124L618.479 325.445L618.901 326.082M617.194 323.499L582.925 323.499M575.612 315.198L573.66 312.983L572.998 312.231M548.656 323.499L550.799 325.445L551.501 326.082M548.656 323.499L582.925 323.499M582.925 323.499L584.92 325.764L585.202 326.082M646.499 312.231L609.749 312.231M646.499 312.231L683.249 312.231M607.716 309.154L609.749 312.231M607.716 309.154L605.606 305.962M607.716 309.154L570.288 309.154M609.749 312.231L572.998 312.231M683.249 312.231L720 312.231M683.249 312.231L683.903 315.198M572.998 312.231L570.288 309.154M683.903 315.198L720 315.198M605.606 305.962L605.066 305.145L604.247 303.905L603.416 302.647M605.606 305.962L567.474 305.962M570.288 309.154L569.941 308.762L567.474 305.962M567.474 305.962L567.116 305.554L566.755 305.145L566.393 304.733L564.555 302.647M642.277 302.647L640.76 299.203M642.277 302.647L603.416 302.647M642.277 302.647L681.139 302.647M603.416 302.647L601.14 299.203M603.416 302.647L564.555 302.647M564.555 302.647L562.29 300.077L561.906 299.641L561.52 299.203M640.76 299.203L601.14 299.203M640.76 299.203L680.38 299.203M598.774 295.622L598.472 295.164L598.167 294.704L597.862 294.242L596.311 291.895M598.774 295.622L599.969 297.43L600.264 297.877L600.557 298.321L601.14 299.203M598.774 295.622L558.365 295.622M601.14 299.203L561.52 299.203M680.38 299.203L720 299.203M680.38 299.203L681.139 302.647M561.52 299.203L558.365 295.622M681.139 302.647L720 302.647M596.311 291.895L594.073 288.508L593.747 288.014M596.311 291.895L555.082 291.895M558.365 295.622L557.556 294.704L555.082 291.895M555.082 291.895L553.816 290.459L551.662 288.014M635.832 288.014L634.949 286.013L634.727 285.505L634.049 283.968M635.832 288.014L593.747 288.014M635.832 288.014L677.915 288.014M593.747 288.014L591.074 283.968M593.747 288.014L551.662 288.014M551.662 288.014L548.099 283.968M634.049 283.968L591.074 283.968M634.049 283.968L677.025 283.969M588.285 279.748L591.074 283.968M588.285 279.748L585.373 275.341M588.285 279.748L544.38 279.748M591.074 283.968L548.099 283.968M677.025 283.969L720 283.969M677.025 283.969L677.251 284.996L677.696 287.019L677.915 288.014M548.099 283.968L544.38 279.748M677.915 288.014L720 288.014M585.373 275.341L583.103 271.905L582.329 270.734M585.373 275.341L540.497 275.341M544.38 279.748L540.497 275.341M540.497 275.341L538.491 273.063L536.439 270.734M628.219 270.734L626.097 265.915M628.219 270.734L582.329 270.734M628.219 270.734L674.11 270.734M582.329 270.734L579.145 265.915M582.329 270.734L536.439 270.734M536.439 270.734L532.193 265.915M626.097 265.915L579.145 265.915M626.097 265.915L673.048 265.915M575.809 260.867L576.658 262.151L579.145 265.915M575.809 260.867L572.312 255.575M575.809 260.867L527.746 260.867M579.145 265.915L532.193 265.915M673.048 265.915L720 265.915M673.048 265.915L674.11 270.734M532.193 265.915L527.746 260.867M674.11 270.734L720 270.734M572.312 255.575L568.641 250.019M572.312 255.575L523.083 255.575M527.746 260.867L523.083 255.575M523.083 255.575L518.188 250.019M619.094 250.019L616.522 244.18M619.094 250.019L568.641 250.019M619.094 250.019L669.547 250.019M568.641 250.019L564.783 244.18M568.641 250.019L518.188 250.019M518.188 250.019L513.044 244.18M616.522 244.18L564.783 244.18M616.522 244.18L668.261 244.18M560.723 238.035L564.783 244.18M560.723 238.035L556.445 231.561M560.723 238.035L507.631 238.035M564.783 244.18L513.044 244.18M668.261 244.18L720 244.18M668.261 244.18L669.39 249.305L669.547 250.019M513.044 244.18L507.631 238.035M669.547 250.019L720 250.019M556.445 231.561L551.931 224.728M556.445 231.561L501.927 231.561M507.631 238.035L503.382 233.211L501.927 231.561M501.927 231.561L495.907 224.728M607.954 224.728L604.774 217.509M607.954 224.728L551.931 224.728M607.954 224.728L663.977 224.728M551.931 224.728L547.16 217.509M551.931 224.728L495.907 224.728M495.907 224.728L489.547 217.509M604.774 217.509L547.16 217.509M604.774 217.509L662.387 217.509M542.111 209.867L547.16 217.509M542.111 209.867L536.758 201.766M542.111 209.867L482.815 209.867M547.16 217.509L489.547 217.509M662.387 217.509L720 217.509M662.387 217.509L663.977 224.728M489.547 217.509L482.815 209.867M663.977 224.728L720 224.728M536.758 201.766L531.073 193.161M536.758 201.766L475.677 201.766M482.815 209.867L475.677 201.766M475.677 201.766L468.097 193.161M594.048 193.161L590.015 184.006M594.048 193.161L531.073 193.161M594.048 193.161L657.024 193.161M531.073 193.161L525.023 184.006M531.073 193.161L468.097 193.161M468.097 193.161L460.031 184.006M590.015 184.006L525.023 184.006M590.015 184.006L655.008 184.006M518.574 174.245L525.023 184.006M518.574 174.245L511.683 163.816M518.574 174.245L451.432 174.245M525.023 184.006L460.031 184.006M655.008 184.006L720 184.006M655.008 184.006L657.024 193.161M460.031 184.006L451.432 174.245M657.024 193.161L720 193.161M511.683 163.816L504.304 152.649M511.683 163.816L442.244 163.816M451.432 174.245L442.244 163.816M442.244 163.816L432.405 152.649M576.203 152.649L570.922 140.661M576.203 152.649L504.304 152.649M576.203 152.649L648.101 152.649M504.304 152.649L496.383 140.661M504.304 152.649L432.405 152.649M432.405 152.649L421.844 140.661M570.922 140.661L496.383 140.661M570.922 140.661L645.461 140.661M487.858 127.759L496.383 140.661M487.858 127.759L478.657 113.834M487.858 127.759L410.477 127.759M496.383 140.661L421.844 140.661M645.461 140.661L720 140.661M645.461 140.661L648.101 152.649M421.844 140.661L410.477 127.759M648.101 152.649L720 152.649M478.657 113.834L468.696 98.7603M478.657 113.834L398.209 113.834M410.477 127.759L398.209 113.834M398.209 113.834L384.929 98.7602M552.464 98.7603L545.253 82.3886M552.464 98.7603L468.696 98.7603M552.464 98.7603L636.232 98.7603M468.696 98.7603L457.879 82.3886M468.696 98.7603L384.929 98.7602M384.929 98.7602L370.505 82.3886M545.253 82.3886L457.879 82.3886M545.253 82.3886L632.626 82.3886M446.088 64.5441L457.879 82.3886M446.088 64.5441L433.186 45.0186M446.088 64.5441L354.784 64.5441M457.879 82.3886L370.505 82.3886M632.626 82.3886L720 82.3886M632.626 82.3886L636.232 98.7603M370.505 82.3886L354.784 64.5441M636.232 98.7603L720 98.7603M433.186 45.0186L419.009 23.5626M433.186 45.0186L337.581 45.0186M354.784 64.5441L337.581 45.0186M337.581 45.0186L318.679 23.5625M519.34 23.5626L508.905 -0.125026M519.34 23.5626L419.009 23.5626M519.34 23.5626L619.67 23.5626M419.009 23.5626L403.358 -0.125035M419.009 23.5626L318.679 23.5625M318.679 23.5625L297.81 -0.125044M403.358 -0.125035L508.905 -0.125026M403.358 -0.125035L297.81 -0.125044M508.905 -0.125026L614.452 -0.125018M614.452 -0.125018L720 -0.125009M614.452 -0.125018L619.67 23.5626M619.67 23.5626L720 23.5626M792.194 315.198L792.355 314.833L792.516 314.467L792.679 314.098L792.841 313.728L793.17 312.983L793.335 312.608L793.501 312.231M792.194 315.198L756.097 315.198M792.194 315.198L828.291 315.198M755.466 318.062L754.857 320.827M755.466 318.062L756.097 315.198M755.466 318.062L720 318.062M754.857 320.827L754.783 321.166L754.708 321.504L754.634 321.84L754.268 323.499M754.857 320.827L720 320.827M788.537 323.499L788.393 323.827L787.822 325.124L787.399 326.082M788.537 323.499L754.268 323.499M788.537 323.499L822.806 323.499M756.097 315.198L756.178 314.833L756.258 314.467L756.34 314.098L756.75 312.231M756.097 315.198L720 315.198M720 318.062L720 320.827M720 318.062L720 315.198M720 320.827L720 323.499M754.268 323.499L720 323.499M754.268 323.499L754.053 324.478L753.981 324.802L753.7 326.082M720 315.198L720 312.231M685.731 323.499L685.946 324.478L686.018 324.802L686.089 325.124L686.16 325.445L686.23 325.764L686.3 326.082M685.731 323.499L720 323.499M720 323.499L720 326.082M793.501 312.231L756.75 312.231M793.501 312.231L830.251 312.231M757.428 309.154L757.515 308.762L757.601 308.367L758.131 305.962M757.428 309.154L756.75 312.231M757.428 309.154L720 309.154M756.75 312.231L720 312.231M830.251 312.231L867.002 312.231M830.251 312.231L829.755 312.983L829.508 313.356L829.263 313.728L829.017 314.098L828.775 314.467L828.532 314.833L828.291 315.198M720 312.231L720 309.154M828.291 315.198L864.388 315.198M758.131 305.962L758.861 302.647M758.131 305.962L720 305.962M720 309.154L720 305.962M720 305.962L720 302.647M797.723 302.647L799.24 299.203M797.723 302.647L758.861 302.647M797.723 302.647L836.584 302.647M758.861 302.647L759.62 299.203M758.861 302.647L720 302.647M720 302.647L720 299.203M799.24 299.203L759.62 299.203M799.24 299.203L838.86 299.203M760.408 295.622L759.62 299.203M760.408 295.622L761.229 291.895M760.408 295.622L720 295.622M759.62 299.203L720 299.203M838.86 299.203L878.48 299.203M838.86 299.203L836.584 302.647M720 299.203L720 295.622M836.584 302.647L875.445 302.647M761.229 291.895L761.546 290.459L761.867 289L762.085 288.014M761.229 291.895L720 291.895M720 295.622L720 291.895M720 291.895L720 288.014M804.168 288.014L805.051 286.013L805.273 285.505L805.951 283.969M804.168 288.014L762.085 288.014M804.168 288.014L846.253 288.014M762.085 288.014L762.303 287.019L762.749 284.996L762.975 283.969M762.085 288.014L720 288.014M720 288.014L720 283.969M805.951 283.969L762.975 283.969M805.951 283.969L848.926 283.969M763.905 279.748L763.787 280.286L762.975 283.969M763.905 279.748L764.875 275.341M763.905 279.748L720 279.748M762.975 283.969L720 283.969M848.926 283.969L891.901 283.969M848.926 283.969L846.253 288.014M720 283.969L720 279.748M846.253 288.014L888.338 288.014M764.875 275.341L765.89 270.734M764.875 275.341L720 275.341M720 279.748L720 275.341M720 275.341L720 270.734M811.781 270.734L813.903 265.915M811.781 270.734L765.89 270.734M811.781 270.734L857.671 270.734M765.89 270.734L766.952 265.915M765.89 270.734L720 270.734M720 270.734L720 265.915M813.903 265.915L766.952 265.915M813.903 265.915L860.855 265.915M768.063 260.867L766.952 265.915M768.063 260.867L769.229 255.575M768.063 260.867L720 260.867M766.952 265.915L720 265.915M860.855 265.915L907.807 265.915M860.855 265.915L857.671 270.734M720 265.915L720 260.867M857.671 270.734L903.561 270.734M769.229 255.575L770.453 250.019M769.229 255.575L720 255.575M720 260.867L720 255.575M720 255.575L720 250.019M820.906 250.019L823.478 244.18M820.906 250.019L770.453 250.019M820.906 250.019L871.358 250.019M770.453 250.019L771.739 244.18M770.453 250.019L720 250.019M720 250.019L720 244.18M823.478 244.18L771.739 244.18M823.478 244.18L875.217 244.18M773.092 238.035L771.739 244.18M773.092 238.035L774.518 231.561M773.092 238.035L720 238.035M771.739 244.18L720 244.18M875.217 244.18L926.956 244.18M875.217 244.18L871.358 250.019M720 244.18L720 238.035M871.358 250.019L921.812 250.019M774.518 231.561L776.023 224.728M774.518 231.561L720 231.561M720 238.035L720 231.561M720 231.561L720 224.728M832.046 224.728L835.226 217.509M832.046 224.728L776.023 224.728M832.046 224.728L888.069 224.728M776.023 224.728L777.613 217.509M776.023 224.728L720 224.728M720 224.728L720 217.509M835.226 217.509L777.613 217.509M835.226 217.509L892.84 217.509M779.296 209.867L777.613 217.509M779.296 209.867L781.081 201.766M779.296 209.867L720 209.867M777.613 217.509L720 217.509M892.84 217.509L950.453 217.509M892.84 217.509L888.069 224.728M720 217.509L720 209.867M888.069 224.728L944.093 224.728M781.081 201.766L782.976 193.161M781.081 201.766L720 201.766M720 209.867L720 201.766M720 201.766L720 193.161M845.952 193.161L849.984 184.006M845.952 193.161L782.976 193.161M845.952 193.161L908.927 193.161M782.976 193.161L784.992 184.006M782.976 193.161L720 193.161M720 193.161L720 184.006M849.984 184.006L784.992 184.006M849.984 184.006L914.977 184.006M787.142 174.245L784.992 184.006M787.142 174.245L789.439 163.816M787.142 174.245L720 174.245M784.992 184.006L720 184.006M914.977 184.006L979.969 184.006M914.977 184.006L908.927 193.161M720 184.006L720 174.245M908.927 193.161L971.903 193.161M789.439 163.816L791.899 152.649M789.439 163.816L720 163.816M720 174.245L720 163.816M720 163.816L720 152.649M863.797 152.649L869.078 140.661M863.797 152.649L791.899 152.649M863.797 152.649L935.696 152.649M791.899 152.649L794.539 140.661M791.899 152.649L720 152.649M720 152.649L720 140.661M869.078 140.661L794.539 140.661M869.078 140.661L943.617 140.661M797.381 127.759L794.539 140.661M797.381 127.759L800.447 113.834M797.381 127.759L720 127.759M794.539 140.661L720 140.661M943.617 140.661L1018.16 140.661M943.617 140.661L935.696 152.649M720 140.661L720 127.759M935.696 152.649L1007.6 152.649M800.447 113.834L803.768 98.7603M800.447 113.834L720 113.834M720 127.759L720 113.834M720 113.834L720 98.7603M887.535 98.7603L894.747 82.3886M887.535 98.7603L803.768 98.7603M887.535 98.7603L971.304 98.7603M803.768 98.7603L807.374 82.3886M803.768 98.7603L720 98.7603M720 98.7603L720 82.3886M894.747 82.3886L807.374 82.3886M894.747 82.3886L982.121 82.3886M811.304 64.5441L807.374 82.3886M811.304 64.5441L815.604 45.0186M811.304 64.5441L720 64.5441M807.374 82.3886L720 82.3886M982.121 82.3886L1069.49 82.3886M982.121 82.3886L971.304 98.7603M720 82.3886L720 64.5441M971.304 98.7603L1055.07 98.7603M815.604 45.0186L820.33 23.5626M815.604 45.0186L720 45.0186M720 64.5441L720 45.0186M720 45.0186L720 23.5626M920.66 23.5626L931.095 -0.124992M920.66 23.5626L820.33 23.5626M920.66 23.5626L1020.99 23.5626M820.33 23.5626L825.548 -0.125001M820.33 23.5626L720 23.5626M720 23.5626L720 -0.125009M825.548 -0.125001L931.095 -0.124992M825.548 -0.125001L720 -0.125009M931.095 -0.124992L1036.64 -0.124983M1036.64 -0.124983L1142.19 -0.124975M1036.64 -0.124983L1020.99 23.5626M1020.99 23.5626L1121.32 23.5626M936.582 315.198L938.525 313.728L940.503 312.231M936.582 315.198L900.485 315.198M936.582 315.198L972.678 315.198M897.331 318.062L894.286 320.827M897.331 318.062L900.485 315.198M897.331 318.062L861.865 318.062M894.286 320.827L859.429 320.827M894.286 320.827L892.07 322.84L891.343 323.499M925.612 323.499L891.343 323.499M925.612 323.499L924.318 324.478L922.198 326.082M925.612 323.499L959.881 323.499M900.485 315.198L903.752 312.231M900.485 315.198L864.388 315.198M861.865 318.062L859.429 320.827M861.865 318.062L864.388 315.198M859.429 320.827L858.241 322.175L857.364 323.17L857.075 323.499M891.343 323.499L857.075 323.499M891.343 323.499L889.201 325.445L888.499 326.082M864.388 315.198L866.34 312.983L867.002 312.231M822.806 323.499L822.59 323.827L822.159 324.478L821.521 325.445L821.099 326.082M822.806 323.499L857.075 323.499M857.075 323.499L856.786 323.827L856.212 324.478L854.799 326.082M940.503 312.231L903.752 312.231M940.503 312.231L977.254 312.231M907.141 309.154L906.71 309.545L906.282 309.934L904.588 311.473L903.752 312.231M907.141 309.154L909.765 306.771L910.657 305.962M907.141 309.154L869.712 309.154M903.752 312.231L867.002 312.231M977.254 312.231L1014 312.231M977.254 312.231L973.807 314.467L972.678 315.198M867.002 312.231L869.712 309.154M972.678 315.198L1008.78 315.198M910.657 305.962L911.105 305.554L911.556 305.145L912.921 303.905L913.382 303.488L914.307 302.647M910.657 305.962L872.526 305.962M869.712 309.154L870.059 308.762L872.526 305.962M872.526 305.962L872.884 305.554L873.245 305.145L873.607 304.733L875.445 302.647M953.168 302.647L957.719 299.203M953.168 302.647L914.307 302.647M953.168 302.647L992.029 302.647M914.307 302.647L918.1 299.203M914.307 302.647L875.445 302.647M875.445 302.647L878.48 299.203M957.719 299.203L918.1 299.203M957.719 299.203L997.339 299.203M922.043 295.622L918.1 299.203M922.043 295.622L926.147 291.895M922.043 295.622L881.635 295.622M918.1 299.203L878.48 299.203M997.339 299.203L1036.96 299.203M997.339 299.203L992.029 302.647M878.48 299.203L881.635 295.622M992.029 302.647L1030.89 302.647M926.147 291.895L930.421 288.014M926.147 291.895L884.918 291.895M881.635 295.622L882.443 294.704L884.918 291.895M884.918 291.895L886.184 290.459L887.47 289L888.338 288.014M972.506 288.014L975.151 286.013L977.852 283.969M972.506 288.014L930.421 288.014M972.506 288.014L1014.59 288.014M930.421 288.014L934.877 283.969M930.421 288.014L888.338 288.014M888.338 288.014L891.901 283.969M977.852 283.969L934.877 283.969M977.852 283.969L1020.83 283.969M939.524 279.748L934.877 283.969M939.524 279.748L944.378 275.341M939.524 279.748L895.62 279.748M934.877 283.969L891.901 283.969M1020.83 283.969L1063.8 283.969M1020.83 283.969L1014.59 288.014M891.901 283.969L895.62 279.748M1014.59 288.014L1056.67 288.014M944.378 275.341L945.625 274.209L949.451 270.734M944.378 275.341L899.503 275.341M895.62 279.748L899.503 275.341M899.503 275.341L900 274.776L901.509 273.063L903.561 270.734M995.341 270.734L1001.71 265.915M995.341 270.734L949.451 270.734M995.341 270.734L1041.23 270.734M949.451 270.734L954.759 265.915M949.451 270.734L903.561 270.734M903.561 270.734L907.807 265.915M1001.71 265.915L954.759 265.915M1001.71 265.915L1048.66 265.915M960.318 260.867L956.812 264.049L954.759 265.915M960.318 260.867L966.146 255.575M960.318 260.867L912.254 260.867M954.759 265.915L907.807 265.915M1048.66 265.915L1095.61 265.915M1048.66 265.915L1041.23 270.734M907.807 265.915L912.254 260.867M1041.23 270.734L1087.12 270.734M966.146 255.575L972.265 250.019M966.146 255.575L916.917 255.575M912.254 260.867L916.917 255.575M916.917 255.575L921.812 250.019M1022.72 250.019L1030.43 244.18M1022.72 250.019L972.265 250.019M1022.72 250.019L1073.17 250.019M972.265 250.019L978.695 244.18M972.265 250.019L921.812 250.019M921.812 250.019L926.956 244.18M1030.43 244.18L978.695 244.18M1030.43 244.18L1082.17 244.18M985.461 238.035L978.695 244.18M985.461 238.035L992.591 231.561M985.461 238.035L932.369 238.035M978.695 244.18L926.956 244.18M1082.17 244.18L1133.91 244.18M1082.17 244.18L1073.17 250.019M926.956 244.18L932.369 238.035M1073.17 250.019L1123.62 250.019M992.591 231.561L1000.12 224.728M992.591 231.561L938.073 231.561M932.369 238.035L938.073 231.561M938.073 231.561L944.093 224.728M1056.14 224.728L1065.68 217.509M1056.14 224.728L1000.12 224.728M1056.14 224.728L1112.16 224.728M1000.12 224.728L1008.07 217.509M1000.12 224.728L944.093 224.728M944.093 224.728L950.453 217.509M1065.68 217.509L1008.07 217.509M1065.68 217.509L1123.29 217.509M1016.48 209.867L1008.07 217.509M1016.48 209.867L1025.4 201.766M1016.48 209.867L957.185 209.867M1008.07 217.509L950.453 217.509M1123.29 217.509L1180.91 217.509M1123.29 217.509L1112.16 224.728M950.453 217.509L957.185 209.867M1112.16 224.728L1168.18 224.728M1025.4 201.766L1034.88 193.161M1025.4 201.766L964.323 201.766M957.185 209.867L964.323 201.766M964.323 201.766L971.903 193.161M1097.86 193.161L1109.95 184.006M1097.86 193.161L1034.88 193.161M1097.86 193.161L1160.83 193.161M1034.88 193.161L1044.96 184.006M1034.88 193.161L971.903 193.161M971.903 193.161L979.969 184.006M1109.95 184.006L1044.96 184.006M1109.95 184.006L1174.95 184.006M1055.71 174.245L1044.96 184.006M1055.71 174.245L1067.2 163.816M1055.71 174.245L988.568 174.245M1044.96 184.006L979.969 184.006M1174.95 184.006L1239.94 184.006M1174.95 184.006L1160.83 193.161M979.969 184.006L988.568 174.245M1160.83 193.161L1223.81 193.161M1067.2 163.816L1079.49 152.649M1067.2 163.816L997.756 163.816M988.568 174.245L997.756 163.816M997.756 163.816L1007.6 152.649M1151.39 152.649L1167.23 140.661M1151.39 152.649L1079.49 152.649M1151.39 152.649L1223.29 152.649M1079.49 152.649L1092.7 140.661M1079.49 152.649L1007.6 152.649M1007.6 152.649L1018.16 140.661M1167.23 140.661L1092.7 140.661M1167.23 140.661L1241.77 140.661M1106.9 127.759L1092.7 140.661M1106.9 127.759L1122.24 113.834M1106.9 127.759L1029.52 127.759M1092.7 140.661L1018.16 140.661M1241.77 140.661L1316.31 140.661M1241.77 140.661L1223.29 152.649M1018.16 140.661L1029.52 127.759M1223.29 152.649L1295.19 152.649M1122.24 113.834L1138.84 98.7603M1122.24 113.834L1041.79 113.834M1029.52 127.759L1041.79 113.834M1041.79 113.834L1055.07 98.7603M1222.61 98.7603L1244.24 82.3886M1222.61 98.7603L1138.84 98.7603M1222.61 98.7603L1306.37 98.7603M1138.84 98.7603L1156.87 82.3886M1138.84 98.7603L1055.07 98.7603M1055.07 98.7603L1069.49 82.3886M1244.24 82.3886L1156.87 82.3886M1244.24 82.3886L1331.62 82.3886M1176.52 64.5441L1156.87 82.3886M1176.52 64.5441L1198.02 45.0187M1176.52 64.5441L1085.22 64.5441M1156.87 82.3886L1069.49 82.3886M1331.62 82.3886L1418.99 82.3886M1331.62 82.3886L1306.37 98.7603M1069.49 82.3886L1085.22 64.5441M1306.37 98.7603L1390.14 98.7603M1198.02 45.0187L1221.65 23.5626M1198.02 45.0187L1102.42 45.0187M1085.22 64.5441L1102.42 45.0187M1102.42 45.0187L1121.32 23.5626M1321.98 23.5626L1353.28 -0.124958M1321.98 23.5626L1221.65 23.5626M1321.98 23.5626L1422.31 23.5626M1221.65 23.5626L1247.74 -0.124966M1221.65 23.5626L1121.32 23.5626M1121.32 23.5626L1142.19 -0.124975M1247.74 -0.124966L1353.28 -0.124958M1247.74 -0.124966L1142.19 -0.124975M1353.28 -0.124958L1439.61 -0.124515M1422.31 23.5626L1439.61 12.3409M1422.31 23.5626L1439.61 23.5626M1080.97 315.198L1087.51 312.231M1080.97 315.198L1044.87 315.198M1080.97 315.198L1117.07 315.198M1039.2 318.062L1033.71 320.827M1039.2 318.062L1044.87 315.198M1039.2 318.062L1003.73 318.062M1033.71 320.827L998.857 320.827M1033.71 320.827L1028.42 323.499M1062.69 323.499L1028.42 323.499M1062.69 323.499L1060.53 324.478L1057 326.082M1062.69 323.499L1096.96 323.499M1044.87 315.198L1050.75 312.231M1044.87 315.198L1008.78 315.198M1003.73 318.062L998.857 320.827M1003.73 318.062L1008.78 315.198M998.857 320.827L995.311 322.84L994.149 323.499M1028.42 323.499L1027.77 323.827L1023.3 326.082M1028.42 323.499L994.149 323.499M1008.78 315.198L1014 312.231M959.881 323.499L955.898 326.082M959.881 323.499L994.149 323.499M994.149 323.499L992.424 324.478L989.597 326.082M1087.51 312.231L1050.75 312.231M1087.51 312.231L1124.26 312.231M1056.85 309.154L1050.75 312.231M1056.85 309.154L1063.18 305.962M1056.85 309.154L1019.43 309.154M1050.75 312.231L1014 312.231M1124.26 312.231L1161.01 312.231M1124.26 312.231L1117.07 315.198M1014 312.231L1019.43 309.154M1117.07 315.198L1153.16 315.198M1063.18 305.962L1064.8 305.145L1069.75 302.647M1063.18 305.962L1025.05 305.962M1019.43 309.154L1025.05 305.962M1025.05 305.962L1030.89 302.647M1108.61 302.647L1109.55 302.224L1116.2 299.203M1108.61 302.647L1069.75 302.647M1108.61 302.647L1147.48 302.647M1069.75 302.647L1076.58 299.203M1069.75 302.647L1030.89 302.647M1030.89 302.647L1031.64 302.224L1036.96 299.203M1116.2 299.203L1076.58 299.203M1116.2 299.203L1155.82 299.203M1083.68 295.622L1076.58 299.203M1083.68 295.622L1091.07 291.895M1083.68 295.622L1043.27 295.622M1076.58 299.203L1036.96 299.203M1155.82 299.203L1195.44 299.203M1155.82 299.203L1147.48 302.647M1036.96 299.203L1043.27 295.622M1147.48 302.647L1186.34 302.647M1091.07 291.895L1098.76 288.014M1091.07 291.895L1049.84 291.895M1043.27 295.622L1049.84 291.895M1049.84 291.895L1056.67 288.014M1140.84 288.014L1149.75 283.969M1140.84 288.014L1098.76 288.014M1140.84 288.014L1182.93 288.014M1098.76 288.014L1106.78 283.969M1098.76 288.014L1056.67 288.014M1056.67 288.014L1063.8 283.969M1149.75 283.969L1106.78 283.969M1149.75 283.969L1192.73 283.969M1115.14 279.748L1106.78 283.969M1115.14 279.748L1123.88 275.341M1115.14 279.748L1071.24 279.748M1106.78 283.969L1063.8 283.969M1192.73 283.969L1235.7 283.969M1192.73 283.969L1182.93 288.014M1063.8 283.969L1071.24 279.748M1182.93 288.014L1225.01 288.014M1123.88 275.341L1133.01 270.734M1123.88 275.341L1079 275.341M1071.24 279.748L1079 275.341M1079 275.341L1087.12 270.734M1178.9 270.734L1189.52 265.915M1178.9 270.734L1133.01 270.734M1178.9 270.734L1224.79 270.734M1133.01 270.734L1142.57 265.915M1133.01 270.734L1087.12 270.734M1087.12 270.734L1095.61 265.915M1189.52 265.915L1142.57 265.915M1189.52 265.915L1236.47 265.915M1152.57 260.867L1142.57 265.915M1152.57 260.867L1163.06 255.575M1152.57 260.867L1104.51 260.867M1142.57 265.915L1095.61 265.915M1236.47 265.915L1283.42 265.915M1236.47 265.915L1224.79 270.734M1095.61 265.915L1104.51 260.867M1224.79 270.734L1270.68 270.734M1163.06 255.575L1174.08 250.019M1163.06 255.575L1113.83 255.575M1104.51 260.867L1113.83 255.575M1113.83 255.575L1123.62 250.019M1224.53 250.019L1237.39 244.18M1224.53 250.019L1174.08 250.019M1224.53 250.019L1274.98 250.019M1174.08 250.019L1185.65 244.18M1174.08 250.019L1123.62 250.019M1123.62 250.019L1133.91 244.18M1237.39 244.18L1185.65 244.18M1237.39 244.18L1289.13 244.18M1197.83 238.035L1185.65 244.18M1197.83 238.035L1210.66 231.561M1197.83 238.035L1144.74 238.035M1185.65 244.18L1133.91 244.18M1289.13 244.18L1340.87 244.18M1289.13 244.18L1274.98 250.019M1133.91 244.18L1144.74 238.035M1274.98 250.019L1325.43 250.019M1210.66 231.561L1224.21 224.728M1210.66 231.561L1156.15 231.561M1144.74 238.035L1156.15 231.561M1156.15 231.561L1168.18 224.728M1280.23 224.728L1296.13 217.509M1280.23 224.728L1224.21 224.728M1280.23 224.728L1336.25 224.728M1224.21 224.728L1238.52 217.509M1224.21 224.728L1168.18 224.728M1168.18 224.728L1180.91 217.509M1296.13 217.509L1238.52 217.509M1296.13 217.509L1353.75 217.509M1253.67 209.867L1238.52 217.509M1253.67 209.867L1269.73 201.766M1253.67 209.867L1194.37 209.867M1238.52 217.509L1180.91 217.509M1353.75 217.509L1411.36 217.509M1353.75 217.509L1336.25 224.728M1180.91 217.509L1194.37 209.867M1336.25 224.728L1392.28 224.728M1269.73 201.766L1286.78 193.161M1269.73 201.766L1208.65 201.766M1194.37 209.867L1208.65 201.766M1208.65 201.766L1223.81 193.161M1349.76 193.161L1369.92 184.006M1349.76 193.161L1286.78 193.161M1349.76 193.161L1412.73 193.161M1286.78 193.161L1304.93 184.006M1286.78 193.161L1223.81 193.161M1223.81 193.161L1239.94 184.006M1369.92 184.006L1304.93 184.006M1369.92 184.006L1434.91 184.006M1324.28 174.245L1304.93 184.006M1324.28 174.245L1344.95 163.816M1324.28 174.245L1257.14 174.245M1304.93 184.006L1239.94 184.006M1434.91 184.006L1412.73 193.161M1434.91 184.006L1439.61 184.006M1434.91 184.006L1439.61 182.067M1239.94 184.006L1257.14 174.245M1412.73 193.161L1439.61 193.161M1344.95 163.816L1367.09 152.649M1344.95 163.816L1275.51 163.816M1257.14 174.245L1275.51 163.816M1275.51 163.816L1295.19 152.649M1438.99 152.649L1367.09 152.649M1438.99 152.649L1439.61 152.649M1438.99 152.649L1439.61 152.365M1367.09 152.649L1390.85 140.661M1367.09 152.649L1295.19 152.649M1295.19 152.649L1316.31 140.661M1416.43 127.759L1390.85 140.661M1416.43 127.759L1339.05 127.759M1416.43 127.759L1439.61 127.759M1416.43 127.759L1439.61 116.063M1390.85 140.661L1316.31 140.661M1390.85 140.661L1439.61 140.661M1316.31 140.661L1339.05 127.759M1339.05 127.759L1363.58 113.834M1363.58 113.834L1390.14 98.7603M1363.58 113.834L1439.61 113.834M1390.14 98.7603L1418.99 82.3886M1390.14 98.7603L1439.61 98.7603M1418.99 82.3886L1439.61 82.3886M1418.99 82.3886L1439.61 70.6844M1225.36 315.198L1234.51 312.231M1225.36 315.198L1189.26 315.198M1225.36 315.198L1261.45 315.198M1181.06 318.062L1173.14 320.827M1181.06 318.062L1189.26 315.198M1181.06 318.062L1145.59 318.062M1173.14 320.827L1138.29 320.827M1173.14 320.827L1165.49 323.499M1199.76 323.499L1165.49 323.499M1199.76 323.499L1191.8 326.082M1199.76 323.499L1234.03 323.499M1189.26 315.198L1197.76 312.231M1189.26 315.198L1153.16 315.198M1145.59 318.062L1138.29 320.827M1145.59 318.062L1153.16 315.198M1138.29 320.827L1131.22 323.499M1165.49 323.499L1164.55 323.827L1158.1 326.082M1165.49 323.499L1131.22 323.499M1153.16 315.198L1161.01 312.231M1096.96 323.499L1090.7 326.082M1096.96 323.499L1131.22 323.499M1131.22 323.499L1130.36 323.827L1124.4 326.082M1234.51 312.231L1197.76 312.231M1234.51 312.231L1271.26 312.231M1206.57 309.154L1197.76 312.231M1206.57 309.154L1215.71 305.962M1206.57 309.154L1169.14 309.154M1197.76 312.231L1161.01 312.231M1271.26 312.231L1308.01 312.231M1271.26 312.231L1261.45 315.198M1161.01 312.231L1169.14 309.154M1261.45 315.198L1297.55 315.198M1215.71 305.962L1225.2 302.647M1215.71 305.962L1177.58 305.962M1169.14 309.154L1170.18 308.762L1177.58 305.962M1177.58 305.962L1186.34 302.647M1264.06 302.647L1274.68 299.203M1264.06 302.647L1225.2 302.647M1264.06 302.647L1302.92 302.647M1225.2 302.647L1235.06 299.203M1225.2 302.647L1186.34 302.647M1186.34 302.647L1195.44 299.203M1274.68 299.203L1235.06 299.203M1274.68 299.203L1314.3 299.203M1245.31 295.622L1235.06 299.203M1245.31 295.622L1255.98 291.895M1245.31 295.622L1204.9 295.622M1235.06 299.203L1195.44 299.203M1314.3 299.203L1353.92 299.203M1314.3 299.203L1302.92 302.647M1195.44 299.203L1204.9 295.622M1302.92 302.647L1341.78 302.647M1255.98 291.895L1267.1 288.014M1255.98 291.895L1214.75 291.895M1204.9 295.622L1214.75 291.895M1214.75 291.895L1225.01 288.014M1309.18 288.014L1321.66 283.969M1309.18 288.014L1267.1 288.014M1309.18 288.014L1351.27 288.014M1267.1 288.014L1278.68 283.969M1267.1 288.014L1225.01 288.014M1225.01 288.014L1235.7 283.969M1321.66 283.969L1278.68 283.969M1321.66 283.969L1364.63 283.969M1290.76 279.748L1278.68 283.969M1290.76 279.748L1303.38 275.341M1290.76 279.748L1246.86 279.748M1278.68 283.969L1235.7 283.969M1364.63 283.969L1407.61 283.969M1364.63 283.969L1351.27 288.014M1235.7 283.969L1246.86 279.748M1351.27 288.014L1393.35 288.014M1303.38 275.341L1316.57 270.734M1303.38 275.341L1258.51 275.341M1246.86 279.748L1258.51 275.341M1258.51 275.341L1270.68 270.734M1362.46 270.734L1377.32 265.915M1362.46 270.734L1316.57 270.734M1362.46 270.734L1408.35 270.734M1316.57 270.734L1330.37 265.915M1316.57 270.734L1270.68 270.734M1270.68 270.734L1283.42 265.915M1377.32 265.915L1330.37 265.915M1344.83 260.867L1330.37 265.915M1344.83 260.867L1359.98 255.575M1344.83 260.867L1296.76 260.867M1330.37 265.915L1283.42 265.915M1283.42 265.915L1296.76 260.867M1408.35 270.734L1439.61 270.734M1359.98 255.575L1375.89 250.019M1359.98 255.575L1310.75 255.575M1296.76 260.867L1310.75 255.575M1310.75 255.575L1325.43 250.019M1426.34 250.019L1375.89 250.019M1426.34 250.019L1439.61 250.019M1426.34 250.019L1439.61 245.715M1375.89 250.019L1392.61 244.18M1375.89 250.019L1325.43 250.019M1325.43 250.019L1340.87 244.18M1410.2 238.035L1392.61 244.18M1410.2 238.035L1428.74 231.561M1410.2 238.035L1357.11 238.035M1410.2 238.035L1439.61 238.035M1392.61 244.18L1340.87 244.18M1392.61 244.18L1439.61 244.18M1340.87 244.18L1357.11 238.035M1439.76 245.667L1439.61 245.715M1428.74 231.561L1374.22 231.561M1428.74 231.561L1439.61 231.561M1428.74 231.561L1439.61 227.763M1357.11 238.035L1374.22 231.561M1374.22 231.561L1392.28 224.728M1392.28 224.728L1411.36 217.509M1392.28 224.728L1439.61 224.728M1431.56 209.867L1411.36 217.509M1431.56 209.867L1439.61 209.867M1431.56 209.867L1439.61 206.819M1411.36 217.509L1439.61 217.509M1369.74 315.198L1381.51 312.231M1369.74 315.198L1333.65 315.198M1369.74 315.198L1405.84 315.198M1322.93 318.062L1312.57 320.827M1322.93 318.062L1333.65 315.198M1322.93 318.062L1287.46 318.062M1312.57 320.827L1277.71 320.827M1312.57 320.827L1302.57 323.499M1336.84 323.499L1302.57 323.499M1336.84 323.499L1326.6 326.082M1336.84 323.499L1371.1 323.499M1333.65 315.198L1344.76 312.231M1333.65 315.198L1297.55 315.198M1287.46 318.062L1277.71 320.827M1287.46 318.062L1297.55 315.198M1277.71 320.827L1268.3 323.499M1302.57 323.499L1268.3 323.499M1302.57 323.499L1292.89 326.082M1297.55 315.198L1308.01 312.231M1234.03 323.499L1225.5 326.082M1234.03 323.499L1268.3 323.499M1268.3 323.499L1259.2 326.082M1381.51 312.231L1344.76 312.231M1381.51 312.231L1418.26 312.231M1356.28 309.154L1344.76 312.231M1356.28 309.154L1368.23 305.962M1356.28 309.154L1318.85 309.154M1344.76 312.231L1308.01 312.231M1418.26 312.231L1405.84 315.198M1418.26 312.231L1439.61 312.231M1308.01 312.231L1318.85 309.154M1405.84 315.198L1439.61 315.198M1368.23 305.962L1380.64 302.647M1368.23 305.962L1330.1 305.962M1318.85 309.154L1330.1 305.962M1330.1 305.962L1341.78 302.647M1419.5 302.647L1433.16 299.203M1419.5 302.647L1380.64 302.647M1419.5 302.647L1439.61 302.647M1380.64 302.647L1393.54 299.203M1380.64 302.647L1341.78 302.647M1341.78 302.647L1353.92 299.203M1406.95 295.622L1393.54 299.203M1406.95 295.622L1420.9 291.895M1406.95 295.622L1366.54 295.622M1406.95 295.622L1439.61 295.622M1393.54 299.203L1433.16 299.203M1393.54 299.203L1353.92 299.203M1433.16 299.203L1439.61 297.575M1433.16 299.203L1439.61 299.203M1353.92 299.203L1366.54 295.622M1420.9 291.895L1435.43 288.014M1420.9 291.895L1379.67 291.895M1420.9 291.895L1439.61 291.895M1366.54 295.622L1379.67 291.895M1379.67 291.895L1393.35 288.014M1435.43 288.014L1393.35 288.014M1435.43 288.014L1439.61 286.898M1435.43 288.014L1439.61 288.014M1393.35 288.014L1407.61 283.969M1422.48 279.748L1407.61 283.969M1422.48 279.748L1438.01 275.341M1422.48 279.748L1439.61 279.748M1407.61 283.969L1439.61 283.969M1439.84 283.969L1439.61 283.969M1438.01 275.341L1439.61 275.341M1438.01 275.341L1439.61 274.886M1440 274.776L1439.61 274.886M1429.32 318.062L1417.14 320.827M1429.32 318.062L1439.61 318.062M1429.32 318.062L1439.61 315.727M1417.14 320.827L1405.37 323.499M1417.14 320.827L1439.61 320.827M1371.1 323.499L1360.29 326.082M1371.1 323.499L1405.37 323.499M1405.37 323.499L1393.99 326.082M1405.37 323.499L1439.61 323.499M248.204 326.082L214.504 326.082M248.204 326.082L281.904 326.082M222.76 328.581L220.722 327.964L214.504 326.082M222.76 328.581L189.61 328.581M214.504 326.082L180.805 326.082M189.61 328.581L187.436 327.964L186.342 327.654L180.805 326.082M180.805 326.082L147.105 326.082M147.105 326.082L113.405 326.082M281.904 326.082L315.603 326.082M113.405 326.082L79.7052 326.082M79.7052 326.082L90.1629 328.581M79.7052 326.082L46.0057 326.082M90.1629 328.581L57.0135 328.581M383.003 326.082L349.303 326.082M383.003 326.082L416.703 326.082M355.357 328.581L353.863 327.964L353.11 327.654L349.303 326.082M355.357 328.581L322.208 328.581M349.303 326.082L315.603 326.082M322.208 328.581L315.603 326.082M416.703 326.082L450.402 326.082M517.802 326.082L484.102 326.082M517.802 326.082L551.501 326.082M487.955 328.581L487.48 328.274L487.004 327.964L486.525 327.654L484.102 326.082M487.955 328.581L454.806 328.581M484.102 326.082L450.402 326.082M454.806 328.581L450.402 326.082M551.501 326.082L585.202 326.082M652.601 326.082L618.901 326.082M652.601 326.082L686.3 326.082M620.552 328.581L618.901 326.082M620.552 328.581L587.402 328.581M618.901 326.082L585.202 326.082M587.402 328.581L587.131 328.274L586.859 327.964L586.585 327.654L585.202 326.082M686.3 326.082L720 326.082M787.399 326.082L753.7 326.082M787.399 326.082L821.099 326.082M753.149 328.581L753.7 326.082M753.149 328.581L720 328.581M753.7 326.082L720 326.082M720 328.581L720 326.082M821.099 326.082L854.799 326.082M922.198 326.082L888.499 326.082M922.198 326.082L955.898 326.082M885.747 328.581L886.426 327.964L887.802 326.715L888.499 326.082M885.747 328.581L852.598 328.581M888.499 326.082L854.799 326.082M852.598 328.581L852.869 328.274L853.141 327.964L853.415 327.654L854.799 326.082M955.898 326.082L989.597 326.082M1057 326.082L1023.3 326.082M1057 326.082L1090.7 326.082M1018.34 328.581L1019.57 327.964L1020.18 327.654L1023.3 326.082M1018.34 328.581L985.194 328.581M1023.3 326.082L989.597 326.082M985.194 328.581L985.737 328.274L989.597 326.082M1090.7 326.082L1124.4 326.082M1191.8 326.082L1158.1 326.082M1191.8 326.082L1225.5 326.082M1150.94 328.581L1152.71 327.964L1153.6 327.654L1158.1 326.082M1150.94 328.581L1117.79 328.581M1158.1 326.082L1124.4 326.082M1117.79 328.581L1118.61 328.274L1124.4 326.082M1225.5 326.082L1259.2 326.082M1326.6 326.082L1292.89 326.082M1326.6 326.082L1360.29 326.082M1283.54 328.581L1292.89 326.082M1283.54 328.581L1250.39 328.581M1292.89 326.082L1259.2 326.082M1250.39 328.581L1252.56 327.964L1253.66 327.654L1259.2 326.082M1360.29 326.082L1393.99 326.082M1416.14 328.581L1427.69 326.083M1416.14 328.581L1382.99 328.581M1416.14 328.581L1439.61 328.581M1427.69 326.083L1393.99 326.082M1427.69 326.083L1439.61 323.506M1427.69 326.083L1439.61 326.083M1382.99 328.581L1385.7 327.964L1393.99 326.082M57.0135 328.581L54.2955 327.964L46.0057 326.082M46.0057 326.082L12.3061 326.082M12.3061 326.082L0.387477 323.505M12.3061 326.082L0.387477 326.082M0.387488 206.819L0.387488 209.867M0.387488 206.819L0.387489 201.766M0.387488 209.867L0.387487 217.509M0.387489 201.766L0.387489 200.256L0.38749 193.161M0.38749 193.161L0.387491 184.006M0.387483 265.915L0.387482 270.734M0.387483 265.915L0.387483 261.273M0.387477 328.581L0.387477 326.082M0.387477 326.082L0.387477 323.505M0.387477 323.505L0.358288 323.499L0.387477 323.499M0.387477 323.505L0.387477 323.499M0.387477 323.499L0.387478 320.827M0.387478 320.827L0.387478 318.062M0.387478 318.062L0.387478 315.727M0.387478 315.727L0.387478 315.198M0.387478 315.198L0.387478 312.231M0.387478 312.231L0.387479 309.154M0.387479 309.154L0.387479 307.129M0.387479 307.129L0.387479 305.962M0.387479 305.962L0.387479 302.647M0.387479 302.647L0.38748 299.203M0.38748 299.203L0.38748 297.575M0.38748 297.575L0.38748 295.622M0.38748 295.622L0.38748 291.895M0.38748 291.895L0.387481 288.014M0.387481 288.014L0.387481 286.898M0.387481 286.898L0.387481 283.968M0.387481 283.968L0.387482 279.748M0.387482 279.748L0.387482 275.341M0.387482 275.341L0.387482 274.886M0.387482 274.886L0.387482 270.734M0.387483 260.867L0.387484 255.574M0.387483 260.867L0.387483 261.273M0.387484 255.574L0.387484 250.019M0.387484 250.019L0.387485 245.715M0.387485 245.715L0.387485 244.18M0.387485 244.18L0.387485 238.035M0.387485 238.035L0.387486 231.561M0.387486 231.561L0.387486 227.763M0.387486 227.763L0.387487 224.728M0.387487 224.728L0.387487 217.509M0.387491 184.006L0.387491 182.067M0.387491 182.067L0.387491 174.245M0.387491 174.245L0.387492 163.816M0.387492 163.816L0.387493 152.649M0.387493 152.649L0.387494 152.365M0.387494 152.365L0.387495 140.661M0.387495 140.661L0.387496 127.759M0.387496 127.759L0.387497 116.063M0.387497 116.063L0.387497 113.834M0.387497 113.834L0.387499 98.7602M0.387499 98.7602L0.3875 82.3885M0.3875 82.3885L0.387501 70.6842M0.387501 70.6842L0.387502 64.544M0.387502 64.544L0.387504 45.0186M0.387504 45.0186L0.387506 23.5625M0.387506 23.5625L0.387507 12.3408M0.387507 12.3408L0.387508 -0.124633M0.387508 -0.124633L0.387508 -0.209214L1439.61 -0.209097L1439.61 -0.124515M1439.61 260.867L1439.61 255.575M1439.61 260.867L1439.61 261.273M1439.61 261.273L1439.61 265.915M1439.61 265.915L1439.61 270.734M1439.61 270.734L1439.61 274.886M1439.61 274.886L1439.61 275.341M1439.61 275.341L1439.61 279.748M1439.61 279.748L1439.61 283.969M1439.61 283.969L1439.61 286.898M1439.61 286.898L1439.61 288.014M1439.61 288.014L1439.61 291.895M1439.61 291.895L1439.61 295.622M1439.61 295.622L1439.61 297.575M1439.61 297.575L1439.61 299.203M1439.61 299.203L1439.61 302.647M1439.61 302.647L1439.61 305.962M1439.61 305.962L1439.61 307.129M1439.61 307.129L1439.61 309.154M1439.61 309.154L1439.61 312.231M1439.61 312.231L1439.61 315.198M1439.61 315.198L1439.61 315.727M1439.61 315.727L1439.61 318.062M1439.61 318.062L1439.61 320.827M1439.61 320.827L1439.61 323.499M1439.61 323.499L1439.64 323.499L1439.61 323.506M1439.61 323.499L1439.61 323.506M1439.61 323.506L1439.61 326.083M1439.61 326.083L1439.61 328.581M1439.61 -0.124515L1439.61 12.3409M1439.61 12.3409L1439.61 23.5626M1439.61 23.5626L1439.61 45.0183M1439.61 45.0183L1439.61 64.5442M1439.61 64.5442L1439.61 70.6844M1439.61 70.6844L1439.61 82.3886M1439.61 82.3886L1439.61 98.7603M1439.61 98.7603L1439.61 113.834M1439.61 113.834L1439.61 116.063M1439.61 116.063L1439.61 127.759M1439.61 127.759L1439.61 140.661M1439.61 140.661L1439.61 152.365M1439.61 152.365L1439.61 152.649M1439.61 152.649L1439.61 163.816M1439.61 163.816L1439.61 174.245M1439.61 174.245L1439.61 182.067M1439.61 182.067L1439.61 184.006M1439.61 184.006L1439.61 193.161M1439.61 193.161L1439.61 201.766M1439.61 201.766L1439.61 206.819M1439.61 206.819L1439.61 209.867M1439.61 209.867L1439.61 217.509M1439.61 217.509L1439.61 224.728M1439.61 224.728L1439.61 227.763M1439.61 227.763L1439.61 231.561M1439.61 231.561L1439.61 238.035M1439.61 238.035L1439.61 244.18M1439.61 244.18L1439.61 245.715M1439.61 245.715L1439.61 250.019M1439.61 250.019L1439.61 255.575" stroke="url(#paint0_linear_277_1867)" stroke-opacity="0.2" stroke-width="0.870405" stroke-miterlimit="10" stroke-linecap="round" stroke-linejoin="round"/>
<defs>
<linearGradient id="paint0_linear_277_1867" x1="720" y1="331" x2="720" y2="98.7818" gradientUnits="userSpaceOnUse">
<stop stop-color="#6259E8" stop-opacity="0"/>
<stop offset="1" stop-color="#6259E8"/>
</linearGradient>
</defs>
</svg>